<svg xmlns="http://www.w3.org/2000/svg" xmlns:xlink="http://www.w3.org/1999/xlink" contentStyleType="text/css" data-diagram-type="CLASS" height="872px" preserveAspectRatio="none" style="width:1404px;height:872px;background:#FFFFFF;" version="1.1" viewBox="0 0 1404 872" width="1404px" zoomAndPan="magnify"><defs/><g><!--class VluchtController--><g id="elem_VluchtController"><rect codeLine="1" fill="#F1F1F1" height="113.1875" id="VluchtController" rx="2.5" ry="2.5" style="stroke:#181818;stroke-width:0.5;" width="560.3105" x="521" y="39.5"/><ellipse cx="740.1191" cy="55.5" fill="#ADD1B2" rx="11" ry="11" style="stroke:#181818;stroke-width:1;"/><path d="M743.0879,61.1406 Q742.5098,61.4375 741.8691,61.5781 Q741.2285,61.7344 740.5254,61.7344 Q738.0254,61.7344 736.6973,60.0938 Q735.3848,58.4375 735.3848,55.3125 Q735.3848,52.1875 736.6973,50.5313 Q738.0254,48.875 740.5254,48.875 Q741.2285,48.875 741.8691,49.0313 Q742.5254,49.1875 743.0879,49.4844 L743.0879,52.2031 Q742.4629,51.625 741.8691,51.3594 Q741.2754,51.0781 740.6504,51.0781 Q739.3066,51.0781 738.6191,52.1563 Q737.9316,53.2188 737.9316,55.3125 Q737.9316,57.4063 738.6191,58.4844 Q739.3066,59.5469 740.6504,59.5469 Q741.2754,59.5469 741.8691,59.2813 Q742.4629,59 743.0879,58.4219 L743.0879,61.1406 Z " fill="#000000"/><text fill="#000000" font-family="sans-serif" font-size="14" lengthAdjust="spacing" textLength="113.5723" x="760.6191" y="60.3467">VluchtController</text><line style="stroke:#181818;stroke-width:0.5;" x1="522" x2="1080.3105" y1="71.5" y2="71.5"/><rect fill="transparent" height="6" style="stroke:#C82930;stroke-width:1;" width="6" x="529" y="82.1484"/><text fill="#000000" font-family="sans-serif" font-size="14" lengthAdjust="spacing" textLength="195.4395" x="541" y="88.4951">VluchtService vluchtService</text><line style="stroke:#181818;stroke-width:0.5;" x1="522" x2="1080.3105" y1="95.7969" y2="95.7969"/><ellipse cx="532" cy="109.4453" fill="#84BE84" rx="3" ry="3" style="stroke:#038048;stroke-width:1;"/><text fill="#000000" font-family="sans-serif" font-size="14" lengthAdjust="spacing" textLength="534.3105" x="541" y="112.792">List&lt;Vlucht&gt; zoekVluchten(String vertrek, String bestemming, Date datum)</text><ellipse cx="532" cy="125.7422" fill="#84BE84" rx="3" ry="3" style="stroke:#038048;stroke-width:1;"/><text fill="#000000" font-family="sans-serif" font-size="14" lengthAdjust="spacing" textLength="335.8906" x="541" y="129.0889">List&lt;Vlucht&gt; haalVluchtenOp(String username)</text><ellipse cx="532" cy="142.0391" fill="#84BE84" rx="3" ry="3" style="stroke:#038048;stroke-width:1;"/><text fill="#000000" font-family="sans-serif" font-size="14" lengthAdjust="spacing" textLength="215.5303" x="541" y="145.3857">void boekVlucht(Vlucht vlucht)</text></g><!--class VluchtService--><g id="elem_VluchtService"><rect codeLine="8" fill="#F1F1F1" height="145.7813" id="VluchtService" rx="2.5" ry="2.5" style="stroke:#181818;stroke-width:0.5;" width="560.3105" x="521" y="262"/><ellipse cx="748.835" cy="278" fill="#ADD1B2" rx="11" ry="11" style="stroke:#181818;stroke-width:1;"/><path d="M751.8037,283.6406 Q751.2256,283.9375 750.585,284.0781 Q749.9443,284.2344 749.2412,284.2344 Q746.7412,284.2344 745.4131,282.5938 Q744.1006,280.9375 744.1006,277.8125 Q744.1006,274.6875 745.4131,273.0313 Q746.7412,271.375 749.2412,271.375 Q749.9443,271.375 750.585,271.5313 Q751.2412,271.6875 751.8037,271.9844 L751.8037,274.7031 Q751.1787,274.125 750.585,273.8594 Q749.9912,273.5781 749.3662,273.5781 Q748.0225,273.5781 747.335,274.6563 Q746.6475,275.7188 746.6475,277.8125 Q746.6475,279.9063 747.335,280.9844 Q748.0225,282.0469 749.3662,282.0469 Q749.9912,282.0469 750.585,281.7813 Q751.1787,281.5 751.8037,280.9219 L751.8037,283.6406 Z " fill="#000000"/><text fill="#000000" font-family="sans-serif" font-size="14" lengthAdjust="spacing" textLength="96.1406" x="769.335" y="282.8467">VluchtService</text><line style="stroke:#181818;stroke-width:0.5;" x1="522" x2="1080.3105" y1="294" y2="294"/><rect fill="transparent" height="6" style="stroke:#C82930;stroke-width:1;" width="6" x="529" y="304.6484"/><text fill="#000000" font-family="sans-serif" font-size="14" lengthAdjust="spacing" textLength="242.1016" x="541" y="310.9951">VluchtRepository vluchtRepository</text><rect fill="transparent" height="6" style="stroke:#C82930;stroke-width:1;" width="6" x="529" y="320.9453"/><text fill="#000000" font-family="sans-serif" font-size="14" lengthAdjust="spacing" textLength="264.6465" x="541" y="327.292">List&lt;IExternVluchtAdapter&gt; adapters</text><rect fill="transparent" height="6" style="stroke:#C82930;stroke-width:1;" width="6" x="529" y="337.2422"/><text fill="#000000" font-family="sans-serif" font-size="14" lengthAdjust="spacing" textLength="310.1396" x="541" y="343.5889">ExternVluchtAdapterFactory adapterFactory</text><line style="stroke:#181818;stroke-width:0.5;" x1="522" x2="1080.3105" y1="350.8906" y2="350.8906"/><ellipse cx="532" cy="364.5391" fill="#84BE84" rx="3" ry="3" style="stroke:#038048;stroke-width:1;"/><text fill="#000000" font-family="sans-serif" font-size="14" lengthAdjust="spacing" textLength="534.3105" x="541" y="367.8857">List&lt;Vlucht&gt; zoekVluchten(String vertrek, String bestemming, Date datum)</text><ellipse cx="532" cy="380.8359" fill="#84BE84" rx="3" ry="3" style="stroke:#038048;stroke-width:1;"/><text fill="#000000" font-family="sans-serif" font-size="14" lengthAdjust="spacing" textLength="292.0176" x="541" y="384.1826">void boekVlucht(Vlucht vlucht, String api)</text><ellipse cx="532" cy="397.1328" fill="#84BE84" rx="3" ry="3" style="stroke:#038048;stroke-width:1;"/><text fill="#000000" font-family="sans-serif" font-size="14" lengthAdjust="spacing" textLength="335.8906" x="541" y="400.4795">List&lt;Vlucht&gt; haalVluchtenOp(String username)</text></g><!--class IExternVluchtAdapter--><g id="elem_IExternVluchtAdapter"><rect codeLine="17" fill="#F1F1F1" height="80.5938" id="IExternVluchtAdapter" rx="2.5" ry="2.5" style="stroke:#181818;stroke-width:0.5;" width="565.0273" x="301.5" y="643"/><ellipse cx="504.6743" cy="659" fill="#B4A7E5" rx="11" ry="11" style="stroke:#181818;stroke-width:1;"/><path d="M500.5962,654.7656 L500.5962,652.6094 L507.9868,652.6094 L507.9868,654.7656 L505.5181,654.7656 L505.5181,662.8438 L507.9868,662.8438 L507.9868,665 L500.5962,665 L500.5962,662.8438 L503.0649,662.8438 L503.0649,654.7656 L500.5962,654.7656 Z " fill="#000000"/><text fill="#000000" font-family="sans-serif" font-size="14" font-style="italic" lengthAdjust="spacing" textLength="150.1787" x="525.1743" y="663.8467">IExternVluchtAdapter</text><line style="stroke:#181818;stroke-width:0.5;" x1="302.5" x2="865.5273" y1="675" y2="675"/><line style="stroke:#181818;stroke-width:0.5;" x1="302.5" x2="865.5273" y1="683" y2="683"/><ellipse cx="312.5" cy="696.6484" fill="#84BE84" rx="3" ry="3" style="stroke:#038048;stroke-width:1;"/><text fill="#000000" font-family="sans-serif" font-size="14" lengthAdjust="spacing" textLength="539.0273" x="321.5" y="699.9951">List&lt;Vlucht&gt; zoekVluchten(String vertrek, String bestemming, Date datum);</text><ellipse cx="312.5" cy="712.9453" fill="#84BE84" rx="3" ry="3" style="stroke:#038048;stroke-width:1;"/><text fill="#000000" font-family="sans-serif" font-size="14" lengthAdjust="spacing" textLength="220.2471" x="321.5" y="716.292">void boekVlucht(Vlucht vlucht);</text></g><!--class KLMAdapter--><g id="elem_KLMAdapter"><rect codeLine="22" fill="#F1F1F1" height="80.5938" id="KLMAdapter" rx="2.5" ry="2.5" style="stroke:#181818;stroke-width:0.5;" width="560.3105" x="7" y="785"/><ellipse cx="240.4814" cy="801" fill="#ADD1B2" rx="11" ry="11" style="stroke:#181818;stroke-width:1;"/><path d="M243.4502,806.6406 Q242.8721,806.9375 242.2314,807.0781 Q241.5908,807.2344 240.8877,807.2344 Q238.3877,807.2344 237.0596,805.5938 Q235.7471,803.9375 235.7471,800.8125 Q235.7471,797.6875 237.0596,796.0313 Q238.3877,794.375 240.8877,794.375 Q241.5908,794.375 242.2314,794.5313 Q242.8877,794.6875 243.4502,794.9844 L243.4502,797.7031 Q242.8252,797.125 242.2314,796.8594 Q241.6377,796.5781 241.0127,796.5781 Q239.6689,796.5781 238.9814,797.6563 Q238.2939,798.7188 238.2939,800.8125 Q238.2939,802.9063 238.9814,803.9844 Q239.6689,805.0469 241.0127,805.0469 Q241.6377,805.0469 242.2314,804.7813 Q242.8252,804.5 243.4502,803.9219 L243.4502,806.6406 Z " fill="#000000"/><text fill="#000000" font-family="sans-serif" font-size="14" lengthAdjust="spacing" textLength="84.8477" x="260.9814" y="805.8467">KLMAdapter</text><line style="stroke:#181818;stroke-width:0.5;" x1="8" x2="566.3105" y1="817" y2="817"/><line style="stroke:#181818;stroke-width:0.5;" x1="8" x2="566.3105" y1="825" y2="825"/><ellipse cx="18" cy="838.6484" fill="#84BE84" rx="3" ry="3" style="stroke:#038048;stroke-width:1;"/><text fill="#000000" font-family="sans-serif" font-size="14" lengthAdjust="spacing" textLength="534.3105" x="27" y="841.9951">List&lt;Vlucht&gt; zoekVluchten(String vertrek, String bestemming, Date datum)</text><ellipse cx="18" cy="854.9453" fill="#84BE84" rx="3" ry="3" style="stroke:#038048;stroke-width:1;"/><text fill="#000000" font-family="sans-serif" font-size="14" lengthAdjust="spacing" textLength="215.5303" x="27" y="858.292">void boekVlucht(Vlucht vlucht)</text></g><!--class SkyscannerAdapter--><g id="elem_SkyscannerAdapter"><rect codeLine="27" fill="#F1F1F1" height="80.5938" id="SkyscannerAdapter" rx="2.5" ry="2.5" style="stroke:#181818;stroke-width:0.5;" width="560.3105" x="602" y="785"/><ellipse cx="809.5288" cy="801" fill="#ADD1B2" rx="11" ry="11" style="stroke:#181818;stroke-width:1;"/><path d="M812.4976,806.6406 Q811.9194,806.9375 811.2788,807.0781 Q810.6382,807.2344 809.9351,807.2344 Q807.4351,807.2344 806.1069,805.5938 Q804.7944,803.9375 804.7944,800.8125 Q804.7944,797.6875 806.1069,796.0313 Q807.4351,794.375 809.9351,794.375 Q810.6382,794.375 811.2788,794.5313 Q811.9351,794.6875 812.4976,794.9844 L812.4976,797.7031 Q811.8726,797.125 811.2788,796.8594 Q810.6851,796.5781 810.0601,796.5781 Q808.7163,796.5781 808.0288,797.6563 Q807.3413,798.7188 807.3413,800.8125 Q807.3413,802.9063 808.0288,803.9844 Q808.7163,805.0469 810.0601,805.0469 Q810.6851,805.0469 811.2788,804.7813 Q811.8726,804.5 812.4976,803.9219 L812.4976,806.6406 Z " fill="#000000"/><text fill="#000000" font-family="sans-serif" font-size="14" lengthAdjust="spacing" textLength="136.7529" x="830.0288" y="805.8467">SkyscannerAdapter</text><line style="stroke:#181818;stroke-width:0.5;" x1="603" x2="1161.3105" y1="817" y2="817"/><line style="stroke:#181818;stroke-width:0.5;" x1="603" x2="1161.3105" y1="825" y2="825"/><ellipse cx="613" cy="838.6484" fill="#84BE84" rx="3" ry="3" style="stroke:#038048;stroke-width:1;"/><text fill="#000000" font-family="sans-serif" font-size="14" lengthAdjust="spacing" textLength="534.3105" x="622" y="841.9951">List&lt;Vlucht&gt; zoekVluchten(String vertrek, String bestemming, Date datum)</text><ellipse cx="613" cy="854.9453" fill="#84BE84" rx="3" ry="3" style="stroke:#038048;stroke-width:1;"/><text fill="#000000" font-family="sans-serif" font-size="14" lengthAdjust="spacing" textLength="215.5303" x="622" y="858.292">void boekVlucht(Vlucht vlucht)</text></g><!--class VluchtRepository--><g id="elem_VluchtRepository"><rect codeLine="32" fill="#F1F1F1" height="80.5938" id="VluchtRepository" rx="2.5" ry="2.5" style="stroke:#181818;stroke-width:0.5;" width="372.3975" x="615" y="485"/><ellipse cx="737.2129" cy="501" fill="#ADD1B2" rx="11" ry="11" style="stroke:#181818;stroke-width:1;"/><path d="M740.1816,506.6406 Q739.6035,506.9375 738.9629,507.0781 Q738.3223,507.2344 737.6191,507.2344 Q735.1191,507.2344 733.791,505.5938 Q732.4785,503.9375 732.4785,500.8125 Q732.4785,497.6875 733.791,496.0313 Q735.1191,494.375 737.6191,494.375 Q738.3223,494.375 738.9629,494.5313 Q739.6191,494.6875 740.1816,494.9844 L740.1816,497.7031 Q739.5566,497.125 738.9629,496.8594 Q738.3691,496.5781 737.7441,496.5781 Q736.4004,496.5781 735.7129,497.6563 Q735.0254,498.7188 735.0254,500.8125 Q735.0254,502.9063 735.7129,503.9844 Q736.4004,505.0469 737.7441,505.0469 Q738.3691,505.0469 738.9629,504.7813 Q739.5566,504.5 740.1816,503.9219 L740.1816,506.6406 Z " fill="#000000"/><text fill="#000000" font-family="sans-serif" font-size="14" lengthAdjust="spacing" textLength="119.4717" x="757.7129" y="505.8467">VluchtRepository</text><line style="stroke:#181818;stroke-width:0.5;" x1="616" x2="986.3975" y1="517" y2="517"/><line style="stroke:#181818;stroke-width:0.5;" x1="616" x2="986.3975" y1="525" y2="525"/><ellipse cx="626" cy="538.6484" fill="#84BE84" rx="3" ry="3" style="stroke:#038048;stroke-width:1;"/><text fill="#000000" font-family="sans-serif" font-size="14" lengthAdjust="spacing" textLength="346.3975" x="635" y="541.9951">void slaVluchtOp(Vlucht vlucht, String username)</text><ellipse cx="626" cy="554.9453" fill="#84BE84" rx="3" ry="3" style="stroke:#038048;stroke-width:1;"/><text fill="#000000" font-family="sans-serif" font-size="14" lengthAdjust="spacing" textLength="335.8906" x="635" y="558.292">List&lt;Vlucht&gt; haalVluchtenOp(String username)</text></g><!--class ExternVluchtAdapterFactory--><g id="elem_ExternVluchtAdapterFactory"><rect codeLine="38" fill="#F1F1F1" height="80.5938" id="ExternVluchtAdapterFactory" rx="2.5" ry="2.5" style="stroke:#181818;stroke-width:0.5;" width="368.6514" x="1022.5" y="485"/><ellipse cx="1103.3384" cy="501" fill="#ADD1B2" rx="11" ry="11" style="stroke:#181818;stroke-width:1;"/><path d="M1106.3071,506.6406 Q1105.729,506.9375 1105.0884,507.0781 Q1104.4478,507.2344 1103.7446,507.2344 Q1101.2446,507.2344 1099.9165,505.5938 Q1098.604,503.9375 1098.604,500.8125 Q1098.604,497.6875 1099.9165,496.0313 Q1101.2446,494.375 1103.7446,494.375 Q1104.4478,494.375 1105.0884,494.5313 Q1105.7446,494.6875 1106.3071,494.9844 L1106.3071,497.7031 Q1105.6821,497.125 1105.0884,496.8594 Q1104.4946,496.5781 1103.8696,496.5781 Q1102.5259,496.5781 1101.8384,497.6563 Q1101.1509,498.7188 1101.1509,500.8125 Q1101.1509,502.9063 1101.8384,503.9844 Q1102.5259,505.0469 1103.8696,505.0469 Q1104.4946,505.0469 1105.0884,504.7813 Q1105.6821,504.5 1106.3071,503.9219 L1106.3071,506.6406 Z " fill="#000000"/><text fill="#000000" font-family="sans-serif" font-size="14" lengthAdjust="spacing" textLength="198.4746" x="1123.8384" y="505.8467">ExternVluchtAdapterFactory</text><line style="stroke:#181818;stroke-width:0.5;" x1="1023.5" x2="1390.1514" y1="517" y2="517"/><rect fill="transparent" height="6" style="stroke:#C82930;stroke-width:1;" width="6" x="1030.5" y="527.6484"/><text fill="#000000" font-family="sans-serif" font-size="14" lengthAdjust="spacing" textLength="342.6514" x="1042.5" y="533.9951">Map&lt;String, IExternVluchtAdapter&gt; adapterMap</text><line style="stroke:#181818;stroke-width:0.5;" x1="1023.5" x2="1390.1514" y1="541.2969" y2="541.2969"/><ellipse cx="1033.5" cy="554.9453" fill="#84BE84" rx="3" ry="3" style="stroke:#038048;stroke-width:1;"/><text fill="#000000" font-family="sans-serif" font-size="14" lengthAdjust="spacing" textLength="311.917" x="1042.5" y="558.292">IExternVluchtAdapter getAdapter(String api)</text></g><!--class Vlucht--><g id="elem_Vlucht"><rect codeLine="43" fill="#F1F1F1" height="178.375" id="Vlucht" rx="2.5" ry="2.5" style="stroke:#181818;stroke-width:0.5;" width="281.5547" x="1116" y="7"/><ellipse cx="1230.3276" cy="23" fill="#ADD1B2" rx="11" ry="11" style="stroke:#181818;stroke-width:1;"/><path d="M1233.2964,28.6406 Q1232.7183,28.9375 1232.0776,29.0781 Q1231.437,29.2344 1230.7339,29.2344 Q1228.2339,29.2344 1226.9058,27.5938 Q1225.5933,25.9375 1225.5933,22.8125 Q1225.5933,19.6875 1226.9058,18.0313 Q1228.2339,16.375 1230.7339,16.375 Q1231.437,16.375 1232.0776,16.5313 Q1232.7339,16.6875 1233.2964,16.9844 L1233.2964,19.7031 Q1232.6714,19.125 1232.0776,18.8594 Q1231.4839,18.5781 1230.8589,18.5781 Q1229.5151,18.5781 1228.8276,19.6563 Q1228.1401,20.7188 1228.1401,22.8125 Q1228.1401,24.9063 1228.8276,25.9844 Q1229.5151,27.0469 1230.8589,27.0469 Q1231.4839,27.0469 1232.0776,26.7813 Q1232.6714,26.5 1233.2964,25.9219 L1233.2964,28.6406 Z " fill="#000000"/><text fill="#000000" font-family="sans-serif" font-size="14" lengthAdjust="spacing" textLength="44.3994" x="1250.8276" y="27.8467">Vlucht</text><line style="stroke:#181818;stroke-width:0.5;" x1="1117" x2="1396.5547" y1="39" y2="39"/><rect fill="transparent" height="6" style="stroke:#C82930;stroke-width:1;" width="6" x="1124" y="49.6484"/><text fill="#000000" font-family="sans-serif" font-size="14" lengthAdjust="spacing" textLength="76.7539" x="1136" y="55.9951">api : String</text><rect fill="transparent" height="6" style="stroke:#C82930;stroke-width:1;" width="6" x="1124" y="65.9453"/><text fill="#000000" font-family="sans-serif" font-size="14" lengthAdjust="spacing" textLength="155.0459" x="1136" y="72.292">vluchtNummer: String</text><rect fill="transparent" height="6" style="stroke:#C82930;stroke-width:1;" width="6" x="1124" y="82.2422"/><text fill="#000000" font-family="sans-serif" font-size="14" lengthAdjust="spacing" textLength="145.2295" x="1136" y="88.5889">maatschappij: String</text><rect fill="transparent" height="6" style="stroke:#C82930;stroke-width:1;" width="6" x="1124" y="98.5391"/><text fill="#000000" font-family="sans-serif" font-size="14" lengthAdjust="spacing" textLength="152.2021" x="1136" y="104.8857">vertrekLocatie: String</text><rect fill="transparent" height="6" style="stroke:#C82930;stroke-width:1;" width="6" x="1124" y="114.8359"/><text fill="#000000" font-family="sans-serif" font-size="14" lengthAdjust="spacing" textLength="138.7695" x="1136" y="121.1826">bestemming: String</text><rect fill="transparent" height="6" style="stroke:#C82930;stroke-width:1;" width="6" x="1124" y="131.1328"/><text fill="#000000" font-family="sans-serif" font-size="14" lengthAdjust="spacing" textLength="86.5977" x="1136" y="137.4795">prijs: double</text><rect fill="transparent" height="6" style="stroke:#C82930;stroke-width:1;" width="6" x="1124" y="147.4297"/><text fill="#000000" font-family="sans-serif" font-size="14" lengthAdjust="spacing" textLength="237.0498" x="1136" y="153.7764">vertrekDatumTijd: LocalDateTime</text><rect fill="transparent" height="6" style="stroke:#C82930;stroke-width:1;" width="6" x="1124" y="163.7266"/><text fill="#000000" font-family="sans-serif" font-size="14" lengthAdjust="spacing" textLength="255.5547" x="1136" y="170.0732">aankomstDatumTijd: LocalDateTime</text><line style="stroke:#181818;stroke-width:0.5;" x1="1117" x2="1396.5547" y1="177.375" y2="177.375"/></g><!--reverse link IExternVluchtAdapter to KLMAdapter--><g id="link_IExternVluchtAdapter_KLMAdapter"><path d="M483.7984,731.7352 C443.4084,750.7752 411.37,765.87 370.97,784.92 " fill="transparent" id="IExternVluchtAdapter-backto-KLMAdapter" style="stroke:#181818;stroke-width:1;stroke-dasharray:7.0,7.0;"/><polygon fill="transparent" points="500.08,724.06,481.24,726.308,486.3568,737.1624,500.08,724.06" style="stroke:#181818;stroke-width:1;"/></g><!--reverse link IExternVluchtAdapter to SkyscannerAdapter--><g id="link_IExternVluchtAdapter_SkyscannerAdapter"><path d="M684.4918,731.7135 C725.0218,750.7535 757.21,765.87 797.75,784.92 " fill="transparent" id="IExternVluchtAdapter-backto-SkyscannerAdapter" style="stroke:#181818;stroke-width:1;stroke-dasharray:7.0,7.0;"/><polygon fill="transparent" points="668.2,724.06,681.9407,737.1441,687.043,726.2829,668.2,724.06" style="stroke:#181818;stroke-width:1;"/></g><!--link VluchtController to VluchtService--><g id="link_VluchtController_VluchtService"><path codeLine="54" d="M801,152.57 C801,185.13 801,220.62 801,255.71 " fill="transparent" id="VluchtController-to-VluchtService" style="stroke:#181818;stroke-width:1;"/><polygon fill="#181818" points="801,261.71,805,252.71,801,256.71,797,252.71,801,261.71" style="stroke:#181818;stroke-width:1;"/><text fill="#000000" font-family="sans-serif" font-size="13" lengthAdjust="spacing" textLength="24.8066" x="802" y="228.0669">1..1</text></g><!--link VluchtService to VluchtRepository--><g id="link_VluchtService_VluchtRepository"><path codeLine="55" d="M801,408.07 C801,434.16 801,456.65 801,478.92 " fill="transparent" id="VluchtService-to-VluchtRepository" style="stroke:#181818;stroke-width:1;"/><polygon fill="#181818" points="801,484.92,805,475.92,801,479.92,797,475.92,801,484.92" style="stroke:#181818;stroke-width:1;"/><text fill="#000000" font-family="sans-serif" font-size="13" lengthAdjust="spacing" textLength="24.8066" x="802" y="451.0669">1..1</text></g><!--link ExternVluchtAdapterFactory to IExternVluchtAdapter--><g id="link_ExternVluchtAdapterFactory_IExternVluchtAdapter"><path codeLine="56" d="M1048.99,566.07 C954.9,589.63 841.7202,617.962 747.6702,641.522 " fill="transparent" id="ExternVluchtAdapterFactory-to-IExternVluchtAdapter" style="stroke:#181818;stroke-width:1;"/><polygon fill="#181818" points="741.85,642.98,751.5522,644.6731,746.7001,641.765,749.6083,636.9129,741.85,642.98" style="stroke:#181818;stroke-width:1;"/><text fill="#000000" font-family="sans-serif" font-size="13" lengthAdjust="spacing" textLength="23.0356" x="915" y="609.0669">1..*</text></g><!--link VluchtService to IExternVluchtAdapter--><g id="link_VluchtService_IExternVluchtAdapter"><path codeLine="57" d="M643.72,408.06 C614.93,428.68 588.73,454.15 572,485 C545.3,534.22 555.7724,595.0752 568.1324,636.9752 " fill="transparent" id="VluchtService-to-IExternVluchtAdapter" style="stroke:#181818;stroke-width:1;"/><polygon fill="#181818" points="569.83,642.73,571.1201,632.966,568.4153,637.9343,563.447,635.2295,569.83,642.73" style="stroke:#181818;stroke-width:1;"/><text fill="#000000" font-family="sans-serif" font-size="13" lengthAdjust="spacing" textLength="23.0356" x="573" y="530.0669">1..*</text></g><!--link VluchtService to ExternVluchtAdapterFactory--><g id="link_VluchtService_ExternVluchtAdapterFactory"><path codeLine="58" d="M956.23,408.07 C1012.42,434.16 1068.3379,460.1235 1116.3079,482.3935 " fill="transparent" id="VluchtService-to-ExternVluchtAdapterFactory" style="stroke:#181818;stroke-width:1;"/><polygon fill="#181818" points="1121.75,484.92,1115.2711,477.5022,1117.2149,482.8146,1111.9025,484.7583,1121.75,484.92" style="stroke:#181818;stroke-width:1;"/><text fill="#000000" font-family="sans-serif" font-size="13" lengthAdjust="spacing" textLength="24.8066" x="1053" y="451.0669">1..1</text></g><!--SRC=[rLLDRnen4BtlhvXRI0f8N4c453MjL9MqKeXw7tQdmU0lsLxKDCf_Zy4sB8kpAb5JgLomFM_UpBoPWPAZjV23r-N2VLJI6SKv6NWgm7y6qJ0ZisObmRfvso8-m9HPTnLW4_YjQ1NE97ipPvXyW3KPPsZLXtYVatKaX3_suGOTGOMk5kSvkWKYJtJVTIAiBHc9WfBBMh4Avhl8lV0LapqldekYR1IPQZciy8wqiimfynZzzWyHjqtiowTVpWSFFjSLQd-R08Q3ZSWCvZEMMsuykBwFWfrox3XGipT9xjLaqfVm4xs6EJcYi7-lhCi_QlFblizVfxSf5oOq9q7IsN-JwuaJELizsXAb9FEV97oqB4zD0iin0FpWvAUklRgdZbvCesF3qbhVehuA37tet5eFZCba1N-WTEmrDwUbo2wiDy8uLXkVWWJVQY78j4m2qTboWLgpPTihz6-gIdICMiPzCri6RTZIZg5IzPpJ8TFDfj_tR5cDOKFADqDmpqH28SgL4jQz2lCL7_rB30QJrg_g64R3uQWuVDp36fCJaHsjtBXbUx9rlSW4EGtT4JecLvozLaXYFUlGf8Lfr9x1P5C_mhq0]--></g></svg>