<svg xmlns="http://www.w3.org/2000/svg" xmlns:xlink="http://www.w3.org/1999/xlink" contentStyleType="text/css" data-diagram-type="CLASS" height="407px" preserveAspectRatio="none" style="width:1454px;height:407px;background:#FFFFFF;" version="1.1" viewBox="0 0 1454 407" width="1454px" zoomAndPan="magnify"><defs/><g><!--class OvernachtingController--><g id="elem_OvernachtingController"><rect codeLine="1" fill="#F1F1F1" height="64.2969" id="OvernachtingController" rx="2.5" ry="2.5" style="stroke:#181818;stroke-width:0.5;" width="889.4746" x="30.5" y="39.5"/><ellipse cx="388.9834" cy="55.5" fill="#ADD1B2" rx="11" ry="11" style="stroke:#181818;stroke-width:1;"/><path d="M391.9521,61.1406 Q391.374,61.4375 390.7334,61.5781 Q390.0928,61.7344 389.3896,61.7344 Q386.8896,61.7344 385.5615,60.0938 Q384.249,58.4375 384.249,55.3125 Q384.249,52.1875 385.5615,50.5313 Q386.8896,48.875 389.3896,48.875 Q390.0928,48.875 390.7334,49.0313 Q391.3896,49.1875 391.9521,49.4844 L391.9521,52.2031 Q391.3271,51.625 390.7334,51.3594 Q390.1396,51.0781 389.5146,51.0781 Q388.1709,51.0781 387.4834,52.1563 Q386.7959,53.2188 386.7959,55.3125 Q386.7959,57.4063 387.4834,58.4844 Q388.1709,59.5469 389.5146,59.5469 Q390.1396,59.5469 390.7334,59.2813 Q391.3271,59 391.9521,58.4219 L391.9521,61.1406 Z " fill="#000000"/><text fill="#000000" font-family="sans-serif" font-size="14" lengthAdjust="spacing" textLength="164.0078" x="409.4834" y="60.3467">OvernachtingController</text><line style="stroke:#181818;stroke-width:0.5;" x1="31.5" x2="918.9746" y1="71.5" y2="71.5"/><line style="stroke:#181818;stroke-width:0.5;" x1="31.5" x2="918.9746" y1="79.5" y2="79.5"/><text fill="#000000" font-family="sans-serif" font-size="14" lengthAdjust="spacing" textLength="877.4746" x="36.5" y="96.4951">OvernachtingService overnachtingService+ List&lt;Overnachting&gt; zoekOvernachtingen(OvernachtingFilter overnachtingFilter)</text></g><!--class OvernachtingService--><g id="elem_OvernachtingService"><rect codeLine="6" fill="#F1F1F1" height="64.2969" id="OvernachtingService" rx="2.5" ry="2.5" style="stroke:#181818;stroke-width:0.5;" width="936.1367" x="7" y="196"/><ellipse cx="397.5303" cy="212" fill="#ADD1B2" rx="11" ry="11" style="stroke:#181818;stroke-width:1;"/><path d="M400.499,217.6406 Q399.9209,217.9375 399.2803,218.0781 Q398.6396,218.2344 397.9365,218.2344 Q395.4365,218.2344 394.1084,216.5938 Q392.7959,214.9375 392.7959,211.8125 Q392.7959,208.6875 394.1084,207.0313 Q395.4365,205.375 397.9365,205.375 Q398.6396,205.375 399.2803,205.5313 Q399.9365,205.6875 400.499,205.9844 L400.499,208.7031 Q399.874,208.125 399.2803,207.8594 Q398.6865,207.5781 398.0615,207.5781 Q396.7178,207.5781 396.0303,208.6563 Q395.3428,209.7188 395.3428,211.8125 Q395.3428,213.9063 396.0303,214.9844 Q396.7178,216.0469 398.0615,216.0469 Q398.6865,216.0469 399.2803,215.7813 Q399.874,215.5 400.499,214.9219 L400.499,217.6406 Z " fill="#000000"/><text fill="#000000" font-family="sans-serif" font-size="14" lengthAdjust="spacing" textLength="146.5762" x="418.0303" y="216.8467">OvernachtingService</text><line style="stroke:#181818;stroke-width:0.5;" x1="8" x2="942.1367" y1="228" y2="228"/><line style="stroke:#181818;stroke-width:0.5;" x1="8" x2="942.1367" y1="236" y2="236"/><text fill="#000000" font-family="sans-serif" font-size="14" lengthAdjust="spacing" textLength="924.1367" x="13" y="252.9951">OvernachtingRepository overnachtingRepository+ List&lt;Overnachting&gt; zoekOvernachtingen(OvernachtingFilter overnachtingFilter)</text></g><!--class OvernachtingAdapter--><g id="elem_OvernachtingAdapter"><rect codeLine="12" fill="#F1F1F1" height="80.5938" id="OvernachtingAdapter" rx="2.5" ry="2.5" style="stroke:#181818;stroke-width:0.5;" width="592.1455" x="179" y="320"/><ellipse cx="395.5112" cy="336" fill="#ADD1B2" rx="11" ry="11" style="stroke:#181818;stroke-width:1;"/><path d="M398.48,341.6406 Q397.9019,341.9375 397.2612,342.0781 Q396.6206,342.2344 395.9175,342.2344 Q393.4175,342.2344 392.0894,340.5938 Q390.7769,338.9375 390.7769,335.8125 Q390.7769,332.6875 392.0894,331.0313 Q393.4175,329.375 395.9175,329.375 Q396.6206,329.375 397.2612,329.5313 Q397.9175,329.6875 398.48,329.9844 L398.48,332.7031 Q397.855,332.125 397.2612,331.8594 Q396.6675,331.5781 396.0425,331.5781 Q394.6987,331.5781 394.0112,332.6563 Q393.3237,333.7188 393.3237,335.8125 Q393.3237,337.9063 394.0112,338.9844 Q394.6987,340.0469 396.0425,340.0469 Q396.6675,340.0469 397.2612,339.7813 Q397.855,339.5 398.48,338.9219 L398.48,341.6406 Z " fill="#000000"/><text fill="#000000" font-family="sans-serif" font-size="14" lengthAdjust="spacing" textLength="150.623" x="416.0112" y="340.8467">OvernachtingAdapter</text><line style="stroke:#181818;stroke-width:0.5;" x1="180" x2="770.1455" y1="352" y2="352"/><line style="stroke:#181818;stroke-width:0.5;" x1="180" x2="770.1455" y1="360" y2="360"/><ellipse cx="190" cy="373.6484" fill="#84BE84" rx="3" ry="3" style="stroke:#038048;stroke-width:1;"/><text fill="#000000" font-family="sans-serif" font-size="14" lengthAdjust="spacing" textLength="566.1455" x="199" y="376.9951">List&lt;Overnachting&gt; zoekOvernachtingen(OvernachtingFilter overnachtingFilter)</text><ellipse cx="190" cy="389.9453" fill="#84BE84" rx="3" ry="3" style="stroke:#038048;stroke-width:1;"/><text fill="#000000" font-family="sans-serif" font-size="14" lengthAdjust="spacing" textLength="396.9424" x="199" y="393.292">List&lt;Overnachting fallbackMethod(throwable exception)</text></g><!--class Overnachting--><g id="elem_Overnachting"><rect codeLine="17" fill="#F1F1F1" height="129.4844" id="Overnachting" rx="2.5" ry="2.5" style="stroke:#181818;stroke-width:0.5;" width="208.957" x="954.5" y="7"/><ellipse cx="1007.311" cy="23" fill="#ADD1B2" rx="11" ry="11" style="stroke:#181818;stroke-width:1;"/><path d="M1010.2798,28.6406 Q1009.7017,28.9375 1009.061,29.0781 Q1008.4204,29.2344 1007.7173,29.2344 Q1005.2173,29.2344 1003.8892,27.5938 Q1002.5767,25.9375 1002.5767,22.8125 Q1002.5767,19.6875 1003.8892,18.0313 Q1005.2173,16.375 1007.7173,16.375 Q1008.4204,16.375 1009.061,16.5313 Q1009.7173,16.6875 1010.2798,16.9844 L1010.2798,19.7031 Q1009.6548,19.125 1009.061,18.8594 Q1008.4673,18.5781 1007.8423,18.5781 Q1006.4985,18.5781 1005.811,19.6563 Q1005.1235,20.7188 1005.1235,22.8125 Q1005.1235,24.9063 1005.811,25.9844 Q1006.4985,27.0469 1007.8423,27.0469 Q1008.4673,27.0469 1009.061,26.7813 Q1009.6548,26.5 1010.2798,25.9219 L1010.2798,28.6406 Z " fill="#000000"/><text fill="#000000" font-family="sans-serif" font-size="14" lengthAdjust="spacing" textLength="94.835" x="1027.811" y="27.8467">Overnachting</text><line style="stroke:#181818;stroke-width:0.5;" x1="955.5" x2="1162.457" y1="39" y2="39"/><text fill="#000000" font-family="sans-serif" font-size="14" lengthAdjust="spacing" textLength="181.6309" x="960.5" y="55.9951">private String hotelName;</text><text fill="#000000" font-family="sans-serif" font-size="14" lengthAdjust="spacing" textLength="196.957" x="960.5" y="72.292">private double reviewScore;</text><text fill="#000000" font-family="sans-serif" font-size="14" lengthAdjust="spacing" textLength="164.541" x="960.5" y="88.5889">private double latitude;</text><text fill="#000000" font-family="sans-serif" font-size="14" lengthAdjust="spacing" textLength="176.7979" x="960.5" y="104.8857">private double longitude;</text><text fill="#000000" font-family="sans-serif" font-size="14" lengthAdjust="spacing" textLength="171.5615" x="960.5" y="121.1826">private String cityName;</text><line style="stroke:#181818;stroke-width:0.5;" x1="955.5" x2="1162.457" y1="128.4844" y2="128.4844"/></g><!--class OvernachtingFilter--><g id="elem_OvernachtingFilter"><rect codeLine="25" fill="#F1F1F1" height="129.4844" id="OvernachtingFilter" rx="2.5" ry="2.5" style="stroke:#181818;stroke-width:0.5;" width="248.0244" x="1199" y="7"/><ellipse cx="1253.4995" cy="23" fill="#ADD1B2" rx="11" ry="11" style="stroke:#181818;stroke-width:1;"/><path d="M1256.4683,28.6406 Q1255.8901,28.9375 1255.2495,29.0781 Q1254.6089,29.2344 1253.9058,29.2344 Q1251.4058,29.2344 1250.0776,27.5938 Q1248.7651,25.9375 1248.7651,22.8125 Q1248.7651,19.6875 1250.0776,18.0313 Q1251.4058,16.375 1253.9058,16.375 Q1254.6089,16.375 1255.2495,16.5313 Q1255.9058,16.6875 1256.4683,16.9844 L1256.4683,19.7031 Q1255.8433,19.125 1255.2495,18.8594 Q1254.6558,18.5781 1254.0308,18.5781 Q1252.687,18.5781 1251.9995,19.6563 Q1251.312,20.7188 1251.312,22.8125 Q1251.312,24.9063 1251.9995,25.9844 Q1252.687,27.0469 1254.0308,27.0469 Q1254.6558,27.0469 1255.2495,26.7813 Q1255.8433,26.5 1256.4683,25.9219 L1256.4683,28.6406 Z " fill="#000000"/><text fill="#000000" font-family="sans-serif" font-size="14" lengthAdjust="spacing" textLength="130.5254" x="1273.9995" y="27.8467">OvernachtingFilter</text><line style="stroke:#181818;stroke-width:0.5;" x1="1200" x2="1446.0244" y1="39" y2="39"/><text fill="#000000" font-family="sans-serif" font-size="14" lengthAdjust="spacing" textLength="211.3057" x="1205" y="55.9951">private LocalDate arrivalDate;</text><text fill="#000000" font-family="sans-serif" font-size="14" lengthAdjust="spacing" textLength="236.0244" x="1205" y="72.292">private LocalDate departureDate;</text><text fill="#000000" font-family="sans-serif" font-size="14" lengthAdjust="spacing" textLength="142.6865" x="1205" y="88.5889">private int roomQty;</text><text fill="#000000" font-family="sans-serif" font-size="14" lengthAdjust="spacing" textLength="145.3184" x="1205" y="104.8857">private int guestQty;</text><text fill="#000000" font-family="sans-serif" font-size="14" lengthAdjust="spacing" textLength="139.5215" x="1205" y="121.1826">private String bbox;</text><line style="stroke:#181818;stroke-width:0.5;" x1="1200" x2="1446.0244" y1="128.4844" y2="128.4844"/></g><!--link OvernachtingController to OvernachtingService--><g id="link_OvernachtingController_OvernachtingService"><path codeLine="33" d="M475,103.77 C475,130.57 475,162.99 475,189.78 " fill="transparent" id="OvernachtingController-to-OvernachtingService" style="stroke:#181818;stroke-width:1;"/><polygon fill="#181818" points="475,195.78,479,186.78,475,190.78,471,186.78,475,195.78" style="stroke:#181818;stroke-width:1;"/></g><!--link OvernachtingService to OvernachtingAdapter--><g id="link_OvernachtingService_OvernachtingAdapter"><path codeLine="34" d="M475,260.26 C475,278.05 475,294.53 475,313.59 " fill="transparent" id="OvernachtingService-to-OvernachtingAdapter" style="stroke:#181818;stroke-width:1;"/><polygon fill="#181818" points="475,319.59,479,310.59,475,314.59,471,310.59,475,319.59" style="stroke:#181818;stroke-width:1;"/></g><!--SRC=[hPF1JiCm38RlVOeSDw4zmT0a1E8qGAnFuAQcjPR5bUjsAuXtPnq5MfBUbbFo_vR_JvPZ7TIrUMbHFDXIoHVtx5NOEHJpaPZpISPkYjAIHSEXTcEsLEljk7fZtXdtOmNzOlny9AVd80waPVAP93Q0-ucFaEsmufgKfPkq-vElp1S7lCkXqj_HNJbofgLv0-SoiFidr9BpXPR2HyWS6ZnPh9JOpunpmAo4Mb0qgKelbgpedk60wucRSzFt56m9ZwbbYViEbBJ9PqpsHSGTWYrfzvqRfHqcCsNUiWNtqDz0UkboNy-Kv5Y1Q2CO5f5N8yo7L-r2esYmri0PgBECJnVYcL-qMcrYEnpzLlzhXtNw0W00]--></g></svg>