<svg xmlns="http://www.w3.org/2000/svg" xmlns:xlink="http://www.w3.org/1999/xlink" contentStyleType="text/css" data-diagram-type="CLASS" height="714px" preserveAspectRatio="none" style="width:1363px;height:714px;background:#FFFFFF;" version="1.1" viewBox="0 0 1363 714" width="1363px" zoomAndPan="magnify"><defs/><g><!--class BouwsteenFabriek--><g class="entity" data-entity="BouwsteenFabriek" data-source-line="1" data-uid="ent0002" id="entity_BouwsteenFabriek"><rect fill="#F1F1F1" height="96.8906" rx="2.5" ry="2.5" style="stroke:#181818;stroke-width:0.5;" width="510.1006" x="292.53" y="23.3"/><ellipse cx="478.6999" cy="39.3" fill="#ADD1B2" rx="11" ry="11" style="stroke:#181818;stroke-width:1;"/><path d="M481.6687,44.9406 Q481.0905,45.2375 480.4499,45.3781 Q479.8093,45.5344 479.1062,45.5344 Q476.6062,45.5344 475.278,43.8937 Q473.9655,42.2375 473.9655,39.1125 Q473.9655,35.9875 475.278,34.3312 Q476.6062,32.675 479.1062,32.675 Q479.8093,32.675 480.4499,32.8312 Q481.1062,32.9875 481.6687,33.2844 L481.6687,36.0031 Q481.0437,35.425 480.4499,35.1594 Q479.8562,34.8781 479.2312,34.8781 Q477.8874,34.8781 477.1999,35.9562 Q476.5124,37.0187 476.5124,39.1125 Q476.5124,41.2062 477.1999,42.2844 Q477.8874,43.3469 479.2312,43.3469 Q479.8562,43.3469 480.4499,43.0812 Q481.0437,42.8 481.6687,42.2219 L481.6687,44.9406 Z " fill="#000000"/><text fill="#000000" font-family="sans-serif" font-size="14" lengthAdjust="spacing" textLength="129.2607" x="499.1999" y="44.1467">BouwsteenFabriek</text><line style="stroke:#181818;stroke-width:0.5;" x1="293.53" x2="801.6306" y1="55.3" y2="55.3"/><rect fill="none" height="6" style="stroke:#C82930;stroke-width:1;" width="6" x="300.53" y="65.9484"/><text fill="#000000" font-family="sans-serif" font-size="14" lengthAdjust="spacing" textLength="304.9648" x="312.53" y="72.2951">creators : Map&lt;String, BouwsteenCreator&gt;</text><line style="stroke:#181818;stroke-width:0.5;" x1="293.53" x2="801.6306" y1="79.5969" y2="79.5969"/><ellipse cx="303.53" cy="93.2453" fill="#84BE84" rx="3" ry="3" style="stroke:#038048;stroke-width:1;"/><text fill="#000000" font-family="sans-serif" font-size="14" lengthAdjust="spacing" textLength="406.5742" x="312.53" y="96.592">BouwsteenFabriek(creatorList : List&lt;BouwsteenCreator&gt;)</text><ellipse cx="303.53" cy="109.5422" fill="#84BE84" rx="3" ry="3" style="stroke:#038048;stroke-width:1;"/><text fill="#000000" font-family="sans-serif" font-size="14" lengthAdjust="spacing" textLength="484.1006" x="312.53" y="112.8889">createBouwsteen(type : String, id : Long, naam : String) : Bouwsteen</text></g><!--class BouwsteenCreator--><g class="entity" data-entity="BouwsteenCreator" data-source-line="7" data-uid="ent0003" id="entity_BouwsteenCreator"><rect fill="#F1F1F1" height="80.5938" rx="2.5" ry="2.5" style="stroke:#181818;stroke-width:0.5;" width="337.1514" x="379" y="197.48"/><ellipse cx="478.3706" cy="213.48" fill="#B4A7E5" rx="11" ry="11" style="stroke:#181818;stroke-width:1;"/><path d="M474.2925,209.2456 L474.2925,207.0894 L481.6831,207.0894 L481.6831,209.2456 L479.2144,209.2456 L479.2144,217.3237 L481.6831,217.3237 L481.6831,219.48 L474.2925,219.48 L474.2925,217.3237 L476.7612,217.3237 L476.7612,209.2456 L474.2925,209.2456 Z " fill="#000000"/><text fill="#000000" font-family="sans-serif" font-size="14" font-style="italic" lengthAdjust="spacing" textLength="129.9102" x="498.8706" y="218.3267">BouwsteenCreator</text><line style="stroke:#181818;stroke-width:0.5;" x1="380" x2="715.1514" y1="229.48" y2="229.48"/><line style="stroke:#181818;stroke-width:0.5;" x1="380" x2="715.1514" y1="237.48" y2="237.48"/><ellipse cx="390" cy="251.1284" fill="#84BE84" rx="3" ry="3" style="stroke:#038048;stroke-width:1;"/><text fill="#000000" font-family="sans-serif" font-size="14" lengthAdjust="spacing" textLength="123.6484" x="399" y="254.4751">getType() : String</text><ellipse cx="390" cy="267.4253" fill="#84BE84" rx="3" ry="3" style="stroke:#038048;stroke-width:1;"/><text fill="#000000" font-family="sans-serif" font-size="14" lengthAdjust="spacing" textLength="311.1514" x="399" y="270.772">create(id : Long, naam : String) : Bouwsteen</text></g><!--class ActiviteitCreator--><g class="entity" data-entity="ActiviteitCreator" data-source-line="12" data-uid="ent0004" id="entity_ActiviteitCreator"><rect fill="#F1F1F1" height="80.5938" rx="2.5" ry="2.5" style="stroke:#181818;stroke-width:0.5;" width="337.1514" x="7" y="371.37"/><ellipse cx="113.9038" cy="387.37" fill="#ADD1B2" rx="11" ry="11" style="stroke:#181818;stroke-width:1;"/><path d="M116.8726,393.0106 Q116.2944,393.3075 115.6538,393.4481 Q115.0132,393.6044 114.3101,393.6044 Q111.8101,393.6044 110.4819,391.9638 Q109.1694,390.3075 109.1694,387.1825 Q109.1694,384.0575 110.4819,382.4013 Q111.8101,380.745 114.3101,380.745 Q115.0132,380.745 115.6538,380.9013 Q116.3101,381.0575 116.8726,381.3544 L116.8726,384.0731 Q116.2476,383.495 115.6538,383.2294 Q115.0601,382.9481 114.4351,382.9481 Q113.0913,382.9481 112.4038,384.0263 Q111.7163,385.0888 111.7163,387.1825 Q111.7163,389.2763 112.4038,390.3544 Q113.0913,391.4169 114.4351,391.4169 Q115.0601,391.4169 115.6538,391.1513 Q116.2476,390.87 116.8726,390.2919 L116.8726,393.0106 Z " fill="#000000"/><text fill="#000000" font-family="sans-serif" font-size="14" lengthAdjust="spacing" textLength="114.8438" x="134.4038" y="392.2167">ActiviteitCreator</text><line style="stroke:#181818;stroke-width:0.5;" x1="8" x2="343.1514" y1="403.37" y2="403.37"/><line style="stroke:#181818;stroke-width:0.5;" x1="8" x2="343.1514" y1="411.37" y2="411.37"/><ellipse cx="18" cy="425.0184" fill="#84BE84" rx="3" ry="3" style="stroke:#038048;stroke-width:1;"/><text fill="#000000" font-family="sans-serif" font-size="14" lengthAdjust="spacing" textLength="123.6484" x="27" y="428.3651">getType() : String</text><ellipse cx="18" cy="441.3153" fill="#84BE84" rx="3" ry="3" style="stroke:#038048;stroke-width:1;"/><text fill="#000000" font-family="sans-serif" font-size="14" lengthAdjust="spacing" textLength="311.1514" x="27" y="444.662">create(id : Long, naam : String) : Bouwsteen</text></g><!--class AccommodatieCreator--><g class="entity" data-entity="AccommodatieCreator" data-source-line="16" data-uid="ent0005" id="entity_AccommodatieCreator"><rect fill="#F1F1F1" height="80.5938" rx="2.5" ry="2.5" style="stroke:#181818;stroke-width:0.5;" width="337.1514" x="379" y="371.37"/><ellipse cx="464.6406" cy="387.37" fill="#ADD1B2" rx="11" ry="11" style="stroke:#181818;stroke-width:1;"/><path d="M467.6094,393.0106 Q467.0313,393.3075 466.3906,393.4481 Q465.75,393.6044 465.0469,393.6044 Q462.5469,393.6044 461.2188,391.9638 Q459.9063,390.3075 459.9063,387.1825 Q459.9063,384.0575 461.2188,382.4013 Q462.5469,380.745 465.0469,380.745 Q465.75,380.745 466.3906,380.9013 Q467.0469,381.0575 467.6094,381.3544 L467.6094,384.0731 Q466.9844,383.495 466.3906,383.2294 Q465.7969,382.9481 465.1719,382.9481 Q463.8281,382.9481 463.1406,384.0263 Q462.4531,385.0888 462.4531,387.1825 Q462.4531,389.2763 463.1406,390.3544 Q463.8281,391.4169 465.1719,391.4169 Q465.7969,391.4169 466.3906,391.1513 Q466.9844,390.87 467.6094,390.2919 L467.6094,393.0106 Z " fill="#000000"/><text fill="#000000" font-family="sans-serif" font-size="14" lengthAdjust="spacing" textLength="157.3701" x="485.1406" y="392.2167">AccommodatieCreator</text><line style="stroke:#181818;stroke-width:0.5;" x1="380" x2="715.1514" y1="403.37" y2="403.37"/><line style="stroke:#181818;stroke-width:0.5;" x1="380" x2="715.1514" y1="411.37" y2="411.37"/><ellipse cx="390" cy="425.0184" fill="#84BE84" rx="3" ry="3" style="stroke:#038048;stroke-width:1;"/><text fill="#000000" font-family="sans-serif" font-size="14" lengthAdjust="spacing" textLength="123.6484" x="399" y="428.3651">getType() : String</text><ellipse cx="390" cy="441.3153" fill="#84BE84" rx="3" ry="3" style="stroke:#038048;stroke-width:1;"/><text fill="#000000" font-family="sans-serif" font-size="14" lengthAdjust="spacing" textLength="311.1514" x="399" y="444.662">create(id : Long, naam : String) : Bouwsteen</text></g><!--class Bouwsteen--><g class="entity" data-entity="Bouwsteen" data-source-line="24" data-uid="ent0008" id="entity_Bouwsteen"><rect fill="#F1F1F1" height="113.1875" rx="2.5" ry="2.5" style="stroke:#181818;stroke-width:0.5;" width="285.916" x="751.62" y="355.08"/><ellipse cx="851.64" cy="371.08" fill="#B4A7E5" rx="11" ry="11" style="stroke:#181818;stroke-width:1;"/><path d="M847.5619,366.8456 L847.5619,364.6894 L854.9525,364.6894 L854.9525,366.8456 L852.4838,366.8456 L852.4838,374.9238 L854.9525,374.9238 L854.9525,377.08 L847.5619,377.08 L847.5619,374.9238 L850.0306,374.9238 L850.0306,366.8456 L847.5619,366.8456 Z " fill="#000000"/><text fill="#000000" font-family="sans-serif" font-size="14" font-style="italic" lengthAdjust="spacing" textLength="77.376" x="872.14" y="375.9267">Bouwsteen</text><line style="stroke:#181818;stroke-width:0.5;" x1="752.62" x2="1036.536" y1="387.08" y2="387.08"/><line style="stroke:#181818;stroke-width:0.5;" x1="752.62" x2="1036.536" y1="395.08" y2="395.08"/><ellipse cx="762.62" cy="408.7284" fill="#84BE84" rx="3" ry="3" style="stroke:#038048;stroke-width:1;"/><text fill="#000000" font-family="sans-serif" font-size="14" lengthAdjust="spacing" textLength="94.6709" x="771.62" y="412.0751">getId() : Long</text><ellipse cx="762.62" cy="425.0253" fill="#84BE84" rx="3" ry="3" style="stroke:#038048;stroke-width:1;"/><text fill="#000000" font-family="sans-serif" font-size="14" lengthAdjust="spacing" textLength="130.5801" x="771.62" y="428.372">getNaam() : String</text><ellipse cx="762.62" cy="441.3222" fill="#84BE84" rx="3" ry="3" style="stroke:#038048;stroke-width:1;"/><text fill="#000000" font-family="sans-serif" font-size="14" lengthAdjust="spacing" textLength="175.2461" x="771.62" y="444.6689">getStatus() : BouwStatus</text><ellipse cx="762.62" cy="457.6191" fill="#84BE84" rx="3" ry="3" style="stroke:#038048;stroke-width:1;"/><text fill="#000000" font-family="sans-serif" font-size="14" lengthAdjust="spacing" textLength="259.916" x="771.62" y="460.9657">setStatus(status : BouwStatus) : void</text></g><!--class Activiteit--><g class="entity" data-entity="Activiteit" data-source-line="31" data-uid="ent0009" id="entity_Activiteit"><rect fill="#F1F1F1" height="178.375" rx="2.5" ry="2.5" style="stroke:#181818;stroke-width:0.5;" width="412.3604" x="453.4" y="529.26"/><ellipse cx="624.1754" cy="545.26" fill="#ADD1B2" rx="11" ry="11" style="stroke:#181818;stroke-width:1;"/><path d="M627.1441,550.9006 Q626.566,551.1975 625.9254,551.3381 Q625.2848,551.4944 624.5816,551.4944 Q622.0816,551.4944 620.7535,549.8538 Q619.441,548.1975 619.441,545.0725 Q619.441,541.9475 620.7535,540.2913 Q622.0816,538.635 624.5816,538.635 Q625.2848,538.635 625.9254,538.7913 Q626.5816,538.9475 627.1441,539.2444 L627.1441,541.9631 Q626.5191,541.385 625.9254,541.1194 Q625.3316,540.8381 624.7066,540.8381 Q623.3629,540.8381 622.6754,541.9163 Q621.9879,542.9788 621.9879,545.0725 Q621.9879,547.1663 622.6754,548.2444 Q623.3629,549.3069 624.7066,549.3069 Q625.3316,549.3069 625.9254,549.0413 Q626.5191,548.76 627.1441,548.1819 L627.1441,550.9006 Z " fill="#000000"/><text fill="#000000" font-family="sans-serif" font-size="14" lengthAdjust="spacing" textLength="62.3096" x="644.6754" y="550.1067">Activiteit</text><line style="stroke:#181818;stroke-width:0.5;" x1="454.4" x2="864.7604" y1="561.26" y2="561.26"/><rect fill="none" height="6" style="stroke:#C82930;stroke-width:1;" width="6" x="461.4" y="571.9084"/><text fill="#000000" font-family="sans-serif" font-size="14" lengthAdjust="spacing" textLength="60.5186" x="473.4" y="578.2551">id : Long</text><rect fill="none" height="6" style="stroke:#C82930;stroke-width:1;" width="6" x="461.4" y="588.2053"/><text fill="#000000" font-family="sans-serif" font-size="14" lengthAdjust="spacing" textLength="95.0674" x="473.4" y="594.552">naam : String</text><rect fill="none" height="6" style="stroke:#C82930;stroke-width:1;" width="6" x="461.4" y="604.5022"/><text fill="#000000" font-family="sans-serif" font-size="14" lengthAdjust="spacing" textLength="139.7402" x="473.4" y="610.8489">status : BouwStatus</text><line style="stroke:#181818;stroke-width:0.5;" x1="454.4" x2="864.7604" y1="618.1506" y2="618.1506"/><ellipse cx="464.4" cy="631.7991" fill="#84BE84" rx="3" ry="3" style="stroke:#038048;stroke-width:1;"/><text fill="#000000" font-family="sans-serif" font-size="14" lengthAdjust="spacing" textLength="386.3604" x="473.4" y="635.1457">Activiteit(id : Long, naam : String, status : BouwStatus)</text><ellipse cx="464.4" cy="648.0959" fill="#84BE84" rx="3" ry="3" style="stroke:#038048;stroke-width:1;"/><text fill="#000000" font-family="sans-serif" font-size="14" lengthAdjust="spacing" textLength="94.6709" x="473.4" y="651.4426">getId() : Long</text><ellipse cx="464.4" cy="664.3928" fill="#84BE84" rx="3" ry="3" style="stroke:#038048;stroke-width:1;"/><text fill="#000000" font-family="sans-serif" font-size="14" lengthAdjust="spacing" textLength="130.5801" x="473.4" y="667.7395">getNaam() : String</text><ellipse cx="464.4" cy="680.6897" fill="#84BE84" rx="3" ry="3" style="stroke:#038048;stroke-width:1;"/><text fill="#000000" font-family="sans-serif" font-size="14" lengthAdjust="spacing" textLength="175.2461" x="473.4" y="684.0364">getStatus() : BouwStatus</text><ellipse cx="464.4" cy="696.9866" fill="#84BE84" rx="3" ry="3" style="stroke:#038048;stroke-width:1;"/><text fill="#000000" font-family="sans-serif" font-size="14" lengthAdjust="spacing" textLength="259.916" x="473.4" y="700.3332">setStatus(status : BouwStatus) : void</text></g><!--class Accommodatie--><g class="entity" data-entity="Accommodatie" data-source-line="42" data-uid="ent0010" id="entity_Accommodatie"><rect fill="#F1F1F1" height="178.375" rx="2.5" ry="2.5" style="stroke:#181818;stroke-width:0.5;" width="454.8867" x="901.13" y="529.26"/><ellipse cx="1071.9054" cy="545.26" fill="#ADD1B2" rx="11" ry="11" style="stroke:#181818;stroke-width:1;"/><path d="M1074.8741,550.9006 Q1074.296,551.1975 1073.6554,551.3381 Q1073.0148,551.4944 1072.3116,551.4944 Q1069.8116,551.4944 1068.4835,549.8538 Q1067.171,548.1975 1067.171,545.0725 Q1067.171,541.9475 1068.4835,540.2913 Q1069.8116,538.635 1072.3116,538.635 Q1073.0148,538.635 1073.6554,538.7913 Q1074.3116,538.9475 1074.8741,539.2444 L1074.8741,541.9631 Q1074.2491,541.385 1073.6554,541.1194 Q1073.0616,540.8381 1072.4366,540.8381 Q1071.0929,540.8381 1070.4054,541.9163 Q1069.7179,542.9788 1069.7179,545.0725 Q1069.7179,547.1663 1070.4054,548.2444 Q1071.0929,549.3069 1072.4366,549.3069 Q1073.0616,549.3069 1073.6554,549.0413 Q1074.2491,548.76 1074.8741,548.1819 L1074.8741,550.9006 Z " fill="#000000"/><text fill="#000000" font-family="sans-serif" font-size="14" lengthAdjust="spacing" textLength="104.8359" x="1092.4054" y="550.1067">Accommodatie</text><line style="stroke:#181818;stroke-width:0.5;" x1="902.13" x2="1355.0167" y1="561.26" y2="561.26"/><rect fill="none" height="6" style="stroke:#C82930;stroke-width:1;" width="6" x="909.13" y="571.9084"/><text fill="#000000" font-family="sans-serif" font-size="14" lengthAdjust="spacing" textLength="60.5186" x="921.13" y="578.2551">id : Long</text><rect fill="none" height="6" style="stroke:#C82930;stroke-width:1;" width="6" x="909.13" y="588.2053"/><text fill="#000000" font-family="sans-serif" font-size="14" lengthAdjust="spacing" textLength="95.0674" x="921.13" y="594.552">naam : String</text><rect fill="none" height="6" style="stroke:#C82930;stroke-width:1;" width="6" x="909.13" y="604.5022"/><text fill="#000000" font-family="sans-serif" font-size="14" lengthAdjust="spacing" textLength="139.7402" x="921.13" y="610.8489">status : BouwStatus</text><line style="stroke:#181818;stroke-width:0.5;" x1="902.13" x2="1355.0167" y1="618.1506" y2="618.1506"/><ellipse cx="912.13" cy="631.7991" fill="#84BE84" rx="3" ry="3" style="stroke:#038048;stroke-width:1;"/><text fill="#000000" font-family="sans-serif" font-size="14" lengthAdjust="spacing" textLength="428.8867" x="921.13" y="635.1457">Accommodatie(id : Long, naam : String, status : BouwStatus)</text><ellipse cx="912.13" cy="648.0959" fill="#84BE84" rx="3" ry="3" style="stroke:#038048;stroke-width:1;"/><text fill="#000000" font-family="sans-serif" font-size="14" lengthAdjust="spacing" textLength="94.6709" x="921.13" y="651.4426">getId() : Long</text><ellipse cx="912.13" cy="664.3928" fill="#84BE84" rx="3" ry="3" style="stroke:#038048;stroke-width:1;"/><text fill="#000000" font-family="sans-serif" font-size="14" lengthAdjust="spacing" textLength="130.5801" x="921.13" y="667.7395">getNaam() : String</text><ellipse cx="912.13" cy="680.6897" fill="#84BE84" rx="3" ry="3" style="stroke:#038048;stroke-width:1;"/><text fill="#000000" font-family="sans-serif" font-size="14" lengthAdjust="spacing" textLength="175.2461" x="921.13" y="684.0364">getStatus() : BouwStatus</text><ellipse cx="912.13" cy="696.9866" fill="#84BE84" rx="3" ry="3" style="stroke:#038048;stroke-width:1;"/><text fill="#000000" font-family="sans-serif" font-size="14" lengthAdjust="spacing" textLength="259.916" x="921.13" y="700.3332">setStatus(status : BouwStatus) : void</text></g><!--class BouwStatus--><g class="entity" data-entity="BouwStatus" data-source-line="56" data-uid="ent0013" id="entity_BouwStatus"><rect fill="#F1F1F1" height="129.4844" rx="2.5" ry="2.5" style="stroke:#181818;stroke-width:0.5;" width="151.583" x="837.78" y="7"/><ellipse cx="869.1953" cy="23" fill="#EB937F" rx="11" ry="11" style="stroke:#181818;stroke-width:1;"/><path d="M873.3047,29 L865.586,29 L865.586,16.6094 L873.3047,16.6094 L873.3047,18.7656 L868.0391,18.7656 L868.0391,21.4375 L872.8047,21.4375 L872.8047,23.5938 L868.0391,23.5938 L868.0391,26.8438 L873.3047,26.8438 L873.3047,29 Z " fill="#000000"/><text fill="#000000" font-family="sans-serif" font-size="14" lengthAdjust="spacing" textLength="83.1045" x="886.8432" y="27.8467">BouwStatus</text><line style="stroke:#181818;stroke-width:0.5;" x1="838.78" x2="988.363" y1="39" y2="39"/><text fill="#000000" font-family="sans-serif" font-size="14" lengthAdjust="spacing" textLength="66.7666" x="843.78" y="55.9951">GEPLAND</text><text fill="#000000" font-family="sans-serif" font-size="14" lengthAdjust="spacing" textLength="76.542" x="843.78" y="72.292">GEREGELD</text><text fill="#000000" font-family="sans-serif" font-size="14" lengthAdjust="spacing" textLength="64.7363" x="843.78" y="88.5889">BETAALD</text><text fill="#000000" font-family="sans-serif" font-size="14" lengthAdjust="spacing" textLength="139.583" x="843.78" y="104.8857">NIET_UITVOERBAAR</text><text fill="#000000" font-family="sans-serif" font-size="14" lengthAdjust="spacing" textLength="92.5723" x="843.78" y="121.1826">UITGEVOERD</text><line style="stroke:#181818;stroke-width:0.5;" x1="838.78" x2="988.363" y1="128.4844" y2="128.4844"/></g><!--reverse link BouwsteenCreator to ActiviteitCreator--><g class="link" data-entity-1="BouwsteenCreator" data-entity-2="ActiviteitCreator" data-source-line="20" data-uid="lnk6" id="link_BouwsteenCreator_ActiviteitCreator"><path codeLine="20" d="M445.4199,285.9799 C385.3399,313.7399 321.73,343.14 261.6,370.92" fill="none" id="BouwsteenCreator-backto-ActiviteitCreator" style="stroke:#181818;stroke-width:1;stroke-dasharray:7.0,7.0;"/><polygon fill="none" points="461.76,278.43,442.9033,280.5333,447.9366,291.4266,461.76,278.43" style="stroke:#181818;stroke-width:1;"/><text fill="#000000" font-family="sans-serif" font-size="13" lengthAdjust="spacing" textLength="76.9082" x="193.3262" y="360.3081">implements</text></g><!--reverse link BouwsteenCreator to AccommodatieCreator--><g class="link" data-entity-1="BouwsteenCreator" data-entity-2="AccommodatieCreator" data-source-line="21" data-uid="lnk7" id="link_BouwsteenCreator_AccommodatieCreator"><path codeLine="21" d="M547.58,296.22 C547.58,324.07 547.58,343.24 547.58,371.12" fill="none" id="BouwsteenCreator-backto-AccommodatieCreator" style="stroke:#181818;stroke-width:1;stroke-dasharray:7.0,7.0;"/><polygon fill="none" points="547.58,278.22,541.58,296.22,553.58,296.22,547.58,278.22" style="stroke:#181818;stroke-width:1;"/><text fill="#000000" font-family="sans-serif" font-size="13" lengthAdjust="spacing" textLength="76.9082" x="465.3622" y="360.2401">implements</text></g><!--reverse link Bouwsteen to Activiteit--><g class="link" data-entity-1="Bouwsteen" data-entity-2="Activiteit" data-source-line="52" data-uid="lnk11" id="link_Bouwsteen_Activiteit"><path codeLine="52" d="M816.7904,480.4565 C795.4604,499.0465 784.72,508.4 761.26,528.84" fill="none" id="Bouwsteen-backto-Activiteit" style="stroke:#181818;stroke-width:1;stroke-dasharray:7.0,7.0;"/><polygon fill="none" points="830.36,468.63,812.8482,475.9333,820.7326,484.9797,830.36,468.63" style="stroke:#181818;stroke-width:1;"/><text fill="#000000" font-family="sans-serif" font-size="13" lengthAdjust="spacing" textLength="76.9082" x="690.3707" y="518.1739">implements</text></g><!--reverse link Bouwsteen to Accommodatie--><g class="link" data-entity-1="Bouwsteen" data-entity-2="Accommodatie" data-source-line="53" data-uid="lnk12" id="link_Bouwsteen_Accommodatie"><path codeLine="53" d="M972.0648,480.4849 C993.3048,499.0749 1003.97,508.4 1027.32,528.84" fill="none" id="Bouwsteen-backto-Accommodatie" style="stroke:#181818;stroke-width:1;stroke-dasharray:7.0,7.0;"/><polygon fill="none" points="958.52,468.63,968.1132,484.9998,976.0164,475.97,958.52,468.63" style="stroke:#181818;stroke-width:1;"/><text fill="#000000" font-family="sans-serif" font-size="13" lengthAdjust="spacing" textLength="76.9082" x="940.2594" y="518.1739">implements</text></g><!--link BouwsteenFabriek to BouwsteenCreator--><g class="link" data-entity-1="BouwsteenFabriek" data-entity-2="BouwsteenCreator" data-source-line="65" data-uid="lnk14" id="link_BouwsteenFabriek_BouwsteenCreator"><path codeLine="65" d="M547.58,120.63 C547.58,144.93 547.58,168.1 547.58,191.13" fill="none" id="BouwsteenFabriek-to-BouwsteenCreator" style="stroke:#181818;stroke-width:1;"/><polygon fill="#181818" points="547.58,197.13,551.58,188.13,547.58,192.13,543.58,188.13,547.58,197.13" style="stroke:#181818;stroke-width:1;"/><text fill="#000000" font-family="sans-serif" font-size="13" lengthAdjust="spacing" textLength="29.7832" x="516.3322" y="186.5341">uses</text></g><!--link BouwsteenCreator to Bouwsteen--><g class="link" data-entity-1="BouwsteenCreator" data-entity-2="Bouwsteen" data-source-line="68" data-uid="lnk15" id="link_BouwsteenCreator_Bouwsteen"><path codeLine="68" d="M627.62,278.43 C673.25,301.04 725.8034,327.0669 776.0334,351.9469" fill="none" id="BouwsteenCreator-to-Bouwsteen" style="stroke:#181818;stroke-width:1;stroke-dasharray:7.0,7.0;"/><polygon fill="#181818" points="781.41,354.61,775.1205,347.0309,776.9295,352.3907,771.5697,354.1997,781.41,354.61" style="stroke:#181818;stroke-width:1;"/><text fill="#000000" font-family="sans-serif" font-size="13" lengthAdjust="spacing" textLength="48.3247" x="722.58" y="321.1469">creates</text></g><!--SRC=[rLLHRu8m47xtLpG-GLH-W34cE3jZujoYRAzB1pVJJC3GmsNPzjzNAXmWQBPaMpPUIg_tVNVV7LVyhL2AJUBqMI50T2aU4WbFxBN3p3DWVW82uqIn8RiIkz4Q4nbj-YNYud0-pW6z1fULCooaGasIBQC6sYQuyGPoiF1b1nfMn9L1nX5dhv4G8PtO-er0XkozOnOP8IIFmeT6oYIonpQ0devZsSHtb8_rvRY-AQpheznB18a_7RGQqu_3C0u4IlYDg8swZjuSXtLbkDj2216gRhCCdmSsj7HEzhMkSXuOZPcGgdcf9RM9rqTh59Wggz1vs9A38WTbbffNXjd7CZZt1LI6YafCbbgboTeIYV8fYKzshDz6OF_98fLj_lOobTJ_j52rMJaxNQpDz_H4vQC4KHfMebC3PlncuIwdj5ln6LyKsmdtN9Tsopdtxc_dtjqrNqrSTvMRjMN6Czkqw7azmU9tCnYCMJTLeFCxlXIE8SLTuJZZYj1XVdcf3m00]--></g></svg>