<svg xmlns="http://www.w3.org/2000/svg" xmlns:xlink="http://www.w3.org/1999/xlink" contentStyleType="text/css" data-diagram-type="CLASS" height="920px" preserveAspectRatio="none" style="width:1315px;height:920px;background:#FFFFFF;" version="1.1" viewBox="0 0 1315 920" width="1315px" zoomAndPan="magnify"><defs/><g><!--class VluchtController--><g id="elem_VluchtController"><rect codeLine="1" fill="#F1F1F1" height="96.8906" id="VluchtController" rx="2.5" ry="2.5" style="stroke:#181818;stroke-width:0.5;" width="560.3105" x="693" y="7"/><ellipse cx="912.1191" cy="23" fill="#ADD1B2" rx="11" ry="11" style="stroke:#181818;stroke-width:1;"/><path d="M915.0879,28.6406 Q914.5098,28.9375 913.8691,29.0781 Q913.2285,29.2344 912.5254,29.2344 Q910.0254,29.2344 908.6973,27.5938 Q907.3848,25.9375 907.3848,22.8125 Q907.3848,19.6875 908.6973,18.0313 Q910.0254,16.375 912.5254,16.375 Q913.2285,16.375 913.8691,16.5313 Q914.5254,16.6875 915.0879,16.9844 L915.0879,19.7031 Q914.4629,19.125 913.8691,18.8594 Q913.2754,18.5781 912.6504,18.5781 Q911.3066,18.5781 910.6191,19.6563 Q909.9316,20.7188 909.9316,22.8125 Q909.9316,24.9063 910.6191,25.9844 Q911.3066,27.0469 912.6504,27.0469 Q913.2754,27.0469 913.8691,26.7813 Q914.4629,26.5 915.0879,25.9219 L915.0879,28.6406 Z " fill="#000000"/><text fill="#000000" font-family="sans-serif" font-size="14" lengthAdjust="spacing" textLength="113.5723" x="932.6191" y="27.8467">VluchtController</text><line style="stroke:#181818;stroke-width:0.5;" x1="694" x2="1252.3105" y1="39" y2="39"/><rect fill="transparent" height="6" style="stroke:#C82930;stroke-width:1;" width="6" x="701" y="49.6484"/><text fill="#000000" font-family="sans-serif" font-size="14" lengthAdjust="spacing" textLength="195.4395" x="713" y="55.9951">VluchtService vluchtService</text><line style="stroke:#181818;stroke-width:0.5;" x1="694" x2="1252.3105" y1="63.2969" y2="63.2969"/><ellipse cx="704" cy="76.9453" fill="#84BE84" rx="3" ry="3" style="stroke:#038048;stroke-width:1;"/><text fill="#000000" font-family="sans-serif" font-size="14" lengthAdjust="spacing" textLength="534.3105" x="713" y="80.292">List&lt;Vlucht&gt; zoekVluchten(String vertrek, String bestemming, Date datum)</text><ellipse cx="704" cy="93.2422" fill="#84BE84" rx="3" ry="3" style="stroke:#038048;stroke-width:1;"/><text fill="#000000" font-family="sans-serif" font-size="14" lengthAdjust="spacing" textLength="346.5889" x="713" y="96.5889">void boekVlucht(BoekVluchtDTO boekVluchtDTO)</text></g><!--class VluchtService--><g id="elem_VluchtService"><rect codeLine="7" fill="#F1F1F1" height="129.4844" id="VluchtService" rx="2.5" ry="2.5" style="stroke:#181818;stroke-width:0.5;" width="560.3105" x="499" y="181"/><ellipse cx="726.835" cy="197" fill="#ADD1B2" rx="11" ry="11" style="stroke:#181818;stroke-width:1;"/><path d="M729.8037,202.6406 Q729.2256,202.9375 728.585,203.0781 Q727.9443,203.2344 727.2412,203.2344 Q724.7412,203.2344 723.4131,201.5938 Q722.1006,199.9375 722.1006,196.8125 Q722.1006,193.6875 723.4131,192.0313 Q724.7412,190.375 727.2412,190.375 Q727.9443,190.375 728.585,190.5313 Q729.2412,190.6875 729.8037,190.9844 L729.8037,193.7031 Q729.1787,193.125 728.585,192.8594 Q727.9912,192.5781 727.3662,192.5781 Q726.0225,192.5781 725.335,193.6563 Q724.6475,194.7188 724.6475,196.8125 Q724.6475,198.9063 725.335,199.9844 Q726.0225,201.0469 727.3662,201.0469 Q727.9912,201.0469 728.585,200.7813 Q729.1787,200.5 729.8037,199.9219 L729.8037,202.6406 Z " fill="#000000"/><text fill="#000000" font-family="sans-serif" font-size="14" lengthAdjust="spacing" textLength="96.1406" x="747.335" y="201.8467">VluchtService</text><line style="stroke:#181818;stroke-width:0.5;" x1="500" x2="1058.3105" y1="213" y2="213"/><rect fill="transparent" height="6" style="stroke:#C82930;stroke-width:1;" width="6" x="507" y="223.6484"/><text fill="#000000" font-family="sans-serif" font-size="14" lengthAdjust="spacing" textLength="242.1016" x="519" y="229.9951">VluchtRepository vluchtRepository</text><rect fill="transparent" height="6" style="stroke:#C82930;stroke-width:1;" width="6" x="507" y="239.9453"/><text fill="#000000" font-family="sans-serif" font-size="14" lengthAdjust="spacing" textLength="264.6465" x="519" y="246.292">List&lt;IExternVluchtAdapter&gt; adapters</text><rect fill="transparent" height="6" style="stroke:#C82930;stroke-width:1;" width="6" x="507" y="256.2422"/><text fill="#000000" font-family="sans-serif" font-size="14" lengthAdjust="spacing" textLength="310.1396" x="519" y="262.5889">ExternVluchtAdapterFactory adapterFactory</text><line style="stroke:#181818;stroke-width:0.5;" x1="500" x2="1058.3105" y1="269.8906" y2="269.8906"/><ellipse cx="510" cy="283.5391" fill="#84BE84" rx="3" ry="3" style="stroke:#038048;stroke-width:1;"/><text fill="#000000" font-family="sans-serif" font-size="14" lengthAdjust="spacing" textLength="534.3105" x="519" y="286.8857">List&lt;Vlucht&gt; zoekVluchten(String vertrek, String bestemming, Date datum)</text><ellipse cx="510" cy="299.8359" fill="#84BE84" rx="3" ry="3" style="stroke:#038048;stroke-width:1;"/><text fill="#000000" font-family="sans-serif" font-size="14" lengthAdjust="spacing" textLength="340.9014" x="519" y="303.1826">void boekVlucht(Vlucht vlucht, String username)</text></g><!--class IExternVluchtAdapter--><g id="elem_IExternVluchtAdapter"><rect codeLine="15" fill="#F1F1F1" height="96.8906" id="IExternVluchtAdapter" rx="2.5" ry="2.5" style="stroke:#181818;stroke-width:0.5;" width="560.3105" x="304" y="642"/><ellipse cx="504.8159" cy="658" fill="#B4A7E5" rx="11" ry="11" style="stroke:#181818;stroke-width:1;"/><path d="M500.7378,653.7656 L500.7378,651.6094 L508.1284,651.6094 L508.1284,653.7656 L505.6597,653.7656 L505.6597,661.8438 L508.1284,661.8438 L508.1284,664 L500.7378,664 L500.7378,661.8438 L503.2065,661.8438 L503.2065,653.7656 L500.7378,653.7656 Z " fill="#000000"/><text fill="#000000" font-family="sans-serif" font-size="14" font-style="italic" lengthAdjust="spacing" textLength="150.1787" x="525.3159" y="662.8467">IExternVluchtAdapter</text><line style="stroke:#181818;stroke-width:0.5;" x1="305" x2="863.3105" y1="674" y2="674"/><line style="stroke:#181818;stroke-width:0.5;" x1="305" x2="863.3105" y1="682" y2="682"/><ellipse cx="315" cy="695.6484" fill="#84BE84" rx="3" ry="3" style="stroke:#038048;stroke-width:1;"/><text fill="#000000" font-family="sans-serif" font-size="14" lengthAdjust="spacing" textLength="534.3105" x="324" y="698.9951">List&lt;Vlucht&gt; zoekVluchten(String vertrek, String bestemming, Date datum)</text><ellipse cx="315" cy="711.9453" fill="#84BE84" rx="3" ry="3" style="stroke:#038048;stroke-width:1;"/><text fill="#000000" font-family="sans-serif" font-size="14" lengthAdjust="spacing" textLength="215.5303" x="324" y="715.292">void boekVlucht(Vlucht vlucht)</text><ellipse cx="315" cy="728.2422" fill="#84BE84" rx="3" ry="3" style="stroke:#038048;stroke-width:1;"/><text fill="#000000" font-family="sans-serif" font-size="14" lengthAdjust="spacing" textLength="102.498" x="324" y="731.5889">String getApi()</text></g><!--class KLMAdapter--><g id="elem_KLMAdapter"><rect codeLine="21" fill="#F1F1F1" height="96.8906" id="KLMAdapter" rx="2.5" ry="2.5" style="stroke:#181818;stroke-width:0.5;" width="560.3105" x="7" y="808"/><ellipse cx="240.4814" cy="824" fill="#ADD1B2" rx="11" ry="11" style="stroke:#181818;stroke-width:1;"/><path d="M243.4502,829.6406 Q242.8721,829.9375 242.2314,830.0781 Q241.5908,830.2344 240.8877,830.2344 Q238.3877,830.2344 237.0596,828.5938 Q235.7471,826.9375 235.7471,823.8125 Q235.7471,820.6875 237.0596,819.0313 Q238.3877,817.375 240.8877,817.375 Q241.5908,817.375 242.2314,817.5313 Q242.8877,817.6875 243.4502,817.9844 L243.4502,820.7031 Q242.8252,820.125 242.2314,819.8594 Q241.6377,819.5781 241.0127,819.5781 Q239.6689,819.5781 238.9814,820.6563 Q238.2939,821.7188 238.2939,823.8125 Q238.2939,825.9063 238.9814,826.9844 Q239.6689,828.0469 241.0127,828.0469 Q241.6377,828.0469 242.2314,827.7813 Q242.8252,827.5 243.4502,826.9219 L243.4502,829.6406 Z " fill="#000000"/><text fill="#000000" font-family="sans-serif" font-size="14" lengthAdjust="spacing" textLength="84.8477" x="260.9814" y="828.8467">KLMAdapter</text><line style="stroke:#181818;stroke-width:0.5;" x1="8" x2="566.3105" y1="840" y2="840"/><line style="stroke:#181818;stroke-width:0.5;" x1="8" x2="566.3105" y1="848" y2="848"/><ellipse cx="18" cy="861.6484" fill="#84BE84" rx="3" ry="3" style="stroke:#038048;stroke-width:1;"/><text fill="#000000" font-family="sans-serif" font-size="14" lengthAdjust="spacing" textLength="534.3105" x="27" y="864.9951">List&lt;Vlucht&gt; zoekVluchten(String vertrek, String bestemming, Date datum)</text><ellipse cx="18" cy="877.9453" fill="#84BE84" rx="3" ry="3" style="stroke:#038048;stroke-width:1;"/><text fill="#000000" font-family="sans-serif" font-size="14" lengthAdjust="spacing" textLength="215.5303" x="27" y="881.292">void boekVlucht(Vlucht vlucht)</text><ellipse cx="18" cy="894.2422" fill="#84BE84" rx="3" ry="3" style="stroke:#038048;stroke-width:1;"/><text fill="#000000" font-family="sans-serif" font-size="14" lengthAdjust="spacing" textLength="102.498" x="27" y="897.5889">String getApi()</text></g><!--class SkyscannerAdapter--><g id="elem_SkyscannerAdapter"><rect codeLine="27" fill="#F1F1F1" height="113.1875" id="SkyscannerAdapter" rx="2.5" ry="2.5" style="stroke:#181818;stroke-width:0.5;" width="560.3105" x="602" y="800"/><ellipse cx="809.5288" cy="816" fill="#ADD1B2" rx="11" ry="11" style="stroke:#181818;stroke-width:1;"/><path d="M812.4976,821.6406 Q811.9194,821.9375 811.2788,822.0781 Q810.6382,822.2344 809.9351,822.2344 Q807.4351,822.2344 806.1069,820.5938 Q804.7944,818.9375 804.7944,815.8125 Q804.7944,812.6875 806.1069,811.0313 Q807.4351,809.375 809.9351,809.375 Q810.6382,809.375 811.2788,809.5313 Q811.9351,809.6875 812.4976,809.9844 L812.4976,812.7031 Q811.8726,812.125 811.2788,811.8594 Q810.6851,811.5781 810.0601,811.5781 Q808.7163,811.5781 808.0288,812.6563 Q807.3413,813.7188 807.3413,815.8125 Q807.3413,817.9063 808.0288,818.9844 Q808.7163,820.0469 810.0601,820.0469 Q810.6851,820.0469 811.2788,819.7813 Q811.8726,819.5 812.4976,818.9219 L812.4976,821.6406 Z " fill="#000000"/><text fill="#000000" font-family="sans-serif" font-size="14" lengthAdjust="spacing" textLength="136.7529" x="830.0288" y="820.8467">SkyscannerAdapter</text><line style="stroke:#181818;stroke-width:0.5;" x1="603" x2="1161.3105" y1="832" y2="832"/><line style="stroke:#181818;stroke-width:0.5;" x1="603" x2="1161.3105" y1="840" y2="840"/><ellipse cx="613" cy="853.6484" fill="#84BE84" rx="3" ry="3" style="stroke:#038048;stroke-width:1;"/><text fill="#000000" font-family="sans-serif" font-size="14" lengthAdjust="spacing" textLength="534.3105" x="622" y="856.9951">List&lt;Vlucht&gt; zoekVluchten(String vertrek, String bestemming, Date datum)</text><ellipse cx="613" cy="869.9453" fill="#84BE84" rx="3" ry="3" style="stroke:#038048;stroke-width:1;"/><text fill="#000000" font-family="sans-serif" font-size="14" lengthAdjust="spacing" textLength="215.5303" x="622" y="873.292">void boekVlucht(Vlucht vlucht)</text><ellipse cx="613" cy="886.2422" fill="#84BE84" rx="3" ry="3" style="stroke:#038048;stroke-width:1;"/><text fill="#000000" font-family="sans-serif" font-size="14" lengthAdjust="spacing" textLength="102.498" x="622" y="889.5889">String getApi()</text><ellipse cx="613" cy="902.5391" fill="#84BE84" rx="3" ry="3" style="stroke:#038048;stroke-width:1;"/><text fill="#000000" font-family="sans-serif" font-size="14" lengthAdjust="spacing" textLength="327.9609" x="622" y="905.8857">List&lt;Vlucht&gt; sorteerVlcuhten(String jsonData)</text></g><!--class ExternVluchtAdapterFactory--><g id="elem_ExternVluchtAdapterFactory"><rect codeLine="34" fill="#F1F1F1" height="80.5938" id="ExternVluchtAdapterFactory" rx="2.5" ry="2.5" style="stroke:#181818;stroke-width:0.5;" width="368.6514" x="615.5" y="435.5"/><ellipse cx="696.3384" cy="451.5" fill="#ADD1B2" rx="11" ry="11" style="stroke:#181818;stroke-width:1;"/><path d="M699.3071,457.1406 Q698.729,457.4375 698.0884,457.5781 Q697.4478,457.7344 696.7446,457.7344 Q694.2446,457.7344 692.9165,456.0938 Q691.604,454.4375 691.604,451.3125 Q691.604,448.1875 692.9165,446.5313 Q694.2446,444.875 696.7446,444.875 Q697.4478,444.875 698.0884,445.0313 Q698.7446,445.1875 699.3071,445.4844 L699.3071,448.2031 Q698.6821,447.625 698.0884,447.3594 Q697.4946,447.0781 696.8696,447.0781 Q695.5259,447.0781 694.8384,448.1563 Q694.1509,449.2188 694.1509,451.3125 Q694.1509,453.4063 694.8384,454.4844 Q695.5259,455.5469 696.8696,455.5469 Q697.4946,455.5469 698.0884,455.2813 Q698.6821,455 699.3071,454.4219 L699.3071,457.1406 Z " fill="#000000"/><text fill="#000000" font-family="sans-serif" font-size="14" lengthAdjust="spacing" textLength="198.4746" x="716.8384" y="456.3467">ExternVluchtAdapterFactory</text><line style="stroke:#181818;stroke-width:0.5;" x1="616.5" x2="983.1514" y1="467.5" y2="467.5"/><rect fill="transparent" height="6" style="stroke:#C82930;stroke-width:1;" width="6" x="623.5" y="478.1484"/><text fill="#000000" font-family="sans-serif" font-size="14" lengthAdjust="spacing" textLength="342.6514" x="635.5" y="484.4951">Map&lt;String, IExternVluchtAdapter&gt; adapterMap</text><line style="stroke:#181818;stroke-width:0.5;" x1="616.5" x2="983.1514" y1="491.7969" y2="491.7969"/><ellipse cx="626.5" cy="505.4453" fill="#84BE84" rx="3" ry="3" style="stroke:#038048;stroke-width:1;"/><text fill="#000000" font-family="sans-serif" font-size="14" lengthAdjust="spacing" textLength="311.917" x="635.5" y="508.792">IExternVluchtAdapter getAdapter(String api)</text></g><!--class Vlucht--><g id="elem_Vlucht"><rect codeLine="39" fill="#F1F1F1" height="178.375" id="Vlucht" rx="2.5" ry="2.5" style="stroke:#181818;stroke-width:0.5;" width="281.5547" x="1027" y="387"/><ellipse cx="1141.3276" cy="403" fill="#ADD1B2" rx="11" ry="11" style="stroke:#181818;stroke-width:1;"/><path d="M1144.2964,408.6406 Q1143.7183,408.9375 1143.0776,409.0781 Q1142.437,409.2344 1141.7339,409.2344 Q1139.2339,409.2344 1137.9058,407.5938 Q1136.5933,405.9375 1136.5933,402.8125 Q1136.5933,399.6875 1137.9058,398.0313 Q1139.2339,396.375 1141.7339,396.375 Q1142.437,396.375 1143.0776,396.5313 Q1143.7339,396.6875 1144.2964,396.9844 L1144.2964,399.7031 Q1143.6714,399.125 1143.0776,398.8594 Q1142.4839,398.5781 1141.8589,398.5781 Q1140.5151,398.5781 1139.8276,399.6563 Q1139.1401,400.7188 1139.1401,402.8125 Q1139.1401,404.9063 1139.8276,405.9844 Q1140.5151,407.0469 1141.8589,407.0469 Q1142.4839,407.0469 1143.0776,406.7813 Q1143.6714,406.5 1144.2964,405.9219 L1144.2964,408.6406 Z " fill="#000000"/><text fill="#000000" font-family="sans-serif" font-size="14" lengthAdjust="spacing" textLength="44.3994" x="1161.8276" y="407.8467">Vlucht</text><line style="stroke:#181818;stroke-width:0.5;" x1="1028" x2="1307.5547" y1="419" y2="419"/><rect fill="transparent" height="6" style="stroke:#C82930;stroke-width:1;" width="6" x="1035" y="429.6484"/><text fill="#000000" font-family="sans-serif" font-size="14" lengthAdjust="spacing" textLength="76.7539" x="1047" y="435.9951">api : String</text><rect fill="transparent" height="6" style="stroke:#C82930;stroke-width:1;" width="6" x="1035" y="445.9453"/><text fill="#000000" font-family="sans-serif" font-size="14" lengthAdjust="spacing" textLength="155.0459" x="1047" y="452.292">vluchtNummer: String</text><rect fill="transparent" height="6" style="stroke:#C82930;stroke-width:1;" width="6" x="1035" y="462.2422"/><text fill="#000000" font-family="sans-serif" font-size="14" lengthAdjust="spacing" textLength="145.2295" x="1047" y="468.5889">maatschappij: String</text><rect fill="transparent" height="6" style="stroke:#C82930;stroke-width:1;" width="6" x="1035" y="478.5391"/><text fill="#000000" font-family="sans-serif" font-size="14" lengthAdjust="spacing" textLength="152.2021" x="1047" y="484.8857">vertrekLocatie: String</text><rect fill="transparent" height="6" style="stroke:#C82930;stroke-width:1;" width="6" x="1035" y="494.8359"/><text fill="#000000" font-family="sans-serif" font-size="14" lengthAdjust="spacing" textLength="138.7695" x="1047" y="501.1826">bestemming: String</text><rect fill="transparent" height="6" style="stroke:#C82930;stroke-width:1;" width="6" x="1035" y="511.1328"/><text fill="#000000" font-family="sans-serif" font-size="14" lengthAdjust="spacing" textLength="86.5977" x="1047" y="517.4795">prijs: double</text><rect fill="transparent" height="6" style="stroke:#C82930;stroke-width:1;" width="6" x="1035" y="527.4297"/><text fill="#000000" font-family="sans-serif" font-size="14" lengthAdjust="spacing" textLength="237.0498" x="1047" y="533.7764">vertrekDatumTijd: LocalDateTime</text><rect fill="transparent" height="6" style="stroke:#C82930;stroke-width:1;" width="6" x="1035" y="543.7266"/><text fill="#000000" font-family="sans-serif" font-size="14" lengthAdjust="spacing" textLength="255.5547" x="1047" y="550.0732">aankomstDatumTijd: LocalDateTime</text><line style="stroke:#181818;stroke-width:0.5;" x1="1028" x2="1307.5547" y1="557.375" y2="557.375"/></g><!--class BoekVluchtDTO--><g id="elem_BoekVluchtDTO"><rect codeLine="50" fill="#F1F1F1" height="80.5938" id="BoekVluchtDTO" rx="2.5" ry="2.5" style="stroke:#181818;stroke-width:0.5;" width="147.1875" x="1094.5" y="205"/><ellipse cx="1111.9957" cy="221" fill="#ADD1B2" rx="11" ry="11" style="stroke:#181818;stroke-width:1;"/><path d="M1114.9644,226.6406 Q1114.3863,226.9375 1113.7457,227.0781 Q1113.105,227.2344 1112.4019,227.2344 Q1109.9019,227.2344 1108.5738,225.5938 Q1107.2613,223.9375 1107.2613,220.8125 Q1107.2613,217.6875 1108.5738,216.0313 Q1109.9019,214.375 1112.4019,214.375 Q1113.105,214.375 1113.7457,214.5313 Q1114.4019,214.6875 1114.9644,214.9844 L1114.9644,217.7031 Q1114.3394,217.125 1113.7457,216.8594 Q1113.1519,216.5781 1112.5269,216.5781 Q1111.1832,216.5781 1110.4957,217.6563 Q1109.8082,218.7188 1109.8082,220.8125 Q1109.8082,222.9063 1110.4957,223.9844 Q1111.1832,225.0469 1112.5269,225.0469 Q1113.1519,225.0469 1113.7457,224.7813 Q1114.3394,224.5 1114.9644,223.9219 L1114.9644,226.6406 Z " fill="#000000"/><text fill="#000000" font-family="sans-serif" font-size="14" lengthAdjust="spacing" textLength="109.6416" x="1126.5502" y="225.8467">BoekVluchtDTO</text><line style="stroke:#181818;stroke-width:0.5;" x1="1095.5" x2="1240.6875" y1="237" y2="237"/><rect fill="transparent" height="6" style="stroke:#C82930;stroke-width:1;" width="6" x="1102.5" y="247.6484"/><text fill="#000000" font-family="sans-serif" font-size="14" lengthAdjust="spacing" textLength="101.124" x="1114.5" y="253.9951">vlucht : Vlucht</text><rect fill="transparent" height="6" style="stroke:#C82930;stroke-width:1;" width="6" x="1102.5" y="263.9453"/><text fill="#000000" font-family="sans-serif" font-size="14" lengthAdjust="spacing" textLength="121.1875" x="1114.5" y="270.292">username: String</text><line style="stroke:#181818;stroke-width:0.5;" x1="1095.5" x2="1240.6875" y1="277.5938" y2="277.5938"/></g><!--reverse link IExternVluchtAdapter to KLMAdapter--><g id="link_IExternVluchtAdapter_KLMAdapter"><path d="M481.9422,747.8602 C442.8022,769.4702 412.39,786.26 373.26,807.87 " fill="transparent" id="IExternVluchtAdapter-backto-KLMAdapter" style="stroke:#181818;stroke-width:1;stroke-dasharray:7.0,7.0;"/><polygon fill="transparent" points="497.7,739.16,479.0422,742.6076,484.8423,753.1128,497.7,739.16" style="stroke:#181818;stroke-width:1;"/></g><!--reverse link IExternVluchtAdapter to SkyscannerAdapter--><g id="link_IExternVluchtAdapter_SkyscannerAdapter"><path d="M686.3604,747.8372 C720.9104,766.8472 745.14,780.18 780.99,799.91 " fill="transparent" id="IExternVluchtAdapter-backto-SkyscannerAdapter" style="stroke:#181818;stroke-width:1;stroke-dasharray:7.0,7.0;"/><polygon fill="transparent" points="670.59,739.16,683.4681,753.094,689.2528,742.5804,670.59,739.16" style="stroke:#181818;stroke-width:1;"/></g><!--link VluchtController to VluchtService--><g id="link_VluchtController_VluchtService"><path codeLine="55" d="M923.79,104.18 C899.77,127.46 874.8495,151.6253 848.9495,176.7153 " fill="transparent" id="VluchtController-to-VluchtService" style="stroke:#181818;stroke-width:1;"/><polygon fill="#181818" points="844.64,180.89,853.8874,177.5009,848.2312,177.4111,848.3211,171.7549,844.64,180.89" style="stroke:#181818;stroke-width:1;"/><text fill="#000000" font-family="sans-serif" font-size="13" lengthAdjust="spacing" textLength="24.8066" x="889" y="147.0669">1..1</text></g><!--link ExternVluchtAdapterFactory to IExternVluchtAdapter--><g id="link_ExternVluchtAdapterFactory_IExternVluchtAdapter"><path codeLine="56" d="M759.63,516.72 C723.6,552.16 675.0671,599.9121 636.7671,637.5921 " fill="transparent" id="ExternVluchtAdapterFactory-to-IExternVluchtAdapter" style="stroke:#181818;stroke-width:1;"/><polygon fill="#181818" points="632.49,641.8,641.7109,638.3396,636.0543,638.2934,636.1004,632.6368,632.49,641.8" style="stroke:#181818;stroke-width:1;"/><text fill="#000000" font-family="sans-serif" font-size="13" lengthAdjust="spacing" textLength="23.0356" x="681" y="608.0669">1..*</text></g><!--link VluchtService to IExternVluchtAdapter--><g id="link_VluchtService_IExternVluchtAdapter"><path codeLine="57" d="M645.05,310.05 C616.19,330.39 589.43,355.9 573,387 C530.1,468.2 549.2698,573.7229 566.7898,636.1929 " fill="transparent" id="VluchtService-to-IExternVluchtAdapter" style="stroke:#181818;stroke-width:1;"/><polygon fill="#181818" points="568.41,641.97,569.8311,632.2242,567.0598,637.1557,562.1283,634.3845,568.41,641.97" style="stroke:#181818;stroke-width:1;"/><text fill="#000000" font-family="sans-serif" font-size="13" lengthAdjust="spacing" textLength="23.0356" x="574" y="480.5669">1..*</text></g><!--link VluchtService to ExternVluchtAdapterFactory--><g id="link_VluchtService_ExternVluchtAdapterFactory"><path codeLine="58" d="M784.85,310.15 C788.54,350.29 792.6407,394.9052 795.8107,429.3852 " fill="transparent" id="VluchtService-to-ExternVluchtAdapterFactory" style="stroke:#181818;stroke-width:1;"/><polygon fill="#181818" points="796.36,435.36,799.5192,426.0316,795.9022,430.381,791.5528,426.764,796.36,435.36" style="stroke:#181818;stroke-width:1;"/><text fill="#000000" font-family="sans-serif" font-size="13" lengthAdjust="spacing" textLength="24.8066" x="790" y="353.0669">1..1</text></g><!--link VluchtController to BoekVluchtDTO--><g id="link_VluchtController_BoekVluchtDTO"><path codeLine="64" d="M1022.46,104.18 C1054.73,135.3 1092.0401,171.2661 1122.5101,200.6361 " fill="transparent" id="VluchtController-to-BoekVluchtDTO" style="stroke:#181818;stroke-width:1;stroke-dasharray:7.0,7.0;"/><polygon fill="#181818" points="1126.83,204.8,1123.1261,195.6741,1123.2301,201.33,1117.5742,201.434,1126.83,204.8" style="stroke:#181818;stroke-width:1;"/></g><!--link BoekVluchtDTO to Vlucht--><g id="link_BoekVluchtDTO_Vlucht"><path codeLine="65" d="M1168,286.04 C1168,313.76 1168,345.92 1168,380.7 " fill="transparent" id="BoekVluchtDTO-to-Vlucht" style="stroke:#181818;stroke-width:1;stroke-dasharray:7.0,7.0;"/><polygon fill="#181818" points="1168,386.7,1172,377.7,1168,381.7,1164,377.7,1168,386.7" style="stroke:#181818;stroke-width:1;"/></g><!--SRC=[rLLDJnin4BtxL_X6A4aahX6AH0cLgeOYDH7tYNS09-iFsTu8YlhVyQxjpNgpZSG5YLpYyRnvVcz6zh8IhAKFPSMUtOsIpgYoH4FV2FM_IKoiqEmvGxhlHWtYWYwvTLS1DgT_5Ux26kLevGoNJtIFnXdSZMcCDsWT2k6NOxe0XxG0LudpIBTNlA2RbcRqlLqkrlUTX8_EoJz2M4T_afcB_uDQMUwKUOtw3niHrrZuUVlYqCXGSrs0zj6SGbZOY1p0_03MS4CMVavpmb-qrN9Krci4WKr_kFIY7i5tPSXWRDNd2asWoFI4xbhpKMUQlvPtIHyNkaI1qjalf7-rUxKCf4Jp5MqCAB7AE4JpKBAgAsPhbVI7GiVwYGkIRkKTwAj0CAOdBvq7HZ63FQi5XsNI0veVlGdjiJv9Pz5it0fz-5q9WQQN4W3EicVGcc_xLM44IyN0SUmb3_Fe9RJXMpkZXQes9UPCYtfaQxujPhGcBUivhhb8A02vKyAw_y9Qn_bR-PQvzDv3AkwcHwALwLcElWAJoRptjCxevNHwIKwCkQuPd5TJ-etaV1z7dpWwYYDdUTLqcbmarhCZfmEOGLd7E3B8bOs2v8CvSBm3]--></g></svg>