<svg xmlns="http://www.w3.org/2000/svg" xmlns:xlink="http://www.w3.org/1999/xlink" contentStyleType="text/css" data-diagram-type="CLASS" height="714px" preserveAspectRatio="none" style="width:1362px;height:714px;background:#FFFFFF;" version="1.1" viewBox="0 0 1362 714" width="1362px" zoomAndPan="magnify"><defs/><g><!--class BouwsteenFabriek--><g id="elem_BouwsteenFabriek"><rect codeLine="1" fill="#F1F1F1" height="96.8906" id="BouwsteenFabriek" rx="2.5" ry="2.5" style="stroke:#181818;stroke-width:0.5;" width="510.1006" x="292.5" y="23"/><ellipse cx="478.6699" cy="39" fill="#ADD1B2" rx="11" ry="11" style="stroke:#181818;stroke-width:1;"/><path d="M481.6387,44.6406 Q481.0605,44.9375 480.4199,45.0781 Q479.7793,45.2344 479.0762,45.2344 Q476.5762,45.2344 475.248,43.5938 Q473.9355,41.9375 473.9355,38.8125 Q473.9355,35.6875 475.248,34.0313 Q476.5762,32.375 479.0762,32.375 Q479.7793,32.375 480.4199,32.5313 Q481.0762,32.6875 481.6387,32.9844 L481.6387,35.7031 Q481.0137,35.125 480.4199,34.8594 Q479.8262,34.5781 479.2012,34.5781 Q477.8574,34.5781 477.1699,35.6563 Q476.4824,36.7188 476.4824,38.8125 Q476.4824,40.9063 477.1699,41.9844 Q477.8574,43.0469 479.2012,43.0469 Q479.8262,43.0469 480.4199,42.7813 Q481.0137,42.5 481.6387,41.9219 L481.6387,44.6406 Z " fill="#000000"/><text fill="#000000" font-family="sans-serif" font-size="14" lengthAdjust="spacing" textLength="129.2607" x="499.1699" y="43.8467">BouwsteenFabriek</text><line style="stroke:#181818;stroke-width:0.5;" x1="293.5" x2="801.6006" y1="55" y2="55"/><rect fill="transparent" height="6" style="stroke:#C82930;stroke-width:1;" width="6" x="300.5" y="65.6484"/><text fill="#000000" font-family="sans-serif" font-size="14" lengthAdjust="spacing" textLength="304.9648" x="312.5" y="71.9951">creators : Map&lt;String, BouwsteenCreator&gt;</text><line style="stroke:#181818;stroke-width:0.5;" x1="293.5" x2="801.6006" y1="79.2969" y2="79.2969"/><ellipse cx="303.5" cy="92.9453" fill="#84BE84" rx="3" ry="3" style="stroke:#038048;stroke-width:1;"/><text fill="#000000" font-family="sans-serif" font-size="14" lengthAdjust="spacing" textLength="406.5742" x="312.5" y="96.292">BouwsteenFabriek(creatorList : List&lt;BouwsteenCreator&gt;)</text><ellipse cx="303.5" cy="109.2422" fill="#84BE84" rx="3" ry="3" style="stroke:#038048;stroke-width:1;"/><text fill="#000000" font-family="sans-serif" font-size="14" lengthAdjust="spacing" textLength="484.1006" x="312.5" y="112.5889">createBouwsteen(type : String, id : Long, naam : String) : Bouwsteen</text></g><!--class BouwsteenCreator--><g id="elem_BouwsteenCreator"><rect codeLine="7" fill="#F1F1F1" height="80.5938" id="BouwsteenCreator" rx="2.5" ry="2.5" style="stroke:#181818;stroke-width:0.5;" width="337.1514" x="379" y="197"/><ellipse cx="478.3706" cy="213" fill="#B4A7E5" rx="11" ry="11" style="stroke:#181818;stroke-width:1;"/><path d="M474.2925,208.7656 L474.2925,206.6094 L481.6831,206.6094 L481.6831,208.7656 L479.2144,208.7656 L479.2144,216.8438 L481.6831,216.8438 L481.6831,219 L474.2925,219 L474.2925,216.8438 L476.7612,216.8438 L476.7612,208.7656 L474.2925,208.7656 Z " fill="#000000"/><text fill="#000000" font-family="sans-serif" font-size="14" font-style="italic" lengthAdjust="spacing" textLength="129.9102" x="498.8706" y="217.8467">BouwsteenCreator</text><line style="stroke:#181818;stroke-width:0.5;" x1="380" x2="715.1514" y1="229" y2="229"/><line style="stroke:#181818;stroke-width:0.5;" x1="380" x2="715.1514" y1="237" y2="237"/><ellipse cx="390" cy="250.6484" fill="#84BE84" rx="3" ry="3" style="stroke:#038048;stroke-width:1;"/><text fill="#000000" font-family="sans-serif" font-size="14" lengthAdjust="spacing" textLength="123.6484" x="399" y="253.9951">getType() : String</text><ellipse cx="390" cy="266.9453" fill="#84BE84" rx="3" ry="3" style="stroke:#038048;stroke-width:1;"/><text fill="#000000" font-family="sans-serif" font-size="14" lengthAdjust="spacing" textLength="311.1514" x="399" y="270.292">create(id : Long, naam : String) : Bouwsteen</text></g><!--class ActiviteitCreator--><g id="elem_ActiviteitCreator"><rect codeLine="12" fill="#F1F1F1" height="80.5938" id="ActiviteitCreator" rx="2.5" ry="2.5" style="stroke:#181818;stroke-width:0.5;" width="337.1514" x="7" y="371"/><ellipse cx="113.9038" cy="387" fill="#ADD1B2" rx="11" ry="11" style="stroke:#181818;stroke-width:1;"/><path d="M116.8726,392.6406 Q116.2944,392.9375 115.6538,393.0781 Q115.0132,393.2344 114.3101,393.2344 Q111.8101,393.2344 110.4819,391.5938 Q109.1694,389.9375 109.1694,386.8125 Q109.1694,383.6875 110.4819,382.0313 Q111.8101,380.375 114.3101,380.375 Q115.0132,380.375 115.6538,380.5313 Q116.3101,380.6875 116.8726,380.9844 L116.8726,383.7031 Q116.2476,383.125 115.6538,382.8594 Q115.0601,382.5781 114.4351,382.5781 Q113.0913,382.5781 112.4038,383.6563 Q111.7163,384.7188 111.7163,386.8125 Q111.7163,388.9063 112.4038,389.9844 Q113.0913,391.0469 114.4351,391.0469 Q115.0601,391.0469 115.6538,390.7813 Q116.2476,390.5 116.8726,389.9219 L116.8726,392.6406 Z " fill="#000000"/><text fill="#000000" font-family="sans-serif" font-size="14" lengthAdjust="spacing" textLength="114.8438" x="134.4038" y="391.8467">ActiviteitCreator</text><line style="stroke:#181818;stroke-width:0.5;" x1="8" x2="343.1514" y1="403" y2="403"/><line style="stroke:#181818;stroke-width:0.5;" x1="8" x2="343.1514" y1="411" y2="411"/><ellipse cx="18" cy="424.6484" fill="#84BE84" rx="3" ry="3" style="stroke:#038048;stroke-width:1;"/><text fill="#000000" font-family="sans-serif" font-size="14" lengthAdjust="spacing" textLength="123.6484" x="27" y="427.9951">getType() : String</text><ellipse cx="18" cy="440.9453" fill="#84BE84" rx="3" ry="3" style="stroke:#038048;stroke-width:1;"/><text fill="#000000" font-family="sans-serif" font-size="14" lengthAdjust="spacing" textLength="311.1514" x="27" y="444.292">create(id : Long, naam : String) : Bouwsteen</text></g><!--class AccommodatieCreator--><g id="elem_AccommodatieCreator"><rect codeLine="16" fill="#F1F1F1" height="80.5938" id="AccommodatieCreator" rx="2.5" ry="2.5" style="stroke:#181818;stroke-width:0.5;" width="337.1514" x="379" y="371"/><ellipse cx="464.6406" cy="387" fill="#ADD1B2" rx="11" ry="11" style="stroke:#181818;stroke-width:1;"/><path d="M467.6094,392.6406 Q467.0313,392.9375 466.3906,393.0781 Q465.75,393.2344 465.0469,393.2344 Q462.5469,393.2344 461.2188,391.5938 Q459.9063,389.9375 459.9063,386.8125 Q459.9063,383.6875 461.2188,382.0313 Q462.5469,380.375 465.0469,380.375 Q465.75,380.375 466.3906,380.5313 Q467.0469,380.6875 467.6094,380.9844 L467.6094,383.7031 Q466.9844,383.125 466.3906,382.8594 Q465.7969,382.5781 465.1719,382.5781 Q463.8281,382.5781 463.1406,383.6563 Q462.4531,384.7188 462.4531,386.8125 Q462.4531,388.9063 463.1406,389.9844 Q463.8281,391.0469 465.1719,391.0469 Q465.7969,391.0469 466.3906,390.7813 Q466.9844,390.5 467.6094,389.9219 L467.6094,392.6406 Z " fill="#000000"/><text fill="#000000" font-family="sans-serif" font-size="14" lengthAdjust="spacing" textLength="157.3701" x="485.1406" y="391.8467">AccommodatieCreator</text><line style="stroke:#181818;stroke-width:0.5;" x1="380" x2="715.1514" y1="403" y2="403"/><line style="stroke:#181818;stroke-width:0.5;" x1="380" x2="715.1514" y1="411" y2="411"/><ellipse cx="390" cy="424.6484" fill="#84BE84" rx="3" ry="3" style="stroke:#038048;stroke-width:1;"/><text fill="#000000" font-family="sans-serif" font-size="14" lengthAdjust="spacing" textLength="123.6484" x="399" y="427.9951">getType() : String</text><ellipse cx="390" cy="440.9453" fill="#84BE84" rx="3" ry="3" style="stroke:#038048;stroke-width:1;"/><text fill="#000000" font-family="sans-serif" font-size="14" lengthAdjust="spacing" textLength="311.1514" x="399" y="444.292">create(id : Long, naam : String) : Bouwsteen</text></g><!--class Bouwsteen--><g id="elem_Bouwsteen"><rect codeLine="24" fill="#F1F1F1" height="113.1875" id="Bouwsteen" rx="2.5" ry="2.5" style="stroke:#181818;stroke-width:0.5;" width="285.916" x="751.5" y="355"/><ellipse cx="851.52" cy="371" fill="#B4A7E5" rx="11" ry="11" style="stroke:#181818;stroke-width:1;"/><path d="M847.4419,366.7656 L847.4419,364.6094 L854.8325,364.6094 L854.8325,366.7656 L852.3638,366.7656 L852.3638,374.8438 L854.8325,374.8438 L854.8325,377 L847.4419,377 L847.4419,374.8438 L849.9106,374.8438 L849.9106,366.7656 L847.4419,366.7656 Z " fill="#000000"/><text fill="#000000" font-family="sans-serif" font-size="14" font-style="italic" lengthAdjust="spacing" textLength="77.376" x="872.02" y="375.8467">Bouwsteen</text><line style="stroke:#181818;stroke-width:0.5;" x1="752.5" x2="1036.416" y1="387" y2="387"/><line style="stroke:#181818;stroke-width:0.5;" x1="752.5" x2="1036.416" y1="395" y2="395"/><ellipse cx="762.5" cy="408.6484" fill="#84BE84" rx="3" ry="3" style="stroke:#038048;stroke-width:1;"/><text fill="#000000" font-family="sans-serif" font-size="14" lengthAdjust="spacing" textLength="94.6709" x="771.5" y="411.9951">getId() : Long</text><ellipse cx="762.5" cy="424.9453" fill="#84BE84" rx="3" ry="3" style="stroke:#038048;stroke-width:1;"/><text fill="#000000" font-family="sans-serif" font-size="14" lengthAdjust="spacing" textLength="130.5801" x="771.5" y="428.292">getNaam() : String</text><ellipse cx="762.5" cy="441.2422" fill="#84BE84" rx="3" ry="3" style="stroke:#038048;stroke-width:1;"/><text fill="#000000" font-family="sans-serif" font-size="14" lengthAdjust="spacing" textLength="175.2461" x="771.5" y="444.5889">getStatus() : BouwStatus</text><ellipse cx="762.5" cy="457.5391" fill="#84BE84" rx="3" ry="3" style="stroke:#038048;stroke-width:1;"/><text fill="#000000" font-family="sans-serif" font-size="14" lengthAdjust="spacing" textLength="259.916" x="771.5" y="460.8857">setStatus(status : BouwStatus) : void</text></g><!--class Activiteit--><g id="elem_Activiteit"><rect codeLine="31" fill="#F1F1F1" height="178.375" id="Activiteit" rx="2.5" ry="2.5" style="stroke:#181818;stroke-width:0.5;" width="412.3604" x="453.5" y="529"/><ellipse cx="624.2754" cy="545" fill="#ADD1B2" rx="11" ry="11" style="stroke:#181818;stroke-width:1;"/><path d="M627.2441,550.6406 Q626.666,550.9375 626.0254,551.0781 Q625.3848,551.2344 624.6816,551.2344 Q622.1816,551.2344 620.8535,549.5938 Q619.541,547.9375 619.541,544.8125 Q619.541,541.6875 620.8535,540.0313 Q622.1816,538.375 624.6816,538.375 Q625.3848,538.375 626.0254,538.5313 Q626.6816,538.6875 627.2441,538.9844 L627.2441,541.7031 Q626.6191,541.125 626.0254,540.8594 Q625.4316,540.5781 624.8066,540.5781 Q623.4629,540.5781 622.7754,541.6563 Q622.0879,542.7188 622.0879,544.8125 Q622.0879,546.9063 622.7754,547.9844 Q623.4629,549.0469 624.8066,549.0469 Q625.4316,549.0469 626.0254,548.7813 Q626.6191,548.5 627.2441,547.9219 L627.2441,550.6406 Z " fill="#000000"/><text fill="#000000" font-family="sans-serif" font-size="14" lengthAdjust="spacing" textLength="62.3096" x="644.7754" y="549.8467">Activiteit</text><line style="stroke:#181818;stroke-width:0.5;" x1="454.5" x2="864.8604" y1="561" y2="561"/><rect fill="transparent" height="6" style="stroke:#C82930;stroke-width:1;" width="6" x="461.5" y="571.6484"/><text fill="#000000" font-family="sans-serif" font-size="14" lengthAdjust="spacing" textLength="60.5186" x="473.5" y="577.9951">id : Long</text><rect fill="transparent" height="6" style="stroke:#C82930;stroke-width:1;" width="6" x="461.5" y="587.9453"/><text fill="#000000" font-family="sans-serif" font-size="14" lengthAdjust="spacing" textLength="95.0674" x="473.5" y="594.292">naam : String</text><rect fill="transparent" height="6" style="stroke:#C82930;stroke-width:1;" width="6" x="461.5" y="604.2422"/><text fill="#000000" font-family="sans-serif" font-size="14" lengthAdjust="spacing" textLength="139.7402" x="473.5" y="610.5889">status : BouwStatus</text><line style="stroke:#181818;stroke-width:0.5;" x1="454.5" x2="864.8604" y1="617.8906" y2="617.8906"/><ellipse cx="464.5" cy="631.5391" fill="#84BE84" rx="3" ry="3" style="stroke:#038048;stroke-width:1;"/><text fill="#000000" font-family="sans-serif" font-size="14" lengthAdjust="spacing" textLength="386.3604" x="473.5" y="634.8857">Activiteit(id : Long, naam : String, status : BouwStatus)</text><ellipse cx="464.5" cy="647.8359" fill="#84BE84" rx="3" ry="3" style="stroke:#038048;stroke-width:1;"/><text fill="#000000" font-family="sans-serif" font-size="14" lengthAdjust="spacing" textLength="94.6709" x="473.5" y="651.1826">getId() : Long</text><ellipse cx="464.5" cy="664.1328" fill="#84BE84" rx="3" ry="3" style="stroke:#038048;stroke-width:1;"/><text fill="#000000" font-family="sans-serif" font-size="14" lengthAdjust="spacing" textLength="130.5801" x="473.5" y="667.4795">getNaam() : String</text><ellipse cx="464.5" cy="680.4297" fill="#84BE84" rx="3" ry="3" style="stroke:#038048;stroke-width:1;"/><text fill="#000000" font-family="sans-serif" font-size="14" lengthAdjust="spacing" textLength="175.2461" x="473.5" y="683.7764">getStatus() : BouwStatus</text><ellipse cx="464.5" cy="696.7266" fill="#84BE84" rx="3" ry="3" style="stroke:#038048;stroke-width:1;"/><text fill="#000000" font-family="sans-serif" font-size="14" lengthAdjust="spacing" textLength="259.916" x="473.5" y="700.0732">setStatus(status : BouwStatus) : void</text></g><!--class Accommodatie--><g id="elem_Accommodatie"><rect codeLine="42" fill="#F1F1F1" height="178.375" id="Accommodatie" rx="2.5" ry="2.5" style="stroke:#181818;stroke-width:0.5;" width="454.8867" x="901" y="529"/><ellipse cx="1071.7754" cy="545" fill="#ADD1B2" rx="11" ry="11" style="stroke:#181818;stroke-width:1;"/><path d="M1074.7441,550.6406 Q1074.166,550.9375 1073.5254,551.0781 Q1072.8848,551.2344 1072.1816,551.2344 Q1069.6816,551.2344 1068.3535,549.5938 Q1067.041,547.9375 1067.041,544.8125 Q1067.041,541.6875 1068.3535,540.0313 Q1069.6816,538.375 1072.1816,538.375 Q1072.8848,538.375 1073.5254,538.5313 Q1074.1816,538.6875 1074.7441,538.9844 L1074.7441,541.7031 Q1074.1191,541.125 1073.5254,540.8594 Q1072.9316,540.5781 1072.3066,540.5781 Q1070.9629,540.5781 1070.2754,541.6563 Q1069.5879,542.7188 1069.5879,544.8125 Q1069.5879,546.9063 1070.2754,547.9844 Q1070.9629,549.0469 1072.3066,549.0469 Q1072.9316,549.0469 1073.5254,548.7813 Q1074.1191,548.5 1074.7441,547.9219 L1074.7441,550.6406 Z " fill="#000000"/><text fill="#000000" font-family="sans-serif" font-size="14" lengthAdjust="spacing" textLength="104.8359" x="1092.2754" y="549.8467">Accommodatie</text><line style="stroke:#181818;stroke-width:0.5;" x1="902" x2="1354.8867" y1="561" y2="561"/><rect fill="transparent" height="6" style="stroke:#C82930;stroke-width:1;" width="6" x="909" y="571.6484"/><text fill="#000000" font-family="sans-serif" font-size="14" lengthAdjust="spacing" textLength="60.5186" x="921" y="577.9951">id : Long</text><rect fill="transparent" height="6" style="stroke:#C82930;stroke-width:1;" width="6" x="909" y="587.9453"/><text fill="#000000" font-family="sans-serif" font-size="14" lengthAdjust="spacing" textLength="95.0674" x="921" y="594.292">naam : String</text><rect fill="transparent" height="6" style="stroke:#C82930;stroke-width:1;" width="6" x="909" y="604.2422"/><text fill="#000000" font-family="sans-serif" font-size="14" lengthAdjust="spacing" textLength="139.7402" x="921" y="610.5889">status : BouwStatus</text><line style="stroke:#181818;stroke-width:0.5;" x1="902" x2="1354.8867" y1="617.8906" y2="617.8906"/><ellipse cx="912" cy="631.5391" fill="#84BE84" rx="3" ry="3" style="stroke:#038048;stroke-width:1;"/><text fill="#000000" font-family="sans-serif" font-size="14" lengthAdjust="spacing" textLength="428.8867" x="921" y="634.8857">Accommodatie(id : Long, naam : String, status : BouwStatus)</text><ellipse cx="912" cy="647.8359" fill="#84BE84" rx="3" ry="3" style="stroke:#038048;stroke-width:1;"/><text fill="#000000" font-family="sans-serif" font-size="14" lengthAdjust="spacing" textLength="94.6709" x="921" y="651.1826">getId() : Long</text><ellipse cx="912" cy="664.1328" fill="#84BE84" rx="3" ry="3" style="stroke:#038048;stroke-width:1;"/><text fill="#000000" font-family="sans-serif" font-size="14" lengthAdjust="spacing" textLength="130.5801" x="921" y="667.4795">getNaam() : String</text><ellipse cx="912" cy="680.4297" fill="#84BE84" rx="3" ry="3" style="stroke:#038048;stroke-width:1;"/><text fill="#000000" font-family="sans-serif" font-size="14" lengthAdjust="spacing" textLength="175.2461" x="921" y="683.7764">getStatus() : BouwStatus</text><ellipse cx="912" cy="696.7266" fill="#84BE84" rx="3" ry="3" style="stroke:#038048;stroke-width:1;"/><text fill="#000000" font-family="sans-serif" font-size="14" lengthAdjust="spacing" textLength="259.916" x="921" y="700.0732">setStatus(status : BouwStatus) : void</text></g><!--class BouwStatus--><g id="elem_BouwStatus"><rect codeLine="56" fill="#F1F1F1" height="129.4844" id="BouwStatus" rx="2.5" ry="2.5" style="stroke:#181818;stroke-width:0.5;" width="151.583" x="837.5" y="7"/><ellipse cx="868.9153" cy="23" fill="#EB937F" rx="11" ry="11" style="stroke:#181818;stroke-width:1;"/><path d="M873.0247,29 L865.306,29 L865.306,16.6094 L873.0247,16.6094 L873.0247,18.7656 L867.7591,18.7656 L867.7591,21.4375 L872.5247,21.4375 L872.5247,23.5938 L867.7591,23.5938 L867.7591,26.8438 L873.0247,26.8438 L873.0247,29 Z " fill="#000000"/><text fill="#000000" font-family="sans-serif" font-size="14" lengthAdjust="spacing" textLength="83.1045" x="886.5632" y="27.8467">BouwStatus</text><line style="stroke:#181818;stroke-width:0.5;" x1="838.5" x2="988.083" y1="39" y2="39"/><text fill="#000000" font-family="sans-serif" font-size="14" lengthAdjust="spacing" textLength="66.7666" x="843.5" y="55.9951">GEPLAND</text><text fill="#000000" font-family="sans-serif" font-size="14" lengthAdjust="spacing" textLength="76.542" x="843.5" y="72.292">GEREGELD</text><text fill="#000000" font-family="sans-serif" font-size="14" lengthAdjust="spacing" textLength="64.7363" x="843.5" y="88.5889">BETAALD</text><text fill="#000000" font-family="sans-serif" font-size="14" lengthAdjust="spacing" textLength="139.583" x="843.5" y="104.8857">NIET_UITVOERBAAR</text><text fill="#000000" font-family="sans-serif" font-size="14" lengthAdjust="spacing" textLength="92.5723" x="843.5" y="121.1826">UITGEVOERD</text><line style="stroke:#181818;stroke-width:0.5;" x1="838.5" x2="988.083" y1="128.4844" y2="128.4844"/></g><!--reverse link BouwsteenCreator to ActiviteitCreator--><g id="link_BouwsteenCreator_ActiviteitCreator"><path codeLine="20" d="M445.3509,285.732 C385.1609,313.552 321.36,343.06 261.2,370.87 " fill="transparent" id="BouwsteenCreator-backto-ActiviteitCreator" style="stroke:#181818;stroke-width:1;stroke-dasharray:7.0,7.0;"/><polygon fill="transparent" points="461.69,278.18,442.8335,280.2856,447.8682,291.1784,461.69,278.18" style="stroke:#181818;stroke-width:1;"/><text fill="#000000" font-family="sans-serif" font-size="13" lengthAdjust="spacing" textLength="76.9082" x="193.163" y="360.01">implements</text></g><!--reverse link BouwsteenCreator to AccommodatieCreator--><g id="link_BouwsteenCreator_AccommodatieCreator"><path codeLine="21" d="M547.5,296.39 C547.5,324.18 547.5,343.08 547.5,370.82 " fill="transparent" id="BouwsteenCreator-backto-AccommodatieCreator" style="stroke:#181818;stroke-width:1;stroke-dasharray:7.0,7.0;"/><polygon fill="transparent" points="547.5,278.39,541.5,296.39,553.5,296.39,547.5,278.39" style="stroke:#181818;stroke-width:1;"/><text fill="#000000" font-family="sans-serif" font-size="13" lengthAdjust="spacing" textLength="76.9082" x="465.2689" y="359.9517">implements</text></g><!--reverse link Bouwsteen to Activiteit--><g id="link_Bouwsteen_Activiteit"><path codeLine="52" d="M817.0208,479.9254 C795.5408,498.6154 784.61,508.13 760.97,528.7 " fill="transparent" id="Bouwsteen-backto-Activiteit" style="stroke:#181818;stroke-width:1;stroke-dasharray:7.0,7.0;"/><polygon fill="transparent" points="830.6,468.11,813.0823,475.399,820.9593,484.4519,830.6,468.11" style="stroke:#181818;stroke-width:1;"/><text fill="#000000" font-family="sans-serif" font-size="13" lengthAdjust="spacing" textLength="76.9082" x="690.0496" y="518.0435">implements</text></g><!--reverse link Bouwsteen to Accommodatie--><g id="link_Bouwsteen_Accommodatie"><path codeLine="53" d="M971.6846,479.9537 C993.0746,498.6437 1003.93,508.13 1027.46,528.7 " fill="transparent" id="Bouwsteen-backto-Accommodatie" style="stroke:#181818;stroke-width:1;stroke-dasharray:7.0,7.0;"/><polygon fill="transparent" points="958.13,468.11,967.7367,484.4719,975.6325,475.4355,958.13,468.11" style="stroke:#181818;stroke-width:1;"/><text fill="#000000" font-family="sans-serif" font-size="13" lengthAdjust="spacing" textLength="76.9082" x="940.4209" y="518.0435">implements</text></g><!--link BouwsteenFabriek to BouwsteenCreator--><g id="link_BouwsteenFabriek_BouwsteenCreator"><path codeLine="65" d="M547.5,120.38 C547.5,144.67 547.5,167.84 547.5,190.86 " fill="transparent" id="BouwsteenFabriek-to-BouwsteenCreator" style="stroke:#181818;stroke-width:1;"/><polygon fill="#181818" points="547.5,196.86,551.5,187.86,547.5,191.86,543.5,187.86,547.5,196.86" style="stroke:#181818;stroke-width:1;"/><text fill="#000000" font-family="sans-serif" font-size="13" lengthAdjust="spacing" textLength="29.7832" x="516.1508" y="185.9983">uses</text></g><!--link BouwsteenCreator to Bouwsteen--><g id="link_BouwsteenCreator_Bouwsteen"><path codeLine="68" d="M627.54,278.18 C673.48,300.95 726.4943,327.2251 776.9443,352.2351 " fill="transparent" id="BouwsteenCreator-to-Bouwsteen" style="stroke:#181818;stroke-width:1;stroke-dasharray:7.0,7.0;"/><polygon fill="#181818" points="782.32,354.9,776.0331,347.3188,777.8403,352.6792,772.4798,354.4864,782.32,354.9" style="stroke:#181818;stroke-width:1;"/><text fill="#000000" font-family="sans-serif" font-size="13" lengthAdjust="spacing" textLength="48.3247" x="722.5" y="321.0669">creates</text></g><!--SRC=[rLLHJy8m47xdLpGyRG7s0mWX6L892QA1wQkfsqaQsKRM3cFK_svRjjj61z54ZUwbw_M-x-wxstNXbWb19cd-B2H0SiaUCWvFvBL3p3CWOGPCffaWGtB5TgErp7YowLU8YyFvk03qB2wdO5Xm8HM9NaOMsaMuyGPqSEJB3XIiZCiZpP7gruIn64zSzOOWG_RU8MRbYOJiaOLWvOmgUsG3Cb2171S9Zn9olXuuDANrGydtN0ANFnwr5ZDCupYDcEJm6r6jmexUF8zqURpRGWo955sx39y7MbfqVK-rjgbp7XcLMahTl5IYskIhexLaCXTEgVImHGU13i8i3I-DsQSyEliHr2OBguoMHh7HsX8A4wg8JpQjtqRW_iqgLQt-zZfLrF-rKlLvEJjXRQwdXmgd2P8yheN73ipepS9VJd6teZEwABSJ6lW-xfPp6jpVpeExQxgQ-FwgC2lBZ6hRjEfwCydolpCOZ4at5w1oFBuRR51vQNZUk2PtMDnYuWC0]--></g></svg>