<svg xmlns="http://www.w3.org/2000/svg" xmlns:xlink="http://www.w3.org/1999/xlink" contentStyleType="text/css" data-diagram-type="SEQUENCE" height="594px" preserveAspectRatio="none" style="width:2194px;height:594px;background:#FFFFFF;" version="1.1" viewBox="0 0 2194 594" width="2194px" zoomAndPan="magnify"><defs/><g><rect fill="transparent" height="311.1328" style="stroke:#000000;stroke-width:1.5;" width="2178.9678" x="10" y="185.6953"/><rect fill="transparent" height="280" style="stroke:#000000;stroke-width:1.5;" width="2158.9678" x="20" y="209.8281"/><rect fill="transparent" height="206.7344" style="stroke:#000000;stroke-width:1.5;" width="1692.2183" x="30" y="276.0938"/><g><title>Frontend</title><rect fill="transparent" height="432.5313" width="8" x="70.5547" y="81.2969"/><line style="stroke:#181818;stroke-width:0.5;stroke-dasharray:5.0,5.0;" x1="74" x2="74" y1="81.2969" y2="513.8281"/></g><g><title>OvernachtingController</title><rect fill="transparent" height="432.5313" width="8" x="589.0054" y="81.2969"/><line style="stroke:#181818;stroke-width:0.5;stroke-dasharray:5.0,5.0;" x1="593.0015" x2="593.0015" y1="81.2969" y2="513.8281"/></g><g><title>OvernachtingService</title><rect fill="transparent" height="432.5313" width="8" x="1107.4561" y="81.2969"/><line style="stroke:#181818;stroke-width:0.5;stroke-dasharray:5.0,5.0;" x1="1111.168" x2="1111.168" y1="81.2969" y2="513.8281"/></g><g><title>OvernachtingAdapter</title><rect fill="transparent" height="432.5313" width="8" x="1625.9067" y="81.2969"/><line style="stroke:#181818;stroke-width:0.5;stroke-dasharray:5.0,5.0;" x1="1629.5952" x2="1629.5952" y1="81.2969" y2="513.8281"/></g><text fill="#000000" font-family="sans-serif" font-size="14" lengthAdjust="spacing" textLength="63.1094" x="40" y="77.9951">Frontend</text><ellipse cx="74.5547" cy="13.5" fill="#E2E2F0" rx="8" ry="8" style="stroke:#181818;stroke-width:0.5;"/><path d="M74.5547,21.5 L74.5547,48.5 M61.5547,29.5 L87.5547,29.5 M74.5547,48.5 L61.5547,63.5 M74.5547,48.5 L87.5547,63.5 " fill="transparent" style="stroke:#181818;stroke-width:0.5;"/><text fill="#000000" font-family="sans-serif" font-size="14" lengthAdjust="spacing" textLength="63.1094" x="40" y="525.8232">Frontend</text><ellipse cx="74.5547" cy="537.625" fill="#E2E2F0" rx="8" ry="8" style="stroke:#181818;stroke-width:0.5;"/><path d="M74.5547,545.625 L74.5547,572.625 M61.5547,553.625 L87.5547,553.625 M74.5547,572.625 L61.5547,587.625 M74.5547,572.625 L87.5547,587.625 " fill="transparent" style="stroke:#181818;stroke-width:0.5;"/><rect fill="#E2E2F0" height="30.2969" rx="2.5" ry="2.5" style="stroke:#181818;stroke-width:0.5;" width="178.0078" x="504.0015" y="50"/><text fill="#000000" font-family="sans-serif" font-size="14" lengthAdjust="spacing" textLength="164.0078" x="511.0015" y="69.9951">OvernachtingController</text><rect fill="#E2E2F0" height="30.2969" rx="2.5" ry="2.5" style="stroke:#181818;stroke-width:0.5;" width="178.0078" x="504.0015" y="512.8281"/><text fill="#000000" font-family="sans-serif" font-size="14" lengthAdjust="spacing" textLength="164.0078" x="511.0015" y="532.8232">OvernachtingController</text><rect fill="#E2E2F0" height="30.2969" rx="2.5" ry="2.5" style="stroke:#181818;stroke-width:0.5;" width="160.5762" x="1031.168" y="50"/><text fill="#000000" font-family="sans-serif" font-size="14" lengthAdjust="spacing" textLength="146.5762" x="1038.168" y="69.9951">OvernachtingService</text><rect fill="#E2E2F0" height="30.2969" rx="2.5" ry="2.5" style="stroke:#181818;stroke-width:0.5;" width="160.5762" x="1031.168" y="512.8281"/><text fill="#000000" font-family="sans-serif" font-size="14" lengthAdjust="spacing" textLength="146.5762" x="1038.168" y="532.8232">OvernachtingService</text><rect fill="#E2E2F0" height="30.2969" rx="2.5" ry="2.5" style="stroke:#181818;stroke-width:0.5;" width="164.623" x="1547.5952" y="50"/><text fill="#000000" font-family="sans-serif" font-size="14" lengthAdjust="spacing" textLength="150.623" x="1554.5952" y="69.9951">OvernachtingAdapter</text><rect fill="#E2E2F0" height="30.2969" rx="2.5" ry="2.5" style="stroke:#181818;stroke-width:0.5;" width="164.623" x="1547.5952" y="512.8281"/><text fill="#000000" font-family="sans-serif" font-size="14" lengthAdjust="spacing" textLength="150.623" x="1554.5952" y="532.8232">OvernachtingAdapter</text><polygon fill="#181818" points="581.0054,108.4297,591.0054,112.4297,581.0054,116.4297,585.0054,112.4297" style="stroke:#181818;stroke-width:1;"/><line style="stroke:#181818;stroke-width:1;" x1="74.5547" x2="587.0054" y1="112.4297" y2="112.4297"/><text fill="#000000" font-family="sans-serif" font-size="13" lengthAdjust="spacing" textLength="494.4507" x="81.5547" y="107.3638">zoekOvernachtingen(arrivalDate, departureDate, roomQty, guestQty, bbox)</text><polygon fill="#181818" points="1099.4561,137.5625,1109.4561,141.5625,1099.4561,145.5625,1103.4561,141.5625" style="stroke:#181818;stroke-width:1;"/><line style="stroke:#181818;stroke-width:1;" x1="593.0054" x2="1105.4561" y1="141.5625" y2="141.5625"/><text fill="#000000" font-family="sans-serif" font-size="13" lengthAdjust="spacing" textLength="494.4507" x="600.0054" y="136.4966">zoekOvernachtingen(arrivalDate, departureDate, roomQty, guestQty, bbox)</text><polygon fill="#181818" points="1617.9067,166.6953,1627.9067,170.6953,1617.9067,174.6953,1621.9067,170.6953" style="stroke:#181818;stroke-width:1;"/><line style="stroke:#181818;stroke-width:1;" x1="1111.4561" x2="1623.9067" y1="170.6953" y2="170.6953"/><text fill="#000000" font-family="sans-serif" font-size="13" lengthAdjust="spacing" textLength="494.4507" x="1118.4561" y="165.6294">zoekOvernachtingen(arrivalDate, departureDate, roomQty, guestQty, bbox)</text><path d="M10,185.6953 L74.4429,185.6953 L74.4429,192.8281 L64.4429,202.8281 L10,202.8281 L10,185.6953 " fill="#EEEEEE" style="stroke:#000000;stroke-width:1.5;"/><rect fill="transparent" height="311.1328" style="stroke:#000000;stroke-width:1.5;" width="2178.9678" x="10" y="185.6953"/><text fill="#000000" font-family="sans-serif" font-size="13" font-weight="bold" lengthAdjust="spacing" textLength="19.4429" x="25" y="198.7622">alt</text><text fill="#000000" font-family="sans-serif" font-size="11" font-weight="bold" lengthAdjust="spacing" textLength="121.4941" x="89.4429" y="197.9058">[incorrecte api call]</text><path d="M20,209.8281 L96.624,209.8281 L96.624,216.9609 L86.624,226.9609 L20,226.9609 L20,209.8281 " fill="#EEEEEE" style="stroke:#000000;stroke-width:1.5;"/><rect fill="transparent" height="280" style="stroke:#000000;stroke-width:1.5;" width="2158.9678" x="20" y="209.8281"/><text fill="#000000" font-family="sans-serif" font-size="13" font-weight="bold" lengthAdjust="spacing" textLength="31.624" x="35" y="222.895">loop</text><text fill="#000000" font-family="sans-serif" font-size="11" font-weight="bold" lengthAdjust="spacing" textLength="114.9307" x="111.624" y="222.0386">[retry mechanism]</text><line style="stroke:#181818;stroke-width:1;" x1="1629.9067" x2="1671.9067" y1="248.0938" y2="248.0938"/><line style="stroke:#181818;stroke-width:1;" x1="1671.9067" x2="1671.9067" y1="248.0938" y2="261.0938"/><line style="stroke:#181818;stroke-width:1;" x1="1630.9067" x2="1671.9067" y1="261.0938" y2="261.0938"/><polygon fill="#181818" points="1640.9067,257.0938,1630.9067,261.0938,1640.9067,265.0938,1636.9067,261.0938" style="stroke:#181818;stroke-width:1;"/><text fill="#000000" font-family="sans-serif" font-size="13" lengthAdjust="spacing" textLength="530.061" x="1636.9067" y="243.0278">retry zoekOvernachtingen(arrivalDate, departureDate, roomQty, guestQty, bbox)</text><path d="M30,276.0938 L94.4429,276.0938 L94.4429,283.2266 L84.4429,293.2266 L30,293.2266 L30,276.0938 " fill="#EEEEEE" style="stroke:#000000;stroke-width:1.5;"/><rect fill="transparent" height="206.7344" style="stroke:#000000;stroke-width:1.5;" width="1692.2183" x="30" y="276.0938"/><text fill="#000000" font-family="sans-serif" font-size="13" font-weight="bold" lengthAdjust="spacing" textLength="19.4429" x="45" y="289.1606">alt</text><text fill="#000000" font-family="sans-serif" font-size="11" font-weight="bold" lengthAdjust="spacing" textLength="126.7793" x="109.4429" y="288.3042">[success after retry]</text><polygon fill="#181818" points="1122.4561,310.3594,1112.4561,314.3594,1122.4561,318.3594,1118.4561,314.3594" style="stroke:#181818;stroke-width:1;"/><line style="stroke:#181818;stroke-width:1;" x1="1116.4561" x2="1628.9067" y1="314.3594" y2="314.3594"/><text fill="#000000" font-family="sans-serif" font-size="13" lengthAdjust="spacing" textLength="182.9775" x="1128.4561" y="309.2935">return(List&lt;Overnachting&gt;)</text><polygon fill="#181818" points="604.0054,339.4922,594.0054,343.4922,604.0054,347.4922,600.0054,343.4922" style="stroke:#181818;stroke-width:1;"/><line style="stroke:#181818;stroke-width:1;" x1="598.0054" x2="1110.4561" y1="343.4922" y2="343.4922"/><text fill="#000000" font-family="sans-serif" font-size="13" lengthAdjust="spacing" textLength="182.9775" x="610.0054" y="338.4263">return(List&lt;Overnachting&gt;)</text><polygon fill="#181818" points="85.5547,368.625,75.5547,372.625,85.5547,376.625,81.5547,372.625" style="stroke:#181818;stroke-width:1;"/><line style="stroke:#181818;stroke-width:1;" x1="79.5547" x2="592.0054" y1="372.625" y2="372.625"/><text fill="#000000" font-family="sans-serif" font-size="13" lengthAdjust="spacing" textLength="182.9775" x="91.5547" y="367.5591">return(List&lt;Overnachting&gt;)</text><line style="stroke:#000000;stroke-width:1;stroke-dasharray:2.0,2.0;" x1="30" x2="1722.2183" y1="381.625" y2="381.625"/><text fill="#000000" font-family="sans-serif" font-size="11" font-weight="bold" lengthAdjust="spacing" textLength="163.8936" x="35" y="391.8354">[circuitbreaker gaat open]</text><polygon fill="#181818" points="1122.4561,412.5625,1112.4561,416.5625,1122.4561,420.5625,1118.4561,416.5625" style="stroke:#181818;stroke-width:1;"/><line style="stroke:#181818;stroke-width:1;" x1="1116.4561" x2="1628.9067" y1="416.5625" y2="416.5625"/><text fill="#000000" font-family="sans-serif" font-size="13" lengthAdjust="spacing" textLength="139.3691" x="1128.4561" y="411.4966">return(errorMessage)</text><polygon fill="#181818" points="604.0054,441.6953,594.0054,445.6953,604.0054,449.6953,600.0054,445.6953" style="stroke:#181818;stroke-width:1;"/><line style="stroke:#181818;stroke-width:1;" x1="598.0054" x2="1110.4561" y1="445.6953" y2="445.6953"/><text fill="#000000" font-family="sans-serif" font-size="13" lengthAdjust="spacing" textLength="139.3691" x="610.0054" y="440.6294">return(errorMessage)</text><polygon fill="#181818" points="85.5547,470.8281,75.5547,474.8281,85.5547,478.8281,81.5547,474.8281" style="stroke:#181818;stroke-width:1;"/><line style="stroke:#181818;stroke-width:1;" x1="79.5547" x2="592.0054" y1="474.8281" y2="474.8281"/><text fill="#000000" font-family="sans-serif" font-size="13" lengthAdjust="spacing" textLength="139.3691" x="91.5547" y="469.7622">return(errorMessage)</text><!--SRC=[jPHXIyCm48Q_zrVSnmtc7n0PYE8dPOY_u9gUNLYM2vThSVvwqwsTsrYmQ2s49bpoFYzlZg1H5dWIzag-AWAAMcC3UeLLI-BHhDNw-Y7LXPqZoMvv8scjeMpzliAWwJmK0mrkbXa8tC8dq-QqI7w68hP5zuXA2wYe0pL2XwKmRrzrju2weQZxMLdonxp802xGlVb_uWxg5z0-aGcXw1IiDon2HWamM33eN06EEO2GoWwsPDReRTmMq7_NF6Mj7aIcCZnOw8p7nXYA4V2z8-qvn_f8cz_Nc8utucVFDkhTwOxbFAkPkQMphlo5x7dJ7Nj_b1QvI62icCPgAOIR958ZAd0W_-TmI8Jb9KMEDKqIopZ1dmAvhjAzJiC_ZIy0]--></g></svg>