<svg xmlns="http://www.w3.org/2000/svg" xmlns:xlink="http://www.w3.org/1999/xlink" contentStyleType="text/css" data-diagram-type="SEQUENCE" height="706px" preserveAspectRatio="none" style="width:1391px;height:706px;background:#FFFFFF;" version="1.1" viewBox="0 0 1391 706" width="1391px" zoomAndPan="magnify"><defs/><g><g><title>Frontend</title><rect fill="transparent" height="544.3906" width="8" x="35.5547" y="81.2969"/><line style="stroke:#181818;stroke-width:0.5;stroke-dasharray:5.0,5.0;" x1="39" x2="39" y1="81.2969" y2="625.6875"/></g><g><title>VluchtController</title><rect fill="transparent" height="544.3906" width="8" x="344.7676" y="81.2969"/><line style="stroke:#181818;stroke-width:0.5;stroke-dasharray:5.0,5.0;" x1="347.9814" x2="347.9814" y1="81.2969" y2="625.6875"/></g><g><title>VluchtService</title><rect fill="transparent" height="544.3906" width="8" x="653.9805" y="81.2969"/><line style="stroke:#181818;stroke-width:0.5;stroke-dasharray:5.0,5.0;" x1="657.9102" x2="657.9102" y1="81.2969" y2="625.6875"/></g><g><title>ExternVluchtAdapterFactory</title><rect fill="transparent" height="544.3906" width="8" x="831.416" y="81.2969"/><line style="stroke:#181818;stroke-width:0.5;stroke-dasharray:5.0,5.0;" x1="835.1787" x2="835.1787" y1="81.2969" y2="625.6875"/></g><g><title>IExternVluchtAdapter</title><rect fill="transparent" height="544.3906" width="8" x="1029.7427" y="81.2969"/><line style="stroke:#181818;stroke-width:0.5;stroke-dasharray:5.0,5.0;" x1="1033.6533" x2="1033.6533" y1="81.2969" y2="625.6875"/></g><g><title>KLMAdapter</title><rect fill="transparent" height="544.3906" width="8" x="1171.2559" y="81.2969"/><line style="stroke:#181818;stroke-width:0.5;stroke-dasharray:5.0,5.0;" x1="1174.832" x2="1174.832" y1="81.2969" y2="625.6875"/></g><g><title>SkyscannerAdapter</title><rect fill="transparent" height="544.3906" width="8" x="1306.0562" y="81.2969"/><line style="stroke:#181818;stroke-width:0.5;stroke-dasharray:5.0,5.0;" x1="1309.6797" x2="1309.6797" y1="81.2969" y2="625.6875"/></g><text fill="#000000" font-family="sans-serif" font-size="14" lengthAdjust="spacing" textLength="63.1094" x="5" y="77.9951">Frontend</text><ellipse cx="39.5547" cy="13.5" fill="#E2E2F0" rx="8" ry="8" style="stroke:#181818;stroke-width:0.5;"/><path d="M39.5547,21.5 L39.5547,48.5 M26.5547,29.5 L52.5547,29.5 M39.5547,48.5 L26.5547,63.5 M39.5547,48.5 L52.5547,63.5 " fill="transparent" style="stroke:#181818;stroke-width:0.5;"/><text fill="#000000" font-family="sans-serif" font-size="14" lengthAdjust="spacing" textLength="63.1094" x="5" y="637.6826">Frontend</text><ellipse cx="39.5547" cy="649.4844" fill="#E2E2F0" rx="8" ry="8" style="stroke:#181818;stroke-width:0.5;"/><path d="M39.5547,657.4844 L39.5547,684.4844 M26.5547,665.4844 L52.5547,665.4844 M39.5547,684.4844 L26.5547,699.4844 M39.5547,684.4844 L52.5547,699.4844 " fill="transparent" style="stroke:#181818;stroke-width:0.5;"/><rect fill="#E2E2F0" height="30.2969" rx="2.5" ry="2.5" style="stroke:#181818;stroke-width:0.5;" width="127.5723" x="284.9814" y="50"/><text fill="#000000" font-family="sans-serif" font-size="14" lengthAdjust="spacing" textLength="113.5723" x="291.9814" y="69.9951">VluchtController</text><rect fill="#E2E2F0" height="30.2969" rx="2.5" ry="2.5" style="stroke:#181818;stroke-width:0.5;" width="127.5723" x="284.9814" y="624.6875"/><text fill="#000000" font-family="sans-serif" font-size="14" lengthAdjust="spacing" textLength="113.5723" x="291.9814" y="644.6826">VluchtController</text><rect fill="#E2E2F0" height="30.2969" rx="2.5" ry="2.5" style="stroke:#181818;stroke-width:0.5;" width="110.1406" x="602.9102" y="50"/><text fill="#000000" font-family="sans-serif" font-size="14" lengthAdjust="spacing" textLength="96.1406" x="609.9102" y="69.9951">VluchtService</text><rect fill="#E2E2F0" height="30.2969" rx="2.5" ry="2.5" style="stroke:#181818;stroke-width:0.5;" width="110.1406" x="602.9102" y="624.6875"/><text fill="#000000" font-family="sans-serif" font-size="14" lengthAdjust="spacing" textLength="96.1406" x="609.9102" y="644.6826">VluchtService</text><rect fill="#E2E2F0" height="30.2969" rx="2.5" ry="2.5" style="stroke:#181818;stroke-width:0.5;" width="212.4746" x="729.1787" y="50"/><text fill="#000000" font-family="sans-serif" font-size="14" lengthAdjust="spacing" textLength="198.4746" x="736.1787" y="69.9951">ExternVluchtAdapterFactory</text><rect fill="#E2E2F0" height="30.2969" rx="2.5" ry="2.5" style="stroke:#181818;stroke-width:0.5;" width="212.4746" x="729.1787" y="624.6875"/><text fill="#000000" font-family="sans-serif" font-size="14" lengthAdjust="spacing" textLength="198.4746" x="736.1787" y="644.6826">ExternVluchtAdapterFactory</text><rect fill="#E2E2F0" height="30.2969" rx="2.5" ry="2.5" style="stroke:#181818;stroke-width:0.5;" width="164.1787" x="951.6533" y="50"/><text fill="#000000" font-family="sans-serif" font-size="14" lengthAdjust="spacing" textLength="150.1787" x="958.6533" y="69.9951">IExternVluchtAdapter</text><rect fill="#E2E2F0" height="30.2969" rx="2.5" ry="2.5" style="stroke:#181818;stroke-width:0.5;" width="164.1787" x="951.6533" y="624.6875"/><text fill="#000000" font-family="sans-serif" font-size="14" lengthAdjust="spacing" textLength="150.1787" x="958.6533" y="644.6826">IExternVluchtAdapter</text><rect fill="#E2E2F0" height="30.2969" rx="2.5" ry="2.5" style="stroke:#181818;stroke-width:0.5;" width="98.8477" x="1125.832" y="50"/><text fill="#000000" font-family="sans-serif" font-size="14" lengthAdjust="spacing" textLength="84.8477" x="1132.832" y="69.9951">KLMAdapter</text><rect fill="#E2E2F0" height="30.2969" rx="2.5" ry="2.5" style="stroke:#181818;stroke-width:0.5;" width="98.8477" x="1125.832" y="624.6875"/><text fill="#000000" font-family="sans-serif" font-size="14" lengthAdjust="spacing" textLength="84.8477" x="1132.832" y="644.6826">KLMAdapter</text><rect fill="#E2E2F0" height="30.2969" rx="2.5" ry="2.5" style="stroke:#181818;stroke-width:0.5;" width="150.7529" x="1234.6797" y="50"/><text fill="#000000" font-family="sans-serif" font-size="14" lengthAdjust="spacing" textLength="136.7529" x="1241.6797" y="69.9951">SkyscannerAdapter</text><rect fill="#E2E2F0" height="30.2969" rx="2.5" ry="2.5" style="stroke:#181818;stroke-width:0.5;" width="150.7529" x="1234.6797" y="624.6875"/><text fill="#000000" font-family="sans-serif" font-size="14" lengthAdjust="spacing" textLength="136.7529" x="1241.6797" y="644.6826">SkyscannerAdapter</text><polygon fill="#181818" points="336.7676,108.4297,346.7676,112.4297,336.7676,116.4297,340.7676,112.4297" style="stroke:#181818;stroke-width:1;"/><line style="stroke:#181818;stroke-width:1;" x1="39.5547" x2="342.7676" y1="112.4297" y2="112.4297"/><text fill="#000000" font-family="sans-serif" font-size="13" lengthAdjust="spacing" textLength="285.2129" x="46.5547" y="107.3638">zoekVluchten(vertrek, bestemming, datum)</text><polygon fill="#181818" points="645.9805,137.5625,655.9805,141.5625,645.9805,145.5625,649.9805,141.5625" style="stroke:#181818;stroke-width:1;"/><line style="stroke:#181818;stroke-width:1;" x1="348.7676" x2="651.9805" y1="141.5625" y2="141.5625"/><text fill="#000000" font-family="sans-serif" font-size="13" lengthAdjust="spacing" textLength="285.2129" x="355.7676" y="136.4966">zoekVluchten(vertrek, bestemming, datum)</text><polygon fill="#181818" points="1163.2559,166.6953,1173.2559,170.6953,1163.2559,174.6953,1167.2559,170.6953" style="stroke:#181818;stroke-width:1;"/><line style="stroke:#181818;stroke-width:1;" x1="657.9805" x2="1169.2559" y1="170.6953" y2="170.6953"/><text fill="#000000" font-family="sans-serif" font-size="13" lengthAdjust="spacing" textLength="285.2129" x="664.9805" y="165.6294">zoekVluchten(vertrek, bestemming, datum)</text><polygon fill="#181818" points="668.9805,195.8281,658.9805,199.8281,668.9805,203.8281,664.9805,199.8281" style="stroke:#181818;stroke-width:1;"/><line style="stroke:#181818;stroke-width:1;" x1="662.9805" x2="1174.2559" y1="199.8281" y2="199.8281"/><text fill="#000000" font-family="sans-serif" font-size="13" lengthAdjust="spacing" textLength="156.73" x="674.9805" y="194.7622">return lijst van Vluchten</text><polygon fill="#181818" points="1298.0562,224.9609,1308.0562,228.9609,1298.0562,232.9609,1302.0562,228.9609" style="stroke:#181818;stroke-width:1;"/><line style="stroke:#181818;stroke-width:1;" x1="657.9805" x2="1304.0562" y1="228.9609" y2="228.9609"/><text fill="#000000" font-family="sans-serif" font-size="13" lengthAdjust="spacing" textLength="285.2129" x="664.9805" y="223.895">zoekVluchten(vertrek, bestemming, datum)</text><polygon fill="#181818" points="668.9805,254.0938,658.9805,258.0938,668.9805,262.0938,664.9805,258.0938" style="stroke:#181818;stroke-width:1;"/><line style="stroke:#181818;stroke-width:1;" x1="662.9805" x2="1309.0562" y1="258.0938" y2="258.0938"/><text fill="#000000" font-family="sans-serif" font-size="13" lengthAdjust="spacing" textLength="156.73" x="674.9805" y="253.0278">return lijst van Vluchten</text><polygon fill="#181818" points="359.7676,283.2266,349.7676,287.2266,359.7676,291.2266,355.7676,287.2266" style="stroke:#181818;stroke-width:1;"/><line style="stroke:#181818;stroke-width:1;" x1="353.7676" x2="656.9805" y1="287.2266" y2="287.2266"/><text fill="#000000" font-family="sans-serif" font-size="13" lengthAdjust="spacing" textLength="156.73" x="365.7676" y="282.1606">return lijst van Vluchten</text><polygon fill="#181818" points="50.5547,312.3594,40.5547,316.3594,50.5547,320.3594,46.5547,316.3594" style="stroke:#181818;stroke-width:1;"/><line style="stroke:#181818;stroke-width:1;" x1="44.5547" x2="347.7676" y1="316.3594" y2="316.3594"/><text fill="#000000" font-family="sans-serif" font-size="13" lengthAdjust="spacing" textLength="156.73" x="56.5547" y="311.2935">return lijst van Vluchten</text><polygon fill="#181818" points="336.7676,341.4922,346.7676,345.4922,336.7676,349.4922,340.7676,345.4922" style="stroke:#181818;stroke-width:1;"/><line style="stroke:#181818;stroke-width:1;" x1="39.5547" x2="342.7676" y1="345.4922" y2="345.4922"/><text fill="#000000" font-family="sans-serif" font-size="13" lengthAdjust="spacing" textLength="184.9136" x="46.5547" y="340.4263">boekVlucht(BoekVluchtDTO)</text><polygon fill="#181818" points="645.9805,370.625,655.9805,374.625,645.9805,378.625,649.9805,374.625" style="stroke:#181818;stroke-width:1;"/><line style="stroke:#181818;stroke-width:1;" x1="348.7676" x2="651.9805" y1="374.625" y2="374.625"/><text fill="#000000" font-family="sans-serif" font-size="13" lengthAdjust="spacing" textLength="196.6187" x="355.7676" y="369.5591">boekVlucht(vlucht, username)</text><polygon fill="#181818" points="823.416,399.7578,833.416,403.7578,823.416,407.7578,827.416,403.7578" style="stroke:#181818;stroke-width:1;"/><line style="stroke:#181818;stroke-width:1;" x1="657.9805" x2="829.416" y1="403.7578" y2="403.7578"/><text fill="#000000" font-family="sans-serif" font-size="13" lengthAdjust="spacing" textLength="103.124" x="664.9805" y="398.6919">getAdapter(api)</text><polygon fill="#181818" points="1021.7427,428.8906,1031.7427,432.8906,1021.7427,436.8906,1025.7427,432.8906" style="stroke:#181818;stroke-width:1;"/><line style="stroke:#181818;stroke-width:1;" x1="835.416" x2="1027.7427" y1="432.8906" y2="432.8906"/><text fill="#000000" font-family="sans-serif" font-size="13" lengthAdjust="spacing" textLength="137.2236" x="842.416" y="427.8247">haal alle adapters op</text><polygon fill="#181818" points="846.416,458.0234,836.416,462.0234,846.416,466.0234,842.416,462.0234" style="stroke:#181818;stroke-width:1;"/><line style="stroke:#181818;stroke-width:1;" x1="840.416" x2="1032.7427" y1="462.0234" y2="462.0234"/><text fill="#000000" font-family="sans-serif" font-size="13" lengthAdjust="spacing" textLength="158.7739" x="852.416" y="456.9575">return lijst met adapters</text><polygon fill="#181818" points="668.9805,487.1563,658.9805,491.1563,668.9805,495.1563,664.9805,491.1563" style="stroke:#181818;stroke-width:1;"/><line style="stroke:#181818;stroke-width:1;" x1="662.9805" x2="834.416" y1="491.1563" y2="491.1563"/><text fill="#000000" font-family="sans-serif" font-size="13" lengthAdjust="spacing" textLength="153.4355" x="674.9805" y="486.0903">return correcte adapter</text><polygon fill="#181818" points="1163.2559,516.2891,1173.2559,520.2891,1163.2559,524.2891,1167.2559,520.2891" style="stroke:#181818;stroke-width:1;"/><line style="stroke:#181818;stroke-width:1;" x1="657.9805" x2="1169.2559" y1="520.2891" y2="520.2891"/><text fill="#000000" font-family="sans-serif" font-size="13" lengthAdjust="spacing" textLength="123.1318" x="664.9805" y="515.2231">boekVlucht(vlucht)</text><polygon fill="#181818" points="668.9805,545.4219,658.9805,549.4219,668.9805,553.4219,664.9805,549.4219" style="stroke:#181818;stroke-width:1;"/><line style="stroke:#181818;stroke-width:1;" x1="662.9805" x2="1174.2559" y1="549.4219" y2="549.4219"/><text fill="#000000" font-family="sans-serif" font-size="13" lengthAdjust="spacing" textLength="170.187" x="674.9805" y="544.356">response (success/failure)</text><polygon fill="#181818" points="359.7676,574.5547,349.7676,578.5547,359.7676,582.5547,355.7676,578.5547" style="stroke:#181818;stroke-width:1;"/><line style="stroke:#181818;stroke-width:1;" x1="353.7676" x2="656.9805" y1="578.5547" y2="578.5547"/><text fill="#000000" font-family="sans-serif" font-size="13" lengthAdjust="spacing" textLength="170.187" x="365.7676" y="573.4888">response (success/failure)</text><polygon fill="#181818" points="50.5547,603.6875,40.5547,607.6875,50.5547,611.6875,46.5547,607.6875" style="stroke:#181818;stroke-width:1;"/><line style="stroke:#181818;stroke-width:1;" x1="44.5547" x2="347.7676" y1="607.6875" y2="607.6875"/><text fill="#000000" font-family="sans-serif" font-size="13" lengthAdjust="spacing" textLength="170.187" x="56.5547" y="602.6216">response (success/failure)</text><!--SRC=[fLDDJyCm3BttL_ZOIKFSEI3nDGa1uZ34tKlD5jecbUDMZ5zFO3IiQhfiujJKzdjvZfzHYMLOi3L2fiWQPD5ADsW4NgjMRUJ6PzXM5N4akIJkjA91vkv3YCqkVrLWu_yM-7tBTb1s7waR53myFiN2otBh51f3t6UpNZsSNOv4mmLyMYftOJ9vHonCvHnMv8JgMflr70gKjfvb8spW- -tpTB8Uw9d- -Zc5PWyLKSCaBHkezBiJwD10ppc-VlHkfwWOW_yd9ZAb57eubZ3oGy2KCLQX_Vmw76zVdezpmXww-_dCeNNUqLXJPFhJM-6frjJ7ScpqB3jGxAbYc-D9DeWLe5SBk8ivi4qMBKxf6JnfJH8O4yec7A4iCoa9mXAxCNhO6IJNm3NME8BSjKgHS-TlgAkMOuE8MYy1F-2zAUGN]--></g></svg>