<svg xmlns="http://www.w3.org/2000/svg" xmlns:xlink="http://www.w3.org/1999/xlink" contentStyleType="text/css" data-diagram-type="CLASS" height="619px" preserveAspectRatio="none" style="width:1872px;height:619px;background:#FFFFFF;" version="1.1" viewBox="0 0 1872 619" width="1872px" zoomAndPan="magnify"><title>Klassediagram - Activiteit &amp; Accommodatie (Strategy Pattern)</title><defs/><g><text fill="#000000" font-family="sans-serif" font-size="14" font-weight="bold" lengthAdjust="spacing" textLength="492.9941" x="682.5029" y="22.9951">Klassediagram - Activiteit &amp; Accommodatie (Strategy Pattern)</text><!--cluster Strategy--><g class="cluster" data-entity="Strategy" data-source-line="3" data-uid="ent0002" id="cluster_Strategy"><path d="M887.5,456.4969 L956.9619,456.4969 A3.75,3.75 0 0 1 959.4619,458.9969 L966.4619,478.7938 L1154.5,478.7938 A2.5,2.5 0 0 1 1157,481.2938 L1157,577.5669 A2.5,2.5 0 0 1 1154.5,580.0669 L887.5,580.0669 A2.5,2.5 0 0 1 885,577.5669 L885,458.9969 A2.5,2.5 0 0 1 887.5,456.4969" fill="none" style="stroke:#000000;stroke-width:1.5;"/><line style="stroke:#000000;stroke-width:1.5;" x1="885" x2="966.4619" y1="478.7938" y2="478.7938"/><text fill="#000000" font-family="sans-serif" font-size="14" font-weight="bold" lengthAdjust="spacing" textLength="68.4619" x="889" y="471.492">Strategy</text></g><!--cluster Accommodatie--><g class="cluster" data-entity="Accommodatie" data-source-line="9" data-uid="ent0004" id="cluster_Accommodatie"><path d="M8.5,43.2969 L125.7998,43.2969 A3.75,3.75 0 0 1 128.2998,45.7969 L135.2998,65.5938 L858.5,65.5938 A2.5,2.5 0 0 1 861,68.0938 L861,610.1569 A2.5,2.5 0 0 1 858.5,612.6569 L8.5,612.6569 A2.5,2.5 0 0 1 6,610.1569 L6,45.7969 A2.5,2.5 0 0 1 8.5,43.2969" fill="none" style="stroke:#000000;stroke-width:1.5;"/><line style="stroke:#000000;stroke-width:1.5;" x1="6" x2="135.2998" y1="65.5938" y2="65.5938"/><text fill="#000000" font-family="sans-serif" font-size="14" font-weight="bold" lengthAdjust="spacing" textLength="116.2998" x="10" y="58.292">Accommodatie</text></g><!--cluster Activiteit--><g class="cluster" data-entity="Activiteit" data-source-line="52" data-uid="ent0016" id="cluster_Activiteit"><path d="M1183.5,43.2969 L1256.7285,43.2969 A3.75,3.75 0 0 1 1259.2285,45.7969 L1266.2285,65.5938 L1862.5,65.5938 A2.5,2.5 0 0 1 1865,68.0938 L1865,610.1569 A2.5,2.5 0 0 1 1862.5,612.6569 L1183.5,612.6569 A2.5,2.5 0 0 1 1181,610.1569 L1181,45.7969 A2.5,2.5 0 0 1 1183.5,43.2969" fill="none" style="stroke:#000000;stroke-width:1.5;"/><line style="stroke:#000000;stroke-width:1.5;" x1="1181" x2="1266.2285" y1="65.5938" y2="65.5938"/><text fill="#000000" font-family="sans-serif" font-size="14" font-weight="bold" lengthAdjust="spacing" textLength="72.2285" x="1185" y="58.292">Activiteit</text></g><!--class BoekingStrategy--><g class="entity" data-entity="BoekingStrategy" data-source-line="4" data-uid="ent0003" id="entity_BoekingStrategy"><rect fill="#F1F1F1" height="72.5625" rx="2.5" ry="2.5" style="stroke:#181818;stroke-width:0.5;" width="239.2949" x="901.35" y="491.4969"/><ellipse cx="958.4848" cy="511.6297" fill="#B4A7E5" rx="11" ry="11" style="stroke:#181818;stroke-width:1;"/><path d="M954.4066,507.3953 L954.4066,505.2391 L961.7973,505.2391 L961.7973,507.3953 L959.3285,507.3953 L959.3285,515.4734 L961.7973,515.4734 L961.7973,517.6297 L954.4066,517.6297 L954.4066,515.4734 L956.8754,515.4734 L956.8754,507.3953 L954.4066,507.3953 Z " fill="#000000"/><text fill="#000000" font-family="sans-serif" font-size="12" font-style="italic" lengthAdjust="spacing" textLength="64.7344" x="1004.8803" y="507.6355">&#171;strategy&#187;</text><text fill="#000000" font-family="sans-serif" font-size="14" font-style="italic" lengthAdjust="spacing" textLength="116.5254" x="978.9848" y="523.4607">BoekingStrategy</text><line style="stroke:#181818;stroke-width:0.5;" x1="902.35" x2="1139.6449" y1="531.7625" y2="531.7625"/><line style="stroke:#181818;stroke-width:0.5;" x1="902.35" x2="1139.6449" y1="539.7625" y2="539.7625"/><ellipse cx="912.35" cy="553.4109" fill="#84BE84" rx="3" ry="3" style="stroke:#038048;stroke-width:1;"/><text fill="#000000" font-family="sans-serif" font-size="14" lengthAdjust="spacing" textLength="213.2949" x="921.35" y="556.7576">verwerkBoeking(boekingData)</text></g><!--class AccommodatieController--><g class="entity" data-entity="AccommodatieController" data-source-line="10" data-uid="ent0005" id="entity_AccommodatieController"><rect fill="#F1F1F1" height="105.1563" rx="2.5" ry="2.5" style="stroke:#181818;stroke-width:0.5;" width="347.3232" x="45.34" y="78.2969"/><ellipse cx="127.7472" cy="98.4297" fill="#ADD1B2" rx="11" ry="11" style="stroke:#181818;stroke-width:1;"/><path d="M130.716,104.0703 Q130.1379,104.3672 129.4972,104.5078 Q128.8566,104.6641 128.1535,104.6641 Q125.6535,104.6641 124.3254,103.0234 Q123.0129,101.3672 123.0129,98.2422 Q123.0129,95.1172 124.3254,93.4609 Q125.6535,91.8047 128.1535,91.8047 Q128.8566,91.8047 129.4972,91.9609 Q130.1535,92.1172 130.716,92.4141 L130.716,95.1328 Q130.091,94.5547 129.4972,94.2891 Q128.9035,94.0078 128.2785,94.0078 Q126.9347,94.0078 126.2472,95.0859 Q125.5597,96.1484 125.5597,98.2422 Q125.5597,100.3359 126.2472,101.4141 Q126.9347,102.4766 128.2785,102.4766 Q128.9035,102.4766 129.4972,102.2109 Q130.091,101.9297 130.716,101.3516 L130.716,104.0703 Z " fill="#000000"/><text fill="#000000" font-family="sans-serif" font-size="12" font-style="italic" lengthAdjust="spacing" textLength="72.1934" x="199.1549" y="94.4355">&#171;controller&#187;</text><text fill="#000000" font-family="sans-serif" font-size="14" lengthAdjust="spacing" textLength="174.0088" x="148.2472" y="110.2607">AccommodatieController</text><line style="stroke:#181818;stroke-width:0.5;" x1="46.34" x2="391.6632" y1="118.5625" y2="118.5625"/><rect fill="none" height="6" style="stroke:#C82930;stroke-width:1;" width="6" x="53.34" y="129.2109"/><text fill="#000000" font-family="sans-serif" font-size="14" lengthAdjust="spacing" textLength="321.3232" x="65.34" y="135.5576">accommodatieService: AccommodatieService</text><line style="stroke:#181818;stroke-width:0.5;" x1="46.34" x2="391.6632" y1="142.8594" y2="142.8594"/><ellipse cx="56.34" cy="156.5078" fill="#84BE84" rx="3" ry="3" style="stroke:#038048;stroke-width:1;"/><text fill="#000000" font-family="sans-serif" font-size="14" lengthAdjust="spacing" textLength="156.9668" x="65.34" y="159.8545">getAccommodatie(s)()</text><ellipse cx="56.34" cy="172.8047" fill="#84BE84" rx="3" ry="3" style="stroke:#038048;stroke-width:1;"/><text fill="#000000" font-family="sans-serif" font-size="14" lengthAdjust="spacing" textLength="149.9326" x="65.34" y="176.1514">boekAccommodatie()</text></g><!--class AccommodatieService--><g class="entity" data-entity="AccommodatieService" data-source-line="16" data-uid="ent0006" id="entity_AccommodatieService"><rect fill="#F1F1F1" height="121.4531" rx="2.5" ry="2.5" style="stroke:#181818;stroke-width:0.5;" width="393.9854" x="22.01" y="260.4569"/><ellipse cx="136.4641" cy="280.5897" fill="#ADD1B2" rx="11" ry="11" style="stroke:#181818;stroke-width:1;"/><path d="M139.4329,286.2303 Q138.8547,286.5272 138.2141,286.6678 Q137.5735,286.8241 136.8704,286.8241 Q134.3704,286.8241 133.0422,285.1834 Q131.7297,283.5272 131.7297,280.4022 Q131.7297,277.2772 133.0422,275.6209 Q134.3704,273.9647 136.8704,273.9647 Q137.5735,273.9647 138.2141,274.1209 Q138.8704,274.2772 139.4329,274.5741 L139.4329,277.2928 Q138.8079,276.7147 138.2141,276.4491 Q137.6204,276.1678 136.9954,276.1678 Q135.6516,276.1678 134.9641,277.2459 Q134.2766,278.3084 134.2766,280.4022 Q134.2766,282.4959 134.9641,283.5741 Q135.6516,284.6366 136.9954,284.6366 Q137.6204,284.6366 138.2141,284.3709 Q138.8079,284.0897 139.4329,283.5116 L139.4329,286.2303 Z " fill="#000000"/><text fill="#000000" font-family="sans-serif" font-size="12" font-style="italic" lengthAdjust="spacing" textLength="57.668" x="206.4187" y="276.5955">&#171;service&#187;</text><text fill="#000000" font-family="sans-serif" font-size="14" lengthAdjust="spacing" textLength="156.5771" x="156.9641" y="292.4207">AccommodatieService</text><line style="stroke:#181818;stroke-width:0.5;" x1="23.01" x2="414.9954" y1="300.7225" y2="300.7225"/><rect fill="none" height="6" style="stroke:#C82930;stroke-width:1;" width="6" x="30.01" y="311.3709"/><text fill="#000000" font-family="sans-serif" font-size="14" lengthAdjust="spacing" textLength="367.9854" x="42.01" y="317.7176">accommodatieRepository: AccommodatieRepository</text><rect fill="none" height="6" style="stroke:#C82930;stroke-width:1;" width="6" x="30.01" y="327.6678"/><text fill="#000000" font-family="sans-serif" font-size="14" lengthAdjust="spacing" textLength="241.5" x="42.01" y="334.0145">boekingStrategy: BoekingStrategy</text><line style="stroke:#181818;stroke-width:0.5;" x1="23.01" x2="414.9954" y1="341.3163" y2="341.3163"/><ellipse cx="33.01" cy="354.9647" fill="#84BE84" rx="3" ry="3" style="stroke:#038048;stroke-width:1;"/><text fill="#000000" font-family="sans-serif" font-size="14" lengthAdjust="spacing" textLength="183.8047" x="42.01" y="358.3114">haalAccommodatie(s)Op()</text><ellipse cx="33.01" cy="371.2616" fill="#84BE84" rx="3" ry="3" style="stroke:#038048;stroke-width:1;"/><text fill="#000000" font-family="sans-serif" font-size="14" lengthAdjust="spacing" textLength="124.0449" x="42.01" y="374.6082">verwerkBoeking()</text></g><!--class AccommodatieRepository--><g class="entity" data-entity="AccommodatieRepository" data-source-line="23" data-uid="ent0007" id="entity_AccommodatieRepository"><rect fill="#F1F1F1" height="121.4531" rx="2.5" ry="2.5" style="stroke:#181818;stroke-width:0.5;" width="299.0684" x="162.47" y="467.0569"/><ellipse cx="217.8001" cy="487.1897" fill="#ADD1B2" rx="11" ry="11" style="stroke:#181818;stroke-width:1;"/><path d="M220.7688,492.8303 Q220.1907,493.1272 219.5501,493.2678 Q218.9095,493.4241 218.2063,493.4241 Q215.7063,493.4241 214.3782,491.7834 Q213.0657,490.1272 213.0657,487.0022 Q213.0657,483.8772 214.3782,482.2209 Q215.7063,480.5647 218.2063,480.5647 Q218.9095,480.5647 219.5501,480.7209 Q220.2063,480.8772 220.7688,481.1741 L220.7688,483.8928 Q220.1438,483.3147 219.5501,483.0491 Q218.9563,482.7678 218.3313,482.7678 Q216.9876,482.7678 216.3001,483.8459 Q215.6126,484.9084 215.6126,487.0022 Q215.6126,489.0959 216.3001,490.1741 Q216.9876,491.2366 218.3313,491.2366 Q218.9563,491.2366 219.5501,490.9709 Q220.1438,490.6897 220.7688,490.1116 L220.7688,492.8303 Z " fill="#000000"/><text fill="#000000" font-family="sans-serif" font-size="12" font-style="italic" lengthAdjust="spacing" textLength="75.627" x="290.4407" y="483.1955">&#171;repository&#187;</text><text fill="#000000" font-family="sans-serif" font-size="14" lengthAdjust="spacing" textLength="179.9082" x="238.3001" y="499.0207">AccommodatieRepository</text><line style="stroke:#181818;stroke-width:0.5;" x1="163.47" x2="460.5384" y1="507.3225" y2="507.3225"/><rect fill="none" height="6" style="stroke:#C82930;stroke-width:1;" width="6" x="170.47" y="517.9709"/><text fill="#000000" font-family="sans-serif" font-size="14" lengthAdjust="spacing" textLength="273.0684" x="182.47" y="524.3176">accommodaties: List&lt;Accommodatie&gt;</text><line style="stroke:#181818;stroke-width:0.5;" x1="163.47" x2="460.5384" y1="531.6194" y2="531.6194"/><ellipse cx="173.47" cy="545.2678" fill="#84BE84" rx="3" ry="3" style="stroke:#038048;stroke-width:1;"/><text fill="#000000" font-family="sans-serif" font-size="14" lengthAdjust="spacing" textLength="147.5332" x="182.47" y="548.6145">save(accommodatie)</text><ellipse cx="173.47" cy="561.5647" fill="#84BE84" rx="3" ry="3" style="stroke:#038048;stroke-width:1;"/><text fill="#000000" font-family="sans-serif" font-size="14" lengthAdjust="spacing" textLength="195.1865" x="182.47" y="564.9114">findById(id): Accommodatie</text><ellipse cx="173.47" cy="577.8616" fill="#84BE84" rx="3" ry="3" style="stroke:#038048;stroke-width:1;"/><text fill="#000000" font-family="sans-serif" font-size="14" lengthAdjust="spacing" textLength="216.7949" x="182.47" y="581.2082">findAll(): List&lt;Accommodatie&gt;</text></g><!--class AirBnbBoekingStrategy--><g class="entity" data-entity="AirBnbBoekingStrategy" data-source-line="30" data-uid="ent0008" id="entity_AirBnbBoekingStrategy"><rect fill="#F1F1F1" height="105.1563" rx="2.5" ry="2.5" style="stroke:#181818;stroke-width:0.5;" width="393.9854" x="451.01" y="268.6069"/><ellipse cx="562.1965" cy="288.7397" fill="#ADD1B2" rx="11" ry="11" style="stroke:#181818;stroke-width:1;"/><path d="M565.1653,294.3803 Q564.5871,294.6772 563.9465,294.8178 Q563.3059,294.9741 562.6028,294.9741 Q560.1028,294.9741 558.7746,293.3334 Q557.4621,291.6772 557.4621,288.5522 Q557.4621,285.4272 558.7746,283.7709 Q560.1028,282.1147 562.6028,282.1147 Q563.3059,282.1147 563.9465,282.2709 Q564.6028,282.4272 565.1653,282.7241 L565.1653,285.4428 Q564.5403,284.8647 563.9465,284.5991 Q563.3528,284.3178 562.7278,284.3178 Q561.384,284.3178 560.6965,285.3959 Q560.009,286.4584 560.009,288.5522 Q560.009,290.6459 560.6965,291.7241 Q561.384,292.7866 562.7278,292.7866 Q563.3528,292.7866 563.9465,292.5209 Q564.5403,292.2397 565.1653,291.6616 L565.1653,294.3803 Z " fill="#000000"/><text fill="#000000" font-family="sans-serif" font-size="12" font-style="italic" lengthAdjust="spacing" textLength="64.7344" x="631.8855" y="284.7455">&#171;strategy&#187;</text><text fill="#000000" font-family="sans-serif" font-size="14" lengthAdjust="spacing" textLength="163.1123" x="582.6965" y="300.5707">AirBnbBoekingStrategy</text><line style="stroke:#181818;stroke-width:0.5;" x1="452.01" x2="843.9954" y1="308.8725" y2="308.8725"/><rect fill="none" height="6" style="stroke:#C82930;stroke-width:1;" width="6" x="459.01" y="319.5209"/><text fill="#000000" font-family="sans-serif" font-size="14" lengthAdjust="spacing" textLength="166.332" x="471.01" y="325.8676">adapter: AirBnbAdapter</text><rect fill="none" height="6" style="stroke:#C82930;stroke-width:1;" width="6" x="459.01" y="335.8178"/><text fill="#000000" font-family="sans-serif" font-size="14" lengthAdjust="spacing" textLength="367.9854" x="471.01" y="342.1645">accommodatieRepository: AccommodatieRepository</text><line style="stroke:#181818;stroke-width:0.5;" x1="452.01" x2="843.9954" y1="349.4663" y2="349.4663"/><ellipse cx="462.01" cy="363.1147" fill="#84BE84" rx="3" ry="3" style="stroke:#038048;stroke-width:1;"/><text fill="#000000" font-family="sans-serif" font-size="14" lengthAdjust="spacing" textLength="213.2949" x="471.01" y="366.4614">verwerkBoeking(boekingData)</text></g><!--class AirBnbAdapter--><g class="entity" data-entity="AirBnbAdapter" data-source-line="36" data-uid="ent0009" id="entity_AirBnbAdapter"><rect fill="#F1F1F1" height="137.75" rx="2.5" ry="2.5" style="stroke:#181818;stroke-width:0.5;" width="239.2949" x="528.35" y="458.9069"/><ellipse cx="592.56" cy="479.0397" fill="#ADD1B2" rx="11" ry="11" style="stroke:#181818;stroke-width:1;"/><path d="M595.5287,484.6803 Q594.9506,484.9772 594.31,485.1178 Q593.6693,485.2741 592.9662,485.2741 Q590.4662,485.2741 589.1381,483.6334 Q587.8256,481.9772 587.8256,478.8522 Q587.8256,475.7272 589.1381,474.0709 Q590.4662,472.4147 592.9662,472.4147 Q593.6693,472.4147 594.31,472.5709 Q594.9662,472.7272 595.5287,473.0241 L595.5287,475.7428 Q594.9037,475.1647 594.31,474.8991 Q593.7162,474.6178 593.0912,474.6178 Q591.7475,474.6178 591.06,475.6959 Q590.3725,476.7584 590.3725,478.8522 Q590.3725,480.9459 591.06,482.0241 Q591.7475,483.0866 593.0912,483.0866 Q593.7162,483.0866 594.31,482.8209 Q594.9037,482.5397 595.5287,481.9616 L595.5287,484.6803 Z " fill="#000000"/><text fill="#000000" font-family="sans-serif" font-size="12" font-style="italic" lengthAdjust="spacing" textLength="61.6465" x="633.4242" y="475.0455">&#171;adapter&#187;</text><text fill="#000000" font-family="sans-serif" font-size="14" lengthAdjust="spacing" textLength="102.375" x="613.06" y="490.8707">AirBnbAdapter</text><line style="stroke:#181818;stroke-width:0.5;" x1="529.35" x2="766.6449" y1="499.1725" y2="499.1725"/><rect fill="none" height="6" style="stroke:#C82930;stroke-width:1;" width="6" x="536.35" y="509.8209"/><text fill="#000000" font-family="sans-serif" font-size="14" lengthAdjust="spacing" textLength="98.3828" x="548.35" y="516.1676">apiKey: String</text><rect fill="none" height="6" style="stroke:#C82930;stroke-width:1;" width="6" x="536.35" y="526.1178"/><text fill="#000000" font-family="sans-serif" font-size="14" lengthAdjust="spacing" textLength="132.918" x="548.35" y="532.4645">endpointUrl: String</text><line style="stroke:#181818;stroke-width:0.5;" x1="529.35" x2="766.6449" y1="539.7663" y2="539.7663"/><ellipse cx="539.35" cy="553.4147" fill="#84BE84" rx="3" ry="3" style="stroke:#038048;stroke-width:1;"/><text fill="#000000" font-family="sans-serif" font-size="14" lengthAdjust="spacing" textLength="147.1709" x="548.35" y="556.7614">haalDataVanAirbnb()</text><ellipse cx="539.35" cy="569.7116" fill="#84BE84" rx="3" ry="3" style="stroke:#038048;stroke-width:1;"/><text fill="#000000" font-family="sans-serif" font-size="14" lengthAdjust="spacing" textLength="192.999" x="548.35" y="573.0582">stuurBoeking(boekingData)</text><ellipse cx="539.35" cy="586.0084" fill="#84BE84" rx="3" ry="3" style="stroke:#038048;stroke-width:1;"/><text fill="#000000" font-family="sans-serif" font-size="14" lengthAdjust="spacing" textLength="213.2949" x="548.35" y="589.3551">verwerkBoeking(boekingData)</text></g><!--class ActiviteitController--><g class="entity" data-entity="ActiviteitController" data-source-line="53" data-uid="ent0017" id="entity_ActiviteitController"><rect fill="#F1F1F1" height="105.1563" rx="2.5" ry="2.5" style="stroke:#181818;stroke-width:0.5;" width="262.2705" x="1219.86" y="78.2969"/><ellipse cx="1281.004" cy="98.4297" fill="#ADD1B2" rx="11" ry="11" style="stroke:#181818;stroke-width:1;"/><path d="M1283.9728,104.0703 Q1283.3947,104.3672 1282.754,104.5078 Q1282.1134,104.6641 1281.4103,104.6641 Q1278.9103,104.6641 1277.5822,103.0234 Q1276.2697,101.3672 1276.2697,98.2422 Q1276.2697,95.1172 1277.5822,93.4609 Q1278.9103,91.8047 1281.4103,91.8047 Q1282.1134,91.8047 1282.754,91.9609 Q1283.4103,92.1172 1283.9728,92.4141 L1283.9728,95.1328 Q1283.3478,94.5547 1282.754,94.2891 Q1282.1603,94.0078 1281.5353,94.0078 Q1280.1915,94.0078 1279.504,95.0859 Q1278.8165,96.1484 1278.8165,98.2422 Q1278.8165,100.3359 1279.504,101.4141 Q1280.1915,102.4766 1281.5353,102.4766 Q1282.1603,102.4766 1282.754,102.2109 Q1283.3478,101.9297 1283.9728,101.3516 L1283.9728,104.0703 Z " fill="#000000"/><text fill="#000000" font-family="sans-serif" font-size="12" font-style="italic" lengthAdjust="spacing" textLength="72.1934" x="1331.1486" y="94.4355">&#171;controller&#187;</text><text fill="#000000" font-family="sans-serif" font-size="14" lengthAdjust="spacing" textLength="131.4824" x="1301.504" y="110.2607">ActiviteitController</text><line style="stroke:#181818;stroke-width:0.5;" x1="1220.86" x2="1481.1305" y1="118.5625" y2="118.5625"/><rect fill="none" height="6" style="stroke:#C82930;stroke-width:1;" width="6" x="1227.86" y="129.2109"/><text fill="#000000" font-family="sans-serif" font-size="14" lengthAdjust="spacing" textLength="236.2705" x="1239.86" y="135.5576">activiteitService: ActiviteitService</text><line style="stroke:#181818;stroke-width:0.5;" x1="1220.86" x2="1481.1305" y1="142.8594" y2="142.8594"/><ellipse cx="1230.86" cy="156.5078" fill="#84BE84" rx="3" ry="3" style="stroke:#038048;stroke-width:1;"/><text fill="#000000" font-family="sans-serif" font-size="14" lengthAdjust="spacing" textLength="124.6328" x="1239.86" y="159.8545">getActiviteit(en)()</text><ellipse cx="1230.86" cy="172.8047" fill="#84BE84" rx="3" ry="3" style="stroke:#038048;stroke-width:1;"/><text fill="#000000" font-family="sans-serif" font-size="14" lengthAdjust="spacing" textLength="107.4063" x="1239.86" y="176.1514">boekActiviteit()</text></g><!--class ActiviteitService--><g class="entity" data-entity="ActiviteitService" data-source-line="59" data-uid="ent0018" id="entity_ActiviteitService"><rect fill="#F1F1F1" height="121.4531" rx="2.5" ry="2.5" style="stroke:#181818;stroke-width:0.5;" width="308.9326" x="1196.53" y="260.4569"/><ellipse cx="1289.7209" cy="280.5897" fill="#ADD1B2" rx="11" ry="11" style="stroke:#181818;stroke-width:1;"/><path d="M1292.6897,286.2303 Q1292.1115,286.5272 1291.4709,286.6678 Q1290.8303,286.8241 1290.1272,286.8241 Q1287.6272,286.8241 1286.299,285.1834 Q1284.9865,283.5272 1284.9865,280.4022 Q1284.9865,277.2772 1286.299,275.6209 Q1287.6272,273.9647 1290.1272,273.9647 Q1290.8303,273.9647 1291.4709,274.1209 Q1292.1272,274.2772 1292.6897,274.5741 L1292.6897,277.2928 Q1292.0647,276.7147 1291.4709,276.4491 Q1290.8772,276.1678 1290.2522,276.1678 Q1288.9084,276.1678 1288.2209,277.2459 Q1287.5334,278.3084 1287.5334,280.4022 Q1287.5334,282.4959 1288.2209,283.5741 Q1288.9084,284.6366 1290.2522,284.6366 Q1290.8772,284.6366 1291.4709,284.3709 Q1292.0647,284.0897 1292.6897,283.5116 L1292.6897,286.2303 Z " fill="#000000"/><text fill="#000000" font-family="sans-serif" font-size="12" font-style="italic" lengthAdjust="spacing" textLength="57.668" x="1338.4123" y="276.5955">&#171;service&#187;</text><text fill="#000000" font-family="sans-serif" font-size="14" lengthAdjust="spacing" textLength="114.0508" x="1310.2209" y="292.4207">ActiviteitService</text><line style="stroke:#181818;stroke-width:0.5;" x1="1197.53" x2="1504.4626" y1="300.7225" y2="300.7225"/><rect fill="none" height="6" style="stroke:#C82930;stroke-width:1;" width="6" x="1204.53" y="311.3709"/><text fill="#000000" font-family="sans-serif" font-size="14" lengthAdjust="spacing" textLength="282.9326" x="1216.53" y="317.7176">activiteitRepository: ActiviteitRepository</text><rect fill="none" height="6" style="stroke:#C82930;stroke-width:1;" width="6" x="1204.53" y="327.6678"/><text fill="#000000" font-family="sans-serif" font-size="14" lengthAdjust="spacing" textLength="241.5" x="1216.53" y="334.0145">boekingStrategy: BoekingStrategy</text><line style="stroke:#181818;stroke-width:0.5;" x1="1197.53" x2="1504.4626" y1="341.3163" y2="341.3163"/><ellipse cx="1207.53" cy="354.9647" fill="#84BE84" rx="3" ry="3" style="stroke:#038048;stroke-width:1;"/><text fill="#000000" font-family="sans-serif" font-size="14" lengthAdjust="spacing" textLength="151.4707" x="1216.53" y="358.3114">haalActiviteit(en)Op()</text><ellipse cx="1207.53" cy="371.2616" fill="#84BE84" rx="3" ry="3" style="stroke:#038048;stroke-width:1;"/><text fill="#000000" font-family="sans-serif" font-size="14" lengthAdjust="spacing" textLength="124.0449" x="1216.53" y="374.6082">verwerkBoeking()</text></g><!--class ActiviteitRepository--><g class="entity" data-entity="ActiviteitRepository" data-source-line="66" data-uid="ent0019" id="entity_ActiviteitRepository"><rect fill="#F1F1F1" height="121.4531" rx="2.5" ry="2.5" style="stroke:#181818;stroke-width:0.5;" width="224.208" x="1295.9" y="467.0569"/><ellipse cx="1335.5718" cy="487.1897" fill="#ADD1B2" rx="11" ry="11" style="stroke:#181818;stroke-width:1;"/><path d="M1338.5405,492.8303 Q1337.9624,493.1272 1337.3218,493.2678 Q1336.6812,493.4241 1335.978,493.4241 Q1333.478,493.4241 1332.1499,491.7834 Q1330.8374,490.1272 1330.8374,487.0022 Q1330.8374,483.8772 1332.1499,482.2209 Q1333.478,480.5647 1335.978,480.5647 Q1336.6812,480.5647 1337.3218,480.7209 Q1337.978,480.8772 1338.5405,481.1741 L1338.5405,483.8928 Q1337.9155,483.3147 1337.3218,483.0491 Q1336.728,482.7678 1336.103,482.7678 Q1334.7593,482.7678 1334.0718,483.8459 Q1333.3843,484.9084 1333.3843,487.0022 Q1333.3843,489.0959 1334.0718,490.1741 Q1334.7593,491.2366 1336.103,491.2366 Q1336.728,491.2366 1337.3218,490.9709 Q1337.9155,490.6897 1338.5405,490.1116 L1338.5405,492.8303 Z " fill="#000000"/><text fill="#000000" font-family="sans-serif" font-size="12" font-style="italic" lengthAdjust="spacing" textLength="75.627" x="1385.9318" y="483.1955">&#171;repository&#187;</text><text fill="#000000" font-family="sans-serif" font-size="14" lengthAdjust="spacing" textLength="137.3818" x="1355.0544" y="499.0207">ActiviteitRepository</text><line style="stroke:#181818;stroke-width:0.5;" x1="1296.9" x2="1519.108" y1="507.3225" y2="507.3225"/><rect fill="none" height="6" style="stroke:#C82930;stroke-width:1;" width="6" x="1303.9" y="517.9709"/><text fill="#000000" font-family="sans-serif" font-size="14" lengthAdjust="spacing" textLength="198.208" x="1315.9" y="524.3176">activiteiten: List&lt;Activiteit&gt;</text><line style="stroke:#181818;stroke-width:0.5;" x1="1296.9" x2="1519.108" y1="531.6194" y2="531.6194"/><ellipse cx="1306.9" cy="545.2678" fill="#84BE84" rx="3" ry="3" style="stroke:#038048;stroke-width:1;"/><text fill="#000000" font-family="sans-serif" font-size="14" lengthAdjust="spacing" textLength="105.0068" x="1315.9" y="548.6145">save(activiteit)</text><ellipse cx="1306.9" cy="561.5647" fill="#84BE84" rx="3" ry="3" style="stroke:#038048;stroke-width:1;"/><text fill="#000000" font-family="sans-serif" font-size="14" lengthAdjust="spacing" textLength="152.6602" x="1315.9" y="564.9114">findById(id): Activiteit</text><ellipse cx="1306.9" cy="577.8616" fill="#84BE84" rx="3" ry="3" style="stroke:#038048;stroke-width:1;"/><text fill="#000000" font-family="sans-serif" font-size="14" lengthAdjust="spacing" textLength="174.2686" x="1315.9" y="581.2082">findAll(): List&lt;Activiteit&gt;</text></g><!--class TripAdvisorBoekingStrategy--><g class="entity" data-entity="TripAdvisorBoekingStrategy" data-source-line="73" data-uid="ent0020" id="entity_TripAdvisorBoekingStrategy"><rect fill="#F1F1F1" height="105.1563" rx="2.5" ry="2.5" style="stroke:#181818;stroke-width:0.5;" width="308.9326" x="1540.53" y="268.6069"/><ellipse cx="1592.8147" cy="288.7397" fill="#ADD1B2" rx="11" ry="11" style="stroke:#181818;stroke-width:1;"/><path d="M1595.7834,294.3803 Q1595.2053,294.6772 1594.5647,294.8178 Q1593.924,294.9741 1593.2209,294.9741 Q1590.7209,294.9741 1589.3928,293.3334 Q1588.0803,291.6772 1588.0803,288.5522 Q1588.0803,285.4272 1589.3928,283.7709 Q1590.7209,282.1147 1593.2209,282.1147 Q1593.924,282.1147 1594.5647,282.2709 Q1595.2209,282.4272 1595.7834,282.7241 L1595.7834,285.4428 Q1595.1584,284.8647 1594.5647,284.5991 Q1593.9709,284.3178 1593.3459,284.3178 Q1592.0022,284.3178 1591.3147,285.3959 Q1590.6272,286.4584 1590.6272,288.5522 Q1590.6272,290.6459 1591.3147,291.7241 Q1592.0022,292.7866 1593.3459,292.7866 Q1593.9709,292.7866 1594.5647,292.5209 Q1595.1584,292.2397 1595.7834,291.6616 L1595.7834,294.3803 Z " fill="#000000"/><text fill="#000000" font-family="sans-serif" font-size="12" font-style="italic" lengthAdjust="spacing" textLength="64.7344" x="1678.8791" y="284.7455">&#171;strategy&#187;</text><text fill="#000000" font-family="sans-serif" font-size="14" lengthAdjust="spacing" textLength="195.8633" x="1613.3147" y="300.5707">TripAdvisorBoekingStrategy</text><line style="stroke:#181818;stroke-width:0.5;" x1="1541.53" x2="1848.4626" y1="308.8725" y2="308.8725"/><rect fill="none" height="6" style="stroke:#C82930;stroke-width:1;" width="6" x="1548.53" y="319.5209"/><text fill="#000000" font-family="sans-serif" font-size="14" lengthAdjust="spacing" textLength="199.083" x="1560.53" y="325.8676">adapter: TripAdvisorAdapter</text><rect fill="none" height="6" style="stroke:#C82930;stroke-width:1;" width="6" x="1548.53" y="335.8178"/><text fill="#000000" font-family="sans-serif" font-size="14" lengthAdjust="spacing" textLength="282.9326" x="1560.53" y="342.1645">activiteitRepository: ActiviteitRepository</text><line style="stroke:#181818;stroke-width:0.5;" x1="1541.53" x2="1848.4626" y1="349.4663" y2="349.4663"/><ellipse cx="1551.53" cy="363.1147" fill="#84BE84" rx="3" ry="3" style="stroke:#038048;stroke-width:1;"/><text fill="#000000" font-family="sans-serif" font-size="14" lengthAdjust="spacing" textLength="213.2949" x="1560.53" y="366.4614">verwerkBoeking(boekingData)</text></g><!--class TripAdvisorAdapter--><g class="entity" data-entity="TripAdvisorAdapter" data-source-line="79" data-uid="ent0021" id="entity_TripAdvisorAdapter"><rect fill="#F1F1F1" height="137.75" rx="2.5" ry="2.5" style="stroke:#181818;stroke-width:0.5;" width="239.2949" x="1575.35" y="458.9069"/><ellipse cx="1623.1845" cy="479.0397" fill="#ADD1B2" rx="11" ry="11" style="stroke:#181818;stroke-width:1;"/><path d="M1626.1532,484.6803 Q1625.5751,484.9772 1624.9345,485.1178 Q1624.2938,485.2741 1623.5907,485.2741 Q1621.0907,485.2741 1619.7626,483.6334 Q1618.4501,481.9772 1618.4501,478.8522 Q1618.4501,475.7272 1619.7626,474.0709 Q1621.0907,472.4147 1623.5907,472.4147 Q1624.2938,472.4147 1624.9345,472.5709 Q1625.5907,472.7272 1626.1532,473.0241 L1626.1532,475.7428 Q1625.5282,475.1647 1624.9345,474.8991 Q1624.3407,474.6178 1623.7157,474.6178 Q1622.372,474.6178 1621.6845,475.6959 Q1620.997,476.7584 1620.997,478.8522 Q1620.997,480.9459 1621.6845,482.0241 Q1622.372,483.0866 1623.7157,483.0866 Q1624.3407,483.0866 1624.9345,482.8209 Q1625.5282,482.5397 1626.1532,481.9616 L1626.1532,484.6803 Z " fill="#000000"/><text fill="#000000" font-family="sans-serif" font-size="12" font-style="italic" lengthAdjust="spacing" textLength="61.6465" x="1680.4242" y="475.0455">&#171;adapter&#187;</text><text fill="#000000" font-family="sans-serif" font-size="14" lengthAdjust="spacing" textLength="135.126" x="1643.6845" y="490.8707">TripAdvisorAdapter</text><line style="stroke:#181818;stroke-width:0.5;" x1="1576.35" x2="1813.6449" y1="499.1725" y2="499.1725"/><rect fill="none" height="6" style="stroke:#C82930;stroke-width:1;" width="6" x="1583.35" y="509.8209"/><text fill="#000000" font-family="sans-serif" font-size="14" lengthAdjust="spacing" textLength="98.3828" x="1595.35" y="516.1676">apiKey: String</text><rect fill="none" height="6" style="stroke:#C82930;stroke-width:1;" width="6" x="1583.35" y="526.1178"/><text fill="#000000" font-family="sans-serif" font-size="14" lengthAdjust="spacing" textLength="132.918" x="1595.35" y="532.4645">endpointUrl: String</text><line style="stroke:#181818;stroke-width:0.5;" x1="1576.35" x2="1813.6449" y1="539.7663" y2="539.7663"/><ellipse cx="1586.35" cy="553.4147" fill="#84BE84" rx="3" ry="3" style="stroke:#038048;stroke-width:1;"/><text fill="#000000" font-family="sans-serif" font-size="14" lengthAdjust="spacing" textLength="180.6396" x="1595.35" y="556.7614">haalDataVanTripAdvisor()</text><ellipse cx="1586.35" cy="569.7116" fill="#84BE84" rx="3" ry="3" style="stroke:#038048;stroke-width:1;"/><text fill="#000000" font-family="sans-serif" font-size="14" lengthAdjust="spacing" textLength="192.999" x="1595.35" y="573.0582">stuurBoeking(boekingData)</text><ellipse cx="1586.35" cy="586.0084" fill="#84BE84" rx="3" ry="3" style="stroke:#038048;stroke-width:1;"/><text fill="#000000" font-family="sans-serif" font-size="14" lengthAdjust="spacing" textLength="213.2949" x="1595.35" y="589.3551">verwerkBoeking(boekingData)</text></g><!--link AccommodatieController to AccommodatieService--><g class="link" data-entity-1="AccommodatieController" data-entity-2="AccommodatieService" data-source-line="44" data-uid="lnk10" id="link_AccommodatieController_AccommodatieService"><path codeLine="44" d="M219,183.8269 C219,207.4569 219,229.5469 219,254.0769" fill="none" id="AccommodatieController-to-AccommodatieService" style="stroke:#181818;stroke-width:1;"/><polygon fill="#181818" points="219,260.0769,223,251.0769,219,255.0769,215,251.0769,219,260.0769" style="stroke:#181818;stroke-width:1;"/><text fill="#000000" font-family="sans-serif" font-size="13" lengthAdjust="spacing" textLength="29.7832" x="220" y="226.5238">uses</text></g><!--link AccommodatieService to BoekingStrategy--><g class="link" data-entity-1="AccommodatieService" data-entity-2="BoekingStrategy" data-source-line="45" data-uid="lnk11" id="link_AccommodatieService_BoekingStrategy"><path codeLine="45" d="M416.42,378.2669 C422.33,379.5469 428.2,380.7669 434,381.9069 C545.1,403.7869 575.26,393.5669 687,411.9069 C706.5,415.1069 842.32,442.0769 861,448.4969 C893.75,459.7569 923.1426,473.3967 951.8426,488.2667" fill="none" id="AccommodatieService-to-BoekingStrategy" style="stroke:#181818;stroke-width:1;"/><polygon fill="#181818" points="957.17,491.0269,951.0191,483.3349,952.7305,488.7267,947.3388,490.4381,957.17,491.0269" style="stroke:#181818;stroke-width:1;"/><text fill="#000000" font-family="sans-serif" font-size="13" lengthAdjust="spacing" textLength="29.7832" x="771" y="424.9738">uses</text></g><!--link AccommodatieService to AccommodatieRepository--><g class="link" data-entity-1="AccommodatieService" data-entity-2="AccommodatieRepository" data-source-line="46" data-uid="lnk12" id="link_AccommodatieService_AccommodatieRepository"><path codeLine="46" d="M246.27,382.1869 C258.39,408.8369 270.1261,434.6652 282.2461,461.3152" fill="none" id="AccommodatieService-to-AccommodatieRepository" style="stroke:#181818;stroke-width:1;"/><polygon fill="#181818" points="284.73,466.7769,284.6453,456.9284,282.6601,462.2255,277.363,460.2402,284.73,466.7769" style="stroke:#181818;stroke-width:1;"/><text fill="#000000" font-family="sans-serif" font-size="13" lengthAdjust="spacing" textLength="29.7832" x="267" y="424.9738">uses</text></g><!--link AirBnbBoekingStrategy to BoekingStrategy--><g class="link" data-entity-1="AirBnbBoekingStrategy" data-entity-2="BoekingStrategy" data-source-line="47" data-uid="lnk13" id="link_AirBnbBoekingStrategy_BoekingStrategy"><path codeLine="47" d="M744.65,374.1869 C767.42,386.5069 791.59,399.6269 814,411.9069 C862.12,438.2669 900.6257,459.6164 941.4957,482.3864" fill="none" id="AirBnbBoekingStrategy-to-BoekingStrategy" style="stroke:#181818;stroke-width:1;stroke-dasharray:7.0,7.0;"/><polygon fill="none" points="957.22,491.1469,944.4159,477.1449,938.5755,487.6278,957.22,491.1469" style="stroke:#181818;stroke-width:1;"/><text fill="#000000" font-family="sans-serif" font-size="13" lengthAdjust="spacing" textLength="76.9082" x="844" y="424.9738">implements</text></g><!--link AirBnbBoekingStrategy to AirBnbAdapter--><g class="link" data-entity-1="AirBnbBoekingStrategy" data-entity-2="AirBnbAdapter" data-source-line="48" data-uid="lnk14" id="link_AirBnbBoekingStrategy_AirBnbAdapter"><path codeLine="48" d="M648,374.0769 C648,399.7669 648,425.1069 648,452.6969" fill="none" id="AirBnbBoekingStrategy-to-AirBnbAdapter" style="stroke:#181818;stroke-width:1;"/><polygon fill="#181818" points="648,458.6969,652,449.6969,648,453.6969,644,449.6969,648,458.6969" style="stroke:#181818;stroke-width:1;"/><text fill="#000000" font-family="sans-serif" font-size="13" lengthAdjust="spacing" textLength="29.7832" x="649" y="424.9738">uses</text></g><!--link AirBnbBoekingStrategy to AccommodatieRepository--><g class="link" data-entity-1="AirBnbBoekingStrategy" data-entity-2="AccommodatieRepository" data-source-line="49" data-uid="lnk15" id="link_AirBnbBoekingStrategy_AccommodatieRepository"><path codeLine="49" d="M562.78,374.0769 C516.51,402.2469 464.1843,434.1057 415.9643,463.4757" fill="none" id="AirBnbBoekingStrategy-to-AccommodatieRepository" style="stroke:#181818;stroke-width:1;"/><polygon fill="#181818" points="410.84,466.5969,420.6072,465.3314,415.1103,463.9959,416.4457,458.499,410.84,466.5969" style="stroke:#181818;stroke-width:1;"/><text fill="#000000" font-family="sans-serif" font-size="13" lengthAdjust="spacing" textLength="29.7832" x="502" y="424.9738">uses</text></g><!--link ActiviteitController to ActiviteitService--><g class="link" data-entity-1="ActiviteitController" data-entity-2="ActiviteitService" data-source-line="87" data-uid="lnk22" id="link_ActiviteitController_ActiviteitService"><path codeLine="87" d="M1351,183.8269 C1351,207.4569 1351,229.5469 1351,254.0769" fill="none" id="ActiviteitController-to-ActiviteitService" style="stroke:#181818;stroke-width:1;"/><polygon fill="#181818" points="1351,260.0769,1355,251.0769,1351,255.0769,1347,251.0769,1351,260.0769" style="stroke:#181818;stroke-width:1;"/><text fill="#000000" font-family="sans-serif" font-size="13" lengthAdjust="spacing" textLength="29.7832" x="1352" y="226.5238">uses</text></g><!--link ActiviteitService to BoekingStrategy--><g class="link" data-entity-1="ActiviteitService" data-entity-2="BoekingStrategy" data-source-line="88" data-uid="lnk23" id="link_ActiviteitService_BoekingStrategy"><path codeLine="88" d="M1196.22,376.5969 C1174.24,386.9469 1152.5,398.7269 1133,411.9069 C1100.57,433.8169 1073.8826,461.694 1052.8926,486.534" fill="none" id="ActiviteitService-to-BoekingStrategy" style="stroke:#181818;stroke-width:1;"/><polygon fill="#181818" points="1049.02,491.1169,1057.8842,486.8242,1052.2472,487.2978,1051.7736,481.6608,1049.02,491.1169" style="stroke:#181818;stroke-width:1;"/><text fill="#000000" font-family="sans-serif" font-size="13" lengthAdjust="spacing" textLength="29.7832" x="1134" y="424.9738">uses</text></g><!--link ActiviteitService to ActiviteitRepository--><g class="link" data-entity-1="ActiviteitService" data-entity-2="ActiviteitRepository" data-source-line="89" data-uid="lnk24" id="link_ActiviteitService_ActiviteitRepository"><path codeLine="89" d="M1367.72,382.1869 C1375.14,408.8369 1382.2507,434.3467 1389.6707,460.9967" fill="none" id="ActiviteitService-to-ActiviteitRepository" style="stroke:#181818;stroke-width:1;"/><polygon fill="#181818" points="1391.28,466.7769,1392.7194,457.0338,1389.9389,461.9601,1385.0126,459.1795,1391.28,466.7769" style="stroke:#181818;stroke-width:1;"/><text fill="#000000" font-family="sans-serif" font-size="13" lengthAdjust="spacing" textLength="29.7832" x="1380" y="424.9738">uses</text></g><!--link TripAdvisorBoekingStrategy to BoekingStrategy--><g class="link" data-entity-1="TripAdvisorBoekingStrategy" data-entity-2="BoekingStrategy" data-source-line="90" data-uid="lnk25" id="link_TripAdvisorBoekingStrategy_BoekingStrategy"><path codeLine="90" d="M1552.53,374.1569 C1542.6,377.0069 1532.69,379.6269 1523,381.9069 C1421.37,405.8269 1391.76,388.5169 1290,411.9069 C1240.2,423.3569 1228.27,429.0969 1181,448.4969 C1150.25,461.1269 1133.1959,468.8696 1105.0959,482.9796" fill="none" id="TripAdvisorBoekingStrategy-to-BoekingStrategy" style="stroke:#181818;stroke-width:1;stroke-dasharray:7.0,7.0;"/><polygon fill="none" points="1089.01,491.0569,1107.7884,488.3415,1102.4035,477.6176,1089.01,491.0569" style="stroke:#181818;stroke-width:1;"/><text fill="#000000" font-family="sans-serif" font-size="13" lengthAdjust="spacing" textLength="76.9082" x="1291" y="424.9738">implements</text></g><!--link TripAdvisorBoekingStrategy to TripAdvisorAdapter--><g class="link" data-entity-1="TripAdvisorBoekingStrategy" data-entity-2="TripAdvisorAdapter" data-source-line="91" data-uid="lnk26" id="link_TripAdvisorBoekingStrategy_TripAdvisorAdapter"><path codeLine="91" d="M1695,374.0769 C1695,399.7669 1695,425.1069 1695,452.6969" fill="none" id="TripAdvisorBoekingStrategy-to-TripAdvisorAdapter" style="stroke:#181818;stroke-width:1;"/><polygon fill="#181818" points="1695,458.6969,1699,449.6969,1695,453.6969,1691,449.6969,1695,458.6969" style="stroke:#181818;stroke-width:1;"/><text fill="#000000" font-family="sans-serif" font-size="13" lengthAdjust="spacing" textLength="29.7832" x="1696" y="424.9738">uses</text></g><!--link TripAdvisorBoekingStrategy to ActiviteitRepository--><g class="link" data-entity-1="TripAdvisorBoekingStrategy" data-entity-2="ActiviteitRepository" data-source-line="92" data-uid="lnk27" id="link_TripAdvisorBoekingStrategy_ActiviteitRepository"><path codeLine="92" d="M1622.21,374.0769 C1582.68,402.2469 1538.5057,433.744 1497.3057,463.114" fill="none" id="TripAdvisorBoekingStrategy-to-ActiviteitRepository" style="stroke:#181818;stroke-width:1;"/><polygon fill="#181818" points="1492.42,466.5969,1502.0704,464.6298,1496.4914,463.6945,1497.4266,458.1155,1492.42,466.5969" style="stroke:#181818;stroke-width:1;"/><text fill="#000000" font-family="sans-serif" font-size="13" lengthAdjust="spacing" textLength="29.7832" x="1569" y="424.9738">uses</text></g><!--SRC=[jLJRRfmm47tVhx3o484gyW5ejT9k-r8bKgiaxRk12RKM3BAzHAjq_xrc5uDjR2wgmWjuBZvdc9aZY2W0FHQOSyW8pXakKOJsgI0D4K04kfU7j2hBAiE200fU1CC2yZFwYOK0HiFDfiRf4UU0xfJl3dria7m8bH5lE0LqgE18QDudRxUy-zpjkk3s-T80UmTsxCA3vFR-XWKEhq6NpKN3qvafpBGjnU3yjQA2LKK1JCAc_S40Zh2My0Ai8Id4nYsTSQ2QWz3z0G-3SF2sp0stukyXsLtV_fZRbv_UCzGL9w9YPvFXO1ze_C6ui5Z-g7MUrWyVF55YjYosUpXTpq16biJwWxyg7gCdmiLMlsGtyEIuWK2Frsfu8pGxdBzd0Sb2yvUOCVkY248lZ5aAOGUQB9pQ26UubfCUTsdxs_7_kpU_3IFA7RQasf6ocDRa4IIoB4dUDDY1PdKbr_KNAqREwn2reBynbI09JVG1uk9qObw6Qyhmx6mKxPoR4gCJ1pxALEuspUxVWXJF3EkPpj5uUFZhmYDbNK09L4pbNd6Dxit2pLCrTLB9kQsIohvG8rMuff2MoT97vGs0EkInzph5qRhPBuqgq5ojiNMbjca2gfUnG3yzXIpKH1KEjDSgPHeBel9CoA4AcH934y3W_yf8lSyQmYksMW-rN8SehkxREa4SWt-MAcf8doMDZaMzQO2z9OR6sSvPKNGbE0TOoveOa6MgE751Y-_eupBqEVANVm00]--></g></svg>